G04 #@! TF.GenerationSoftware,KiCad,Pcbnew,(5.1.6)-1*
G04 #@! TF.CreationDate,2021-06-05T18:08:31+10:00*
G04 #@! TF.ProjectId,Simon,53696d6f-6e2e-46b6-9963-61645f706362,rev?*
G04 #@! TF.SameCoordinates,Original*
G04 #@! TF.FileFunction,Legend,Top*
G04 #@! TF.FilePolarity,Positive*
%FSLAX46Y46*%
G04 Gerber Fmt 4.6, Leading zero omitted, Abs format (unit mm)*
G04 Created by KiCad (PCBNEW (5.1.6)-1) date 2021-06-05 18:08:31*
%MOMM*%
%LPD*%
G01*
G04 APERTURE LIST*
%ADD10C,0.120000*%
%ADD11C,0.150000*%
%ADD12C,2.002000*%
%ADD13R,2.002000X2.002000*%
%ADD14O,1.702000X2.502000*%
%ADD15R,1.702000X2.502000*%
%ADD16C,2.602000*%
%ADD17R,2.602000X2.602000*%
%ADD18R,2.102000X2.102000*%
%ADD19C,2.102000*%
%ADD20C,2.202000*%
G04 APERTURE END LIST*
D10*
X7440000Y14876000D02*
X7440000Y10124000D01*
X17500000Y12500000D02*
G75*
G03*
X17500000Y12500000I-5000000J0D01*
G01*
X18089998Y12495259D02*
G75*
G02*
X7440000Y10124184I-5589998J4741D01*
G01*
X18089998Y12504741D02*
G75*
G03*
X7440000Y14875816I-5589998J-4741D01*
G01*
X21360000Y2250000D02*
X21360000Y1000000D01*
X30590000Y2250000D02*
X21360000Y2250000D01*
X30590000Y-2250000D02*
X30590000Y2250000D01*
X21360000Y-2250000D02*
X30590000Y-2250000D01*
X21360000Y-1000000D02*
X21360000Y-2250000D01*
X21360000Y1000000D02*
G75*
G02*
X21360000Y-1000000I0J-1000000D01*
G01*
D11*
X-635000Y9525000D02*
X635000Y9525000D01*
X0Y10160000D02*
X0Y8890000D01*
X3500000Y13250000D02*
X3500000Y10428326D01*
X-3500000Y13250000D02*
X-3500000Y10428326D01*
X-3500000Y13250000D02*
X3500000Y13250000D01*
X3498907Y10428693D02*
G75*
G02*
X-3499999Y10428326I-3498907J-10428693D01*
G01*
D10*
X7440000Y-10124000D02*
X7440000Y-14876000D01*
X17500000Y-12500000D02*
G75*
G03*
X17500000Y-12500000I-5000000J0D01*
G01*
X18089998Y-12504741D02*
G75*
G02*
X7440000Y-14875816I-5589998J4741D01*
G01*
X18089998Y-12495259D02*
G75*
G03*
X7440000Y-10124184I-5589998J-4741D01*
G01*
X9250000Y-23800000D02*
X9250000Y-18700000D01*
X9210000Y-23800000D02*
X9210000Y-18700000D01*
X9170000Y-23799000D02*
X9170000Y-18701000D01*
X9130000Y-23798000D02*
X9130000Y-18702000D01*
X9090000Y-23796000D02*
X9090000Y-18704000D01*
X9050000Y-23793000D02*
X9050000Y-18707000D01*
X9010000Y-23789000D02*
X9010000Y-18711000D01*
X8970000Y-23785000D02*
X8970000Y-22230000D01*
X8970000Y-20270000D02*
X8970000Y-18715000D01*
X8930000Y-23781000D02*
X8930000Y-22230000D01*
X8930000Y-20270000D02*
X8930000Y-18719000D01*
X8890000Y-23775000D02*
X8890000Y-22230000D01*
X8890000Y-20270000D02*
X8890000Y-18725000D01*
X8850000Y-23769000D02*
X8850000Y-22230000D01*
X8850000Y-20270000D02*
X8850000Y-18731000D01*
X8810000Y-23763000D02*
X8810000Y-22230000D01*
X8810000Y-20270000D02*
X8810000Y-18737000D01*
X8770000Y-23756000D02*
X8770000Y-22230000D01*
X8770000Y-20270000D02*
X8770000Y-18744000D01*
X8730000Y-23748000D02*
X8730000Y-22230000D01*
X8730000Y-20270000D02*
X8730000Y-18752000D01*
X8690000Y-23739000D02*
X8690000Y-22230000D01*
X8690000Y-20270000D02*
X8690000Y-18761000D01*
X8650000Y-23730000D02*
X8650000Y-22230000D01*
X8650000Y-20270000D02*
X8650000Y-18770000D01*
X8610000Y-23720000D02*
X8610000Y-22230000D01*
X8610000Y-20270000D02*
X8610000Y-18780000D01*
X8570000Y-23710000D02*
X8570000Y-22230000D01*
X8570000Y-20270000D02*
X8570000Y-18790000D01*
X8529000Y-23698000D02*
X8529000Y-22230000D01*
X8529000Y-20270000D02*
X8529000Y-18802000D01*
X8489000Y-23686000D02*
X8489000Y-22230000D01*
X8489000Y-20270000D02*
X8489000Y-18814000D01*
X8449000Y-23674000D02*
X8449000Y-22230000D01*
X8449000Y-20270000D02*
X8449000Y-18826000D01*
X8409000Y-23660000D02*
X8409000Y-22230000D01*
X8409000Y-20270000D02*
X8409000Y-18840000D01*
X8369000Y-23646000D02*
X8369000Y-22230000D01*
X8369000Y-20270000D02*
X8369000Y-18854000D01*
X8329000Y-23632000D02*
X8329000Y-22230000D01*
X8329000Y-20270000D02*
X8329000Y-18868000D01*
X8289000Y-23616000D02*
X8289000Y-22230000D01*
X8289000Y-20270000D02*
X8289000Y-18884000D01*
X8249000Y-23600000D02*
X8249000Y-22230000D01*
X8249000Y-20270000D02*
X8249000Y-18900000D01*
X8209000Y-23583000D02*
X8209000Y-22230000D01*
X8209000Y-20270000D02*
X8209000Y-18917000D01*
X8169000Y-23565000D02*
X8169000Y-22230000D01*
X8169000Y-20270000D02*
X8169000Y-18935000D01*
X8129000Y-23546000D02*
X8129000Y-22230000D01*
X8129000Y-20270000D02*
X8129000Y-18954000D01*
X8089000Y-23526000D02*
X8089000Y-22230000D01*
X8089000Y-20270000D02*
X8089000Y-18974000D01*
X8049000Y-23506000D02*
X8049000Y-22230000D01*
X8049000Y-20270000D02*
X8049000Y-18994000D01*
X8009000Y-23484000D02*
X8009000Y-22230000D01*
X8009000Y-20270000D02*
X8009000Y-19016000D01*
X7969000Y-23462000D02*
X7969000Y-22230000D01*
X7969000Y-20270000D02*
X7969000Y-19038000D01*
X7929000Y-23439000D02*
X7929000Y-22230000D01*
X7929000Y-20270000D02*
X7929000Y-19061000D01*
X7889000Y-23415000D02*
X7889000Y-22230000D01*
X7889000Y-20270000D02*
X7889000Y-19085000D01*
X7849000Y-23390000D02*
X7849000Y-22230000D01*
X7849000Y-20270000D02*
X7849000Y-19110000D01*
X7809000Y-23363000D02*
X7809000Y-22230000D01*
X7809000Y-20270000D02*
X7809000Y-19137000D01*
X7769000Y-23336000D02*
X7769000Y-22230000D01*
X7769000Y-20270000D02*
X7769000Y-19164000D01*
X7729000Y-23308000D02*
X7729000Y-22230000D01*
X7729000Y-20270000D02*
X7729000Y-19192000D01*
X7689000Y-23278000D02*
X7689000Y-22230000D01*
X7689000Y-20270000D02*
X7689000Y-19222000D01*
X7649000Y-23247000D02*
X7649000Y-22230000D01*
X7649000Y-20270000D02*
X7649000Y-19253000D01*
X7609000Y-23215000D02*
X7609000Y-22230000D01*
X7609000Y-20270000D02*
X7609000Y-19285000D01*
X7569000Y-23182000D02*
X7569000Y-22230000D01*
X7569000Y-20270000D02*
X7569000Y-19318000D01*
X7529000Y-23147000D02*
X7529000Y-22230000D01*
X7529000Y-20270000D02*
X7529000Y-19353000D01*
X7489000Y-23111000D02*
X7489000Y-22230000D01*
X7489000Y-20270000D02*
X7489000Y-19389000D01*
X7449000Y-23073000D02*
X7449000Y-22230000D01*
X7449000Y-20270000D02*
X7449000Y-19427000D01*
X7409000Y-23033000D02*
X7409000Y-22230000D01*
X7409000Y-20270000D02*
X7409000Y-19467000D01*
X7369000Y-22992000D02*
X7369000Y-22230000D01*
X7369000Y-20270000D02*
X7369000Y-19508000D01*
X7329000Y-22949000D02*
X7329000Y-22230000D01*
X7329000Y-20270000D02*
X7329000Y-19551000D01*
X7289000Y-22904000D02*
X7289000Y-22230000D01*
X7289000Y-20270000D02*
X7289000Y-19596000D01*
X7249000Y-22856000D02*
X7249000Y-22230000D01*
X7249000Y-20270000D02*
X7249000Y-19644000D01*
X7209000Y-22806000D02*
X7209000Y-22230000D01*
X7209000Y-20270000D02*
X7209000Y-19694000D01*
X7169000Y-22754000D02*
X7169000Y-22230000D01*
X7169000Y-20270000D02*
X7169000Y-19746000D01*
X7129000Y-22698000D02*
X7129000Y-22230000D01*
X7129000Y-20270000D02*
X7129000Y-19802000D01*
X7089000Y-22640000D02*
X7089000Y-22230000D01*
X7089000Y-20270000D02*
X7089000Y-19860000D01*
X7049000Y-22577000D02*
X7049000Y-22230000D01*
X7049000Y-20270000D02*
X7049000Y-19923000D01*
X7009000Y-22511000D02*
X7009000Y-19989000D01*
X6969000Y-22439000D02*
X6969000Y-20061000D01*
X6929000Y-22362000D02*
X6929000Y-20138000D01*
X6889000Y-22278000D02*
X6889000Y-20222000D01*
X6849000Y-22184000D02*
X6849000Y-20316000D01*
X6809000Y-22079000D02*
X6809000Y-20421000D01*
X6769000Y-21957000D02*
X6769000Y-20543000D01*
X6729000Y-21809000D02*
X6729000Y-20691000D01*
X6689000Y-21604000D02*
X6689000Y-20896000D01*
D11*
X12500000Y-20650000D02*
X12500000Y-21850000D01*
X11900000Y-21250000D02*
X13100000Y-21250000D01*
D10*
X6944278Y-22429723D02*
G75*
G03*
X11555580Y-22430000I2305722J1179723D01*
G01*
X6944278Y-20070277D02*
G75*
G02*
X11555580Y-20070000I2305722J-1179723D01*
G01*
X6944278Y-20070277D02*
G75*
G03*
X6944420Y-22430000I2305722J-1179723D01*
G01*
X5800000Y-18000000D02*
G75*
G03*
X5800000Y-18000000I-5800000J0D01*
G01*
D11*
X-3200000Y-15100000D02*
X-3200000Y-16300000D01*
X-3800000Y-15700000D02*
X-2600000Y-15700000D01*
D10*
X-17560000Y14876000D02*
X-17560000Y10124000D01*
X-7500000Y12500000D02*
G75*
G03*
X-7500000Y12500000I-5000000J0D01*
G01*
X-6910002Y12495259D02*
G75*
G02*
X-17560000Y10124184I-5589998J4741D01*
G01*
X-6910002Y12504741D02*
G75*
G03*
X-17560000Y14875816I-5589998J-4741D01*
G01*
X-17560000Y-10124000D02*
X-17560000Y-14876000D01*
X-7500000Y-12500000D02*
G75*
G03*
X-7500000Y-12500000I-5000000J0D01*
G01*
X-6910002Y-12504741D02*
G75*
G02*
X-17560000Y-14875816I-5589998J4741D01*
G01*
X-6910002Y-12495259D02*
G75*
G03*
X-17560000Y-10124184I-5589998J-4741D01*
G01*
D11*
X-32000000Y18500000D02*
X-32000000Y16250000D01*
X-20000000Y18500000D02*
X-32000000Y18500000D01*
X-20000000Y16250000D02*
X-20000000Y18500000D01*
X-20000000Y11250000D02*
X-20000000Y13750000D01*
X-32000000Y11250000D02*
X-32000000Y13750000D01*
X-32000000Y6500000D02*
X-32000000Y8750000D01*
X-20000000Y6500000D02*
X-32000000Y6500000D01*
X-20000000Y8750000D02*
X-20000000Y6500000D01*
X-21500000Y12500000D02*
G75*
G03*
X-21500000Y12500000I-4500000J0D01*
G01*
X20000000Y18500000D02*
X20000000Y16250000D01*
X32000000Y18500000D02*
X20000000Y18500000D01*
X32000000Y16250000D02*
X32000000Y18500000D01*
X32000000Y11250000D02*
X32000000Y13750000D01*
X20000000Y11250000D02*
X20000000Y13750000D01*
X20000000Y6500000D02*
X20000000Y8750000D01*
X32000000Y6500000D02*
X20000000Y6500000D01*
X32000000Y8750000D02*
X32000000Y6500000D01*
X30500000Y12500000D02*
G75*
G03*
X30500000Y12500000I-4500000J0D01*
G01*
X-20000000Y-18500000D02*
X-20000000Y-16250000D01*
X-32000000Y-18500000D02*
X-20000000Y-18500000D01*
X-32000000Y-16250000D02*
X-32000000Y-18500000D01*
X-32000000Y-11250000D02*
X-32000000Y-13750000D01*
X-20000000Y-11250000D02*
X-20000000Y-13750000D01*
X-20000000Y-6500000D02*
X-20000000Y-8750000D01*
X-32000000Y-6500000D02*
X-20000000Y-6500000D01*
X-32000000Y-8750000D02*
X-32000000Y-6500000D01*
X-21500000Y-12500000D02*
G75*
G03*
X-21500000Y-12500000I-4500000J0D01*
G01*
X32000000Y-18500000D02*
X32000000Y-16250000D01*
X20000000Y-18500000D02*
X32000000Y-18500000D01*
X20000000Y-16250000D02*
X20000000Y-18500000D01*
X20000000Y-11250000D02*
X20000000Y-13750000D01*
X32000000Y-11250000D02*
X32000000Y-13750000D01*
X32000000Y-6500000D02*
X32000000Y-8750000D01*
X20000000Y-6500000D02*
X32000000Y-6500000D01*
X20000000Y-8750000D02*
X20000000Y-6500000D01*
X30500000Y-12500000D02*
G75*
G03*
X30500000Y-12500000I-4500000J0D01*
G01*
D10*
X-29210000Y21350000D02*
X-29210000Y22060000D01*
X-29210000Y22060000D02*
X-22790000Y22060000D01*
X-22790000Y22060000D02*
X-22790000Y21350000D01*
X-29210000Y20150000D02*
X-29210000Y19440000D01*
X-29210000Y19440000D02*
X-22790000Y19440000D01*
X-22790000Y19440000D02*
X-22790000Y20150000D01*
X29210000Y20150000D02*
X29210000Y19440000D01*
X29210000Y19440000D02*
X22790000Y19440000D01*
X22790000Y19440000D02*
X22790000Y20150000D01*
X29210000Y21350000D02*
X29210000Y22060000D01*
X29210000Y22060000D02*
X22790000Y22060000D01*
X22790000Y22060000D02*
X22790000Y21350000D01*
X-29210000Y-20150000D02*
X-29210000Y-19440000D01*
X-29210000Y-19440000D02*
X-22790000Y-19440000D01*
X-22790000Y-19440000D02*
X-22790000Y-20150000D01*
X-29210000Y-21350000D02*
X-29210000Y-22060000D01*
X-29210000Y-22060000D02*
X-22790000Y-22060000D01*
X-22790000Y-22060000D02*
X-22790000Y-21350000D01*
X29210000Y-21350000D02*
X29210000Y-22060000D01*
X29210000Y-22060000D02*
X22790000Y-22060000D01*
X22790000Y-22060000D02*
X22790000Y-21350000D01*
X29210000Y-20150000D02*
X29210000Y-19440000D01*
X29210000Y-19440000D02*
X22790000Y-19440000D01*
X22790000Y-19440000D02*
X22790000Y-20150000D01*
X-15250000Y0D02*
G75*
G03*
X-15250000Y0I-1750000J0D01*
G01*
X-20000000Y1000000D02*
X-20000000Y-1000000D01*
X-14750000Y3000000D02*
X-19250000Y3000000D01*
X-14000000Y-1000000D02*
X-14000000Y1000000D01*
X-19250000Y-3000000D02*
X-14750000Y-3000000D01*
D11*
X11761904Y9547619D02*
X11761904Y10547619D01*
X12000000Y10547619D01*
X12142857Y10500000D01*
X12238095Y10404761D01*
X12285714Y10309523D01*
X12333333Y10119047D01*
X12333333Y9976190D01*
X12285714Y9785714D01*
X12238095Y9690476D01*
X12142857Y9595238D01*
X12000000Y9547619D01*
X11761904Y9547619D01*
X12714285Y10452380D02*
X12761904Y10500000D01*
X12857142Y10547619D01*
X13095238Y10547619D01*
X13190476Y10500000D01*
X13238095Y10452380D01*
X13285714Y10357142D01*
X13285714Y10261904D01*
X13238095Y10119047D01*
X12666666Y9547619D01*
X13285714Y9547619D01*
X25238095Y547619D02*
X25238095Y-261904D01*
X25285714Y-357142D01*
X25333333Y-404761D01*
X25428571Y-452380D01*
X25619047Y-452380D01*
X25714285Y-404761D01*
X25761904Y-357142D01*
X25809523Y-261904D01*
X25809523Y547619D01*
X26809523Y-452380D02*
X26238095Y-452380D01*
X26523809Y-452380D02*
X26523809Y547619D01*
X26428571Y404761D01*
X26333333Y309523D01*
X26238095Y261904D01*
X11741904Y-15452380D02*
X11741904Y-14452380D01*
X11980000Y-14452380D01*
X12122857Y-14500000D01*
X12218095Y-14595238D01*
X12265714Y-14690476D01*
X12313333Y-14880952D01*
X12313333Y-15023809D01*
X12265714Y-15214285D01*
X12218095Y-15309523D01*
X12122857Y-15404761D01*
X11980000Y-15452380D01*
X11741904Y-15452380D01*
X13170476Y-14785714D02*
X13170476Y-15452380D01*
X12932380Y-14404761D02*
X12694285Y-15119047D01*
X13313333Y-15119047D01*
X9083333Y-25417142D02*
X9035714Y-25464761D01*
X8892857Y-25512380D01*
X8797619Y-25512380D01*
X8654761Y-25464761D01*
X8559523Y-25369523D01*
X8511904Y-25274285D01*
X8464285Y-25083809D01*
X8464285Y-24940952D01*
X8511904Y-24750476D01*
X8559523Y-24655238D01*
X8654761Y-24560000D01*
X8797619Y-24512380D01*
X8892857Y-24512380D01*
X9035714Y-24560000D01*
X9083333Y-24607619D01*
X10035714Y-25512380D02*
X9464285Y-25512380D01*
X9750000Y-25512380D02*
X9750000Y-24512380D01*
X9654761Y-24655238D01*
X9559523Y-24750476D01*
X9464285Y-24798095D01*
X-642857Y-18427379D02*
X-1119047Y-18427379D01*
X-1119047Y-17427379D01*
X-357142Y-18379760D02*
X-214285Y-18427379D01*
X23809Y-18427379D01*
X119047Y-18379760D01*
X166666Y-18332141D01*
X214285Y-18236903D01*
X214285Y-18141665D01*
X166666Y-18046427D01*
X119047Y-17998808D01*
X23809Y-17951189D01*
X-166666Y-17903570D01*
X-261904Y-17855951D01*
X-309523Y-17808332D01*
X-357142Y-17713094D01*
X-357142Y-17617856D01*
X-309523Y-17522618D01*
X-261904Y-17474999D01*
X-166666Y-17427379D01*
X71428Y-17427379D01*
X214285Y-17474999D01*
X1166666Y-18427379D02*
X595238Y-18427379D01*
X880952Y-18427379D02*
X880952Y-17427379D01*
X785714Y-17570237D01*
X690476Y-17665475D01*
X595238Y-17713094D01*
X-13238095Y9547619D02*
X-13238095Y10547619D01*
X-13000000Y10547619D01*
X-12857142Y10500000D01*
X-12761904Y10404761D01*
X-12714285Y10309523D01*
X-12666666Y10119047D01*
X-12666666Y9976190D01*
X-12714285Y9785714D01*
X-12761904Y9690476D01*
X-12857142Y9595238D01*
X-13000000Y9547619D01*
X-13238095Y9547619D01*
X-11714285Y9547619D02*
X-12285714Y9547619D01*
X-12000000Y9547619D02*
X-12000000Y10547619D01*
X-12095238Y10404761D01*
X-12190476Y10309523D01*
X-12285714Y10261904D01*
X-13238095Y-15452380D02*
X-13238095Y-14452380D01*
X-13000000Y-14452380D01*
X-12857142Y-14500000D01*
X-12761904Y-14595238D01*
X-12714285Y-14690476D01*
X-12666666Y-14880952D01*
X-12666666Y-15023809D01*
X-12714285Y-15214285D01*
X-12761904Y-15309523D01*
X-12857142Y-15404761D01*
X-13000000Y-15452380D01*
X-13238095Y-15452380D01*
X-12333333Y-14452380D02*
X-11714285Y-14452380D01*
X-12047619Y-14833333D01*
X-11904761Y-14833333D01*
X-11809523Y-14880952D01*
X-11761904Y-14928571D01*
X-11714285Y-15023809D01*
X-11714285Y-15261904D01*
X-11761904Y-15357142D01*
X-11809523Y-15404761D01*
X-11904761Y-15452380D01*
X-12190476Y-15452380D01*
X-12285714Y-15404761D01*
X-12333333Y-15357142D01*
X-27333333Y12095238D02*
X-27190476Y12047619D01*
X-26952380Y12047619D01*
X-26857142Y12095238D01*
X-26809523Y12142857D01*
X-26761904Y12238095D01*
X-26761904Y12333333D01*
X-26809523Y12428571D01*
X-26857142Y12476190D01*
X-26952380Y12523809D01*
X-27142857Y12571428D01*
X-27238095Y12619047D01*
X-27285714Y12666666D01*
X-27333333Y12761904D01*
X-27333333Y12857142D01*
X-27285714Y12952380D01*
X-27238095Y13000000D01*
X-27142857Y13047619D01*
X-26904761Y13047619D01*
X-26761904Y13000000D01*
X-26428571Y13047619D02*
X-26190476Y12047619D01*
X-26000000Y12761904D01*
X-25809523Y12047619D01*
X-25571428Y13047619D01*
X-24666666Y12047619D02*
X-25238095Y12047619D01*
X-24952380Y12047619D02*
X-24952380Y13047619D01*
X-25047619Y12904761D01*
X-25142857Y12809523D01*
X-25238095Y12761904D01*
X24666666Y12095238D02*
X24809523Y12047619D01*
X25047619Y12047619D01*
X25142857Y12095238D01*
X25190476Y12142857D01*
X25238095Y12238095D01*
X25238095Y12333333D01*
X25190476Y12428571D01*
X25142857Y12476190D01*
X25047619Y12523809D01*
X24857142Y12571428D01*
X24761904Y12619047D01*
X24714285Y12666666D01*
X24666666Y12761904D01*
X24666666Y12857142D01*
X24714285Y12952380D01*
X24761904Y13000000D01*
X24857142Y13047619D01*
X25095238Y13047619D01*
X25238095Y13000000D01*
X25571428Y13047619D02*
X25809523Y12047619D01*
X26000000Y12761904D01*
X26190476Y12047619D01*
X26428571Y13047619D01*
X26761904Y12952380D02*
X26809523Y13000000D01*
X26904761Y13047619D01*
X27142857Y13047619D01*
X27238095Y13000000D01*
X27285714Y12952380D01*
X27333333Y12857142D01*
X27333333Y12761904D01*
X27285714Y12619047D01*
X26714285Y12047619D01*
X27333333Y12047619D01*
X-27333333Y-12904761D02*
X-27190476Y-12952380D01*
X-26952380Y-12952380D01*
X-26857142Y-12904761D01*
X-26809523Y-12857142D01*
X-26761904Y-12761904D01*
X-26761904Y-12666666D01*
X-26809523Y-12571428D01*
X-26857142Y-12523809D01*
X-26952380Y-12476190D01*
X-27142857Y-12428571D01*
X-27238095Y-12380952D01*
X-27285714Y-12333333D01*
X-27333333Y-12238095D01*
X-27333333Y-12142857D01*
X-27285714Y-12047619D01*
X-27238095Y-12000000D01*
X-27142857Y-11952380D01*
X-26904761Y-11952380D01*
X-26761904Y-12000000D01*
X-26428571Y-11952380D02*
X-26190476Y-12952380D01*
X-26000000Y-12238095D01*
X-25809523Y-12952380D01*
X-25571428Y-11952380D01*
X-25285714Y-11952380D02*
X-24666666Y-11952380D01*
X-25000000Y-12333333D01*
X-24857142Y-12333333D01*
X-24761904Y-12380952D01*
X-24714285Y-12428571D01*
X-24666666Y-12523809D01*
X-24666666Y-12761904D01*
X-24714285Y-12857142D01*
X-24761904Y-12904761D01*
X-24857142Y-12952380D01*
X-25142857Y-12952380D01*
X-25238095Y-12904761D01*
X-25285714Y-12857142D01*
X24666666Y-12904761D02*
X24809523Y-12952380D01*
X25047619Y-12952380D01*
X25142857Y-12904761D01*
X25190476Y-12857142D01*
X25238095Y-12761904D01*
X25238095Y-12666666D01*
X25190476Y-12571428D01*
X25142857Y-12523809D01*
X25047619Y-12476190D01*
X24857142Y-12428571D01*
X24761904Y-12380952D01*
X24714285Y-12333333D01*
X24666666Y-12238095D01*
X24666666Y-12142857D01*
X24714285Y-12047619D01*
X24761904Y-12000000D01*
X24857142Y-11952380D01*
X25095238Y-11952380D01*
X25238095Y-12000000D01*
X25571428Y-11952380D02*
X25809523Y-12952380D01*
X26000000Y-12238095D01*
X26190476Y-12952380D01*
X26428571Y-11952380D01*
X27238095Y-12285714D02*
X27238095Y-12952380D01*
X27000000Y-11904761D02*
X26761904Y-12619047D01*
X27380952Y-12619047D01*
X-26166666Y20297619D02*
X-26500000Y20773809D01*
X-26738095Y20297619D02*
X-26738095Y21297619D01*
X-26357142Y21297619D01*
X-26261904Y21250000D01*
X-26214285Y21202380D01*
X-26166666Y21107142D01*
X-26166666Y20964285D01*
X-26214285Y20869047D01*
X-26261904Y20821428D01*
X-26357142Y20773809D01*
X-26738095Y20773809D01*
X-25214285Y20297619D02*
X-25785714Y20297619D01*
X-25500000Y20297619D02*
X-25500000Y21297619D01*
X-25595238Y21154761D01*
X-25690476Y21059523D01*
X-25785714Y21011904D01*
X25833333Y20297619D02*
X25500000Y20773809D01*
X25261904Y20297619D02*
X25261904Y21297619D01*
X25642857Y21297619D01*
X25738095Y21250000D01*
X25785714Y21202380D01*
X25833333Y21107142D01*
X25833333Y20964285D01*
X25785714Y20869047D01*
X25738095Y20821428D01*
X25642857Y20773809D01*
X25261904Y20773809D01*
X26214285Y21202380D02*
X26261904Y21250000D01*
X26357142Y21297619D01*
X26595238Y21297619D01*
X26690476Y21250000D01*
X26738095Y21202380D01*
X26785714Y21107142D01*
X26785714Y21011904D01*
X26738095Y20869047D01*
X26166666Y20297619D01*
X26785714Y20297619D01*
X-26166666Y-21202380D02*
X-26500000Y-20726190D01*
X-26738095Y-21202380D02*
X-26738095Y-20202380D01*
X-26357142Y-20202380D01*
X-26261904Y-20250000D01*
X-26214285Y-20297619D01*
X-26166666Y-20392857D01*
X-26166666Y-20535714D01*
X-26214285Y-20630952D01*
X-26261904Y-20678571D01*
X-26357142Y-20726190D01*
X-26738095Y-20726190D01*
X-25833333Y-20202380D02*
X-25214285Y-20202380D01*
X-25547619Y-20583333D01*
X-25404761Y-20583333D01*
X-25309523Y-20630952D01*
X-25261904Y-20678571D01*
X-25214285Y-20773809D01*
X-25214285Y-21011904D01*
X-25261904Y-21107142D01*
X-25309523Y-21154761D01*
X-25404761Y-21202380D01*
X-25690476Y-21202380D01*
X-25785714Y-21154761D01*
X-25833333Y-21107142D01*
X25833333Y-21202380D02*
X25500000Y-20726190D01*
X25261904Y-21202380D02*
X25261904Y-20202380D01*
X25642857Y-20202380D01*
X25738095Y-20250000D01*
X25785714Y-20297619D01*
X25833333Y-20392857D01*
X25833333Y-20535714D01*
X25785714Y-20630952D01*
X25738095Y-20678571D01*
X25642857Y-20726190D01*
X25261904Y-20726190D01*
X26690476Y-20535714D02*
X26690476Y-21202380D01*
X26452380Y-20154761D02*
X26214285Y-20869047D01*
X26833333Y-20869047D01*
X-18333333Y-404761D02*
X-18190476Y-452380D01*
X-17952380Y-452380D01*
X-17857142Y-404761D01*
X-17809523Y-357142D01*
X-17761904Y-261904D01*
X-17761904Y-166666D01*
X-17809523Y-71428D01*
X-17857142Y-23809D01*
X-17952380Y23809D01*
X-18142857Y71428D01*
X-18238095Y119047D01*
X-18285714Y166666D01*
X-18333333Y261904D01*
X-18333333Y357142D01*
X-18285714Y452380D01*
X-18238095Y500000D01*
X-18142857Y547619D01*
X-17904761Y547619D01*
X-17761904Y500000D01*
X-17428571Y547619D02*
X-17190476Y-452380D01*
X-17000000Y261904D01*
X-16809523Y-452380D01*
X-16571428Y547619D01*
X-15714285Y547619D02*
X-16190476Y547619D01*
X-16238095Y71428D01*
X-16190476Y119047D01*
X-16095238Y166666D01*
X-15857142Y166666D01*
X-15761904Y119047D01*
X-15714285Y71428D01*
X-15666666Y-23809D01*
X-15666666Y-261904D01*
X-15714285Y-357142D01*
X-15761904Y-404761D01*
X-15857142Y-452380D01*
X-16095238Y-452380D01*
X-16190476Y-404761D01*
X-16238095Y-357142D01*
%LPC*%
D12*
X13770000Y12500000D03*
D13*
X11230000Y12500000D03*
D14*
X22190000Y3810000D03*
X29810000Y-3810000D03*
X24730000Y3810000D03*
X27270000Y-3810000D03*
X27270000Y3810000D03*
X24730000Y-3810000D03*
X29810000Y3810000D03*
D15*
X22190000Y-3810000D03*
D16*
X0Y-8255000D03*
D17*
X0Y12065000D03*
D12*
X13770000Y-12500000D03*
D13*
X11230000Y-12500000D03*
D18*
X10500000Y-21250000D03*
D19*
X8000000Y-21250000D03*
D18*
X-3250000Y-18000000D03*
D19*
X3250000Y-18000000D03*
D12*
X-11230000Y12500000D03*
D13*
X-13770000Y12500000D03*
D12*
X-11230000Y-12500000D03*
D13*
X-13770000Y-12500000D03*
D20*
X-32250000Y15000000D03*
X-32250000Y10000000D03*
X-19750000Y15000000D03*
X-19750000Y10000000D03*
X19750000Y15000000D03*
X19750000Y10000000D03*
X32250000Y15000000D03*
X32250000Y10000000D03*
X-19750000Y-15000000D03*
X-19750000Y-10000000D03*
X-32250000Y-15000000D03*
X-32250000Y-10000000D03*
X32250000Y-15000000D03*
X32250000Y-10000000D03*
X19750000Y-15000000D03*
X19750000Y-10000000D03*
D19*
X-30250000Y20750000D03*
X-21750000Y20750000D03*
X30250000Y20750000D03*
X21750000Y20750000D03*
X-30250000Y-20750000D03*
X-21750000Y-20750000D03*
X30250000Y-20750000D03*
X21750000Y-20750000D03*
X-13750000Y-2250000D03*
X-20250000Y-2250000D03*
X-13750000Y2250000D03*
X-20250000Y2250000D03*
X17000000Y1270000D03*
X17000000Y-1270000D03*
D14*
X8890000Y20701000D03*
X6350000Y20701000D03*
X3810000Y20701000D03*
X1270000Y20701000D03*
X-1270000Y20701000D03*
X-3810000Y20701000D03*
X-6350000Y20701000D03*
X-8890000Y20701000D03*
M02*
