M48
; DRILL file {KiCad (5.1.6)-1} date 06/05/21 17:39:45
; FORMAT={-:-/ absolute / metric / decimal}
; #@! TF.CreationDate,2021-06-05T17:39:45+10:00
; #@! TF.GenerationSoftware,Kicad,Pcbnew,(5.1.6)-1
; #@! TF.FileFunction,Plated,1,2,PTH
FMAT,2
METRIC
T1C0.400
T2C0.800
T3C0.900
T4C1.000
T5C1.100
%
G90
G05
T1
X7.25Y7.0
X8.94Y8.25
T2
X21.75Y20.75
X30.25Y20.75
X22.19Y3.81
X22.19Y-3.81
X24.73Y3.81
X24.73Y-3.81
X27.27Y3.81
X27.27Y-3.81
X29.81Y3.81
X29.81Y-3.81
X21.75Y-20.75
X30.25Y-20.75
X8.0Y-21.25
X10.5Y-21.25
X-30.25Y20.75
X-21.75Y20.75
X-30.25Y-20.75
X-21.75Y-20.75
T3
X11.23Y12.5
X13.77Y12.5
X-13.77Y12.5
X-11.23Y12.5
X-13.77Y-12.5
X-11.23Y-12.5
X11.23Y-12.5
X13.77Y-12.5
T4
X-3.25Y-18.0
X3.25Y-18.0
X17.0Y1.27
X17.0Y-1.27
X0.0Y12.065
X0.0Y-8.255
X-20.25Y2.25
X-20.25Y-2.25
X-13.75Y2.25
X-13.75Y-2.25
X-8.89Y20.701
X-6.35Y20.701
X-3.81Y20.701
X-1.27Y20.701
X1.27Y20.701
X3.81Y20.701
X6.35Y20.701
X8.89Y20.701
T5
X-32.25Y-10.0
X-32.25Y-15.0
X-19.75Y-10.0
X-19.75Y-15.0
X19.75Y15.0
X19.75Y10.0
X32.25Y15.0
X32.25Y10.0
X19.75Y-10.0
X19.75Y-15.0
X32.25Y-10.0
X32.25Y-15.0
X-32.25Y15.0
X-32.25Y10.0
X-19.75Y15.0
X-19.75Y10.0
T0
M30
