G04 #@! TF.GenerationSoftware,KiCad,Pcbnew,(5.1.6)-1*
G04 #@! TF.CreationDate,2021-06-05T18:08:31+10:00*
G04 #@! TF.ProjectId,Simon,53696d6f-6e2e-46b6-9963-61645f706362,rev?*
G04 #@! TF.SameCoordinates,Original*
G04 #@! TF.FileFunction,Legend,Bot*
G04 #@! TF.FilePolarity,Positive*
%FSLAX46Y46*%
G04 Gerber Fmt 4.6, Leading zero omitted, Abs format (unit mm)*
G04 Created by KiCad (PCBNEW (5.1.6)-1) date 2021-06-05 18:08:31*
%MOMM*%
%LPD*%
G01*
G04 APERTURE LIST*
%ADD10C,0.150000*%
%ADD11C,0.120000*%
%ADD12C,0.600000*%
%ADD13C,0.300000*%
%ADD14C,2.002000*%
%ADD15R,2.002000X2.002000*%
%ADD16O,1.702000X2.502000*%
%ADD17R,1.702000X2.502000*%
%ADD18C,2.602000*%
%ADD19R,2.602000X2.602000*%
%ADD20R,2.102000X2.102000*%
%ADD21C,2.102000*%
%ADD22C,2.202000*%
%ADD23C,0.100000*%
G04 APERTURE END LIST*
D10*
X18633333Y23433333D02*
X18157142Y23433333D01*
X18728571Y23147619D02*
X18395238Y24147619D01*
X18061904Y23147619D01*
X17871428Y24147619D02*
X17300000Y24147619D01*
X17585714Y23147619D02*
X17585714Y24147619D01*
X17109523Y24147619D02*
X16538095Y24147619D01*
X16823809Y23147619D02*
X16823809Y24147619D01*
X16204761Y23147619D02*
X16204761Y24147619D01*
X15728571Y23147619D02*
X15728571Y24147619D01*
X15157142Y23147619D01*
X15157142Y24147619D01*
X14490476Y23623809D02*
X14490476Y23147619D01*
X14823809Y24147619D02*
X14490476Y23623809D01*
X14157142Y24147619D01*
X13061904Y23147619D02*
X13061904Y24147619D01*
X12680952Y24147619D01*
X12585714Y24100000D01*
X12538095Y24052380D01*
X12490476Y23957142D01*
X12490476Y23814285D01*
X12538095Y23719047D01*
X12585714Y23671428D01*
X12680952Y23623809D01*
X13061904Y23623809D01*
X12061904Y23147619D02*
X12061904Y24147619D01*
X11585714Y23147619D02*
X11585714Y24147619D01*
X11014285Y23147619D01*
X11014285Y24147619D01*
D11*
X-30804761Y-24561904D02*
X-30804761Y-25133333D01*
X-30766666Y-25247619D01*
X-30690476Y-25323809D01*
X-30576190Y-25361904D01*
X-30500000Y-25361904D01*
X-31566666Y-25361904D02*
X-31185714Y-25361904D01*
X-31185714Y-24561904D01*
X-32290476Y-25285714D02*
X-32252380Y-25323809D01*
X-32138095Y-25361904D01*
X-32061904Y-25361904D01*
X-31947619Y-25323809D01*
X-31871428Y-25247619D01*
X-31833333Y-25171428D01*
X-31795238Y-25019047D01*
X-31795238Y-24904761D01*
X-31833333Y-24752380D01*
X-31871428Y-24676190D01*
X-31947619Y-24600000D01*
X-32061904Y-24561904D01*
X-32138095Y-24561904D01*
X-32252380Y-24600000D01*
X-32290476Y-24638095D01*
X-32861904Y-24561904D02*
X-32861904Y-25133333D01*
X-32823809Y-25247619D01*
X-32747619Y-25323809D01*
X-32633333Y-25361904D01*
X-32557142Y-25361904D01*
X-33623809Y-25361904D02*
X-33242857Y-25361904D01*
X-33242857Y-24561904D01*
X-34347619Y-25285714D02*
X-34309523Y-25323809D01*
X-34195238Y-25361904D01*
X-34119047Y-25361904D01*
X-34004761Y-25323809D01*
X-33928571Y-25247619D01*
X-33890476Y-25171428D01*
X-33852380Y-25019047D01*
X-33852380Y-24904761D01*
X-33890476Y-24752380D01*
X-33928571Y-24676190D01*
X-34004761Y-24600000D01*
X-34119047Y-24561904D01*
X-34195238Y-24561904D01*
X-34309523Y-24600000D01*
X-34347619Y-24638095D01*
X-34919047Y-24561904D02*
X-34919047Y-25133333D01*
X-34880952Y-25247619D01*
X-34804761Y-25323809D01*
X-34690476Y-25361904D01*
X-34614285Y-25361904D01*
X-35680952Y-25361904D02*
X-35300000Y-25361904D01*
X-35300000Y-24561904D01*
X-36404761Y-25285714D02*
X-36366666Y-25323809D01*
X-36252380Y-25361904D01*
X-36176190Y-25361904D01*
X-36061904Y-25323809D01*
X-35985714Y-25247619D01*
X-35947619Y-25171428D01*
X-35909523Y-25019047D01*
X-35909523Y-24904761D01*
X-35947619Y-24752380D01*
X-35985714Y-24676190D01*
X-36061904Y-24600000D01*
X-36176190Y-24561904D01*
X-36252380Y-24561904D01*
X-36366666Y-24600000D01*
X-36404761Y-24638095D01*
X-36976190Y-24561904D02*
X-36976190Y-25133333D01*
X-36938095Y-25247619D01*
X-36861904Y-25323809D01*
X-36747619Y-25361904D01*
X-36671428Y-25361904D01*
X-37738095Y-25361904D02*
X-37357142Y-25361904D01*
X-37357142Y-24561904D01*
X-38461904Y-25285714D02*
X-38423809Y-25323809D01*
X-38309523Y-25361904D01*
X-38233333Y-25361904D01*
X-38119047Y-25323809D01*
X-38042857Y-25247619D01*
X-38004761Y-25171428D01*
X-37966666Y-25019047D01*
X-37966666Y-24904761D01*
X-38004761Y-24752380D01*
X-38042857Y-24676190D01*
X-38119047Y-24600000D01*
X-38233333Y-24561904D01*
X-38309523Y-24561904D01*
X-38423809Y-24600000D01*
X-38461904Y-24638095D01*
D10*
X39033333Y-25404761D02*
X38890476Y-25452380D01*
X38652380Y-25452380D01*
X38557142Y-25404761D01*
X38509523Y-25357142D01*
X38461904Y-25261904D01*
X38461904Y-25166666D01*
X38509523Y-25071428D01*
X38557142Y-25023809D01*
X38652380Y-24976190D01*
X38842857Y-24928571D01*
X38938095Y-24880952D01*
X38985714Y-24833333D01*
X39033333Y-24738095D01*
X39033333Y-24642857D01*
X38985714Y-24547619D01*
X38938095Y-24500000D01*
X38842857Y-24452380D01*
X38604761Y-24452380D01*
X38461904Y-24500000D01*
X38033333Y-25452380D02*
X38033333Y-24785714D01*
X38033333Y-24452380D02*
X38080952Y-24500000D01*
X38033333Y-24547619D01*
X37985714Y-24500000D01*
X38033333Y-24452380D01*
X38033333Y-24547619D01*
X37557142Y-25452380D02*
X37557142Y-24785714D01*
X37557142Y-24880952D02*
X37509523Y-24833333D01*
X37414285Y-24785714D01*
X37271428Y-24785714D01*
X37176190Y-24833333D01*
X37128571Y-24928571D01*
X37128571Y-25452380D01*
X37128571Y-24928571D02*
X37080952Y-24833333D01*
X36985714Y-24785714D01*
X36842857Y-24785714D01*
X36747619Y-24833333D01*
X36700000Y-24928571D01*
X36700000Y-25452380D01*
X36080952Y-25452380D02*
X36176190Y-25404761D01*
X36223809Y-25357142D01*
X36271428Y-25261904D01*
X36271428Y-24976190D01*
X36223809Y-24880952D01*
X36176190Y-24833333D01*
X36080952Y-24785714D01*
X35938095Y-24785714D01*
X35842857Y-24833333D01*
X35795238Y-24880952D01*
X35747619Y-24976190D01*
X35747619Y-25261904D01*
X35795238Y-25357142D01*
X35842857Y-25404761D01*
X35938095Y-25452380D01*
X36080952Y-25452380D01*
X35319047Y-24785714D02*
X35319047Y-25452380D01*
X35319047Y-24880952D02*
X35271428Y-24833333D01*
X35176190Y-24785714D01*
X35033333Y-24785714D01*
X34938095Y-24833333D01*
X34890476Y-24928571D01*
X34890476Y-25452380D01*
X33747619Y-24785714D02*
X33509523Y-25452380D01*
X33271428Y-24785714D01*
X32366666Y-25452380D02*
X32938095Y-25452380D01*
X32652380Y-25452380D02*
X32652380Y-24452380D01*
X32747619Y-24595238D01*
X32842857Y-24690476D01*
X32938095Y-24738095D01*
X31938095Y-25071428D02*
X31176190Y-25071428D01*
X30176190Y-25452380D02*
X30747619Y-25452380D01*
X30461904Y-25452380D02*
X30461904Y-24452380D01*
X30557142Y-24595238D01*
X30652380Y-24690476D01*
X30747619Y-24738095D01*
X28985714Y-25452380D02*
X28985714Y-24452380D01*
X28604761Y-24452380D01*
X28509523Y-24500000D01*
X28461904Y-24547619D01*
X28414285Y-24642857D01*
X28414285Y-24785714D01*
X28461904Y-24880952D01*
X28509523Y-24928571D01*
X28604761Y-24976190D01*
X28985714Y-24976190D01*
X27557142Y-25452380D02*
X27557142Y-24928571D01*
X27604761Y-24833333D01*
X27700000Y-24785714D01*
X27890476Y-24785714D01*
X27985714Y-24833333D01*
X27557142Y-25404761D02*
X27652380Y-25452380D01*
X27890476Y-25452380D01*
X27985714Y-25404761D01*
X28033333Y-25309523D01*
X28033333Y-25214285D01*
X27985714Y-25119047D01*
X27890476Y-25071428D01*
X27652380Y-25071428D01*
X27557142Y-25023809D01*
X27080952Y-24785714D02*
X27080952Y-25452380D01*
X27080952Y-24880952D02*
X27033333Y-24833333D01*
X26938095Y-24785714D01*
X26795238Y-24785714D01*
X26700000Y-24833333D01*
X26652380Y-24928571D01*
X26652380Y-25452380D01*
X25747619Y-25404761D02*
X25842857Y-25452380D01*
X26033333Y-25452380D01*
X26128571Y-25404761D01*
X26176190Y-25357142D01*
X26223809Y-25261904D01*
X26223809Y-24976190D01*
X26176190Y-24880952D01*
X26128571Y-24833333D01*
X26033333Y-24785714D01*
X25842857Y-24785714D01*
X25747619Y-24833333D01*
X24890476Y-25452380D02*
X24890476Y-24928571D01*
X24938095Y-24833333D01*
X25033333Y-24785714D01*
X25223809Y-24785714D01*
X25319047Y-24833333D01*
X24890476Y-25404761D02*
X24985714Y-25452380D01*
X25223809Y-25452380D01*
X25319047Y-25404761D01*
X25366666Y-25309523D01*
X25366666Y-25214285D01*
X25319047Y-25119047D01*
X25223809Y-25071428D01*
X24985714Y-25071428D01*
X24890476Y-25023809D01*
X24414285Y-25452380D02*
X24414285Y-24452380D01*
X24319047Y-25071428D02*
X24033333Y-25452380D01*
X24033333Y-24785714D02*
X24414285Y-25166666D01*
X23223809Y-25404761D02*
X23319047Y-25452380D01*
X23509523Y-25452380D01*
X23604761Y-25404761D01*
X23652380Y-25309523D01*
X23652380Y-24928571D01*
X23604761Y-24833333D01*
X23509523Y-24785714D01*
X23319047Y-24785714D01*
X23223809Y-24833333D01*
X23176190Y-24928571D01*
X23176190Y-25023809D01*
X23652380Y-25119047D01*
X22271428Y-25452380D02*
X22747619Y-25452380D01*
X22747619Y-24452380D01*
X21557142Y-25404761D02*
X21652380Y-25452380D01*
X21842857Y-25452380D01*
X21938095Y-25404761D01*
X21985714Y-25309523D01*
X21985714Y-24928571D01*
X21938095Y-24833333D01*
X21842857Y-24785714D01*
X21652380Y-24785714D01*
X21557142Y-24833333D01*
X21509523Y-24928571D01*
X21509523Y-25023809D01*
X21985714Y-25119047D01*
X20652380Y-24785714D02*
X20652380Y-25595238D01*
X20700000Y-25690476D01*
X20747619Y-25738095D01*
X20842857Y-25785714D01*
X20985714Y-25785714D01*
X21080952Y-25738095D01*
X20652380Y-25404761D02*
X20747619Y-25452380D01*
X20938095Y-25452380D01*
X21033333Y-25404761D01*
X21080952Y-25357142D01*
X21128571Y-25261904D01*
X21128571Y-24976190D01*
X21080952Y-24880952D01*
X21033333Y-24833333D01*
X20938095Y-24785714D01*
X20747619Y-24785714D01*
X20652380Y-24833333D01*
X19795238Y-25404761D02*
X19890476Y-25452380D01*
X20080952Y-25452380D01*
X20176190Y-25404761D01*
X20223809Y-25309523D01*
X20223809Y-24928571D01*
X20176190Y-24833333D01*
X20080952Y-24785714D01*
X19890476Y-24785714D01*
X19795238Y-24833333D01*
X19747619Y-24928571D01*
X19747619Y-25023809D01*
X20223809Y-25119047D01*
X19319047Y-24785714D02*
X19319047Y-25452380D01*
X19319047Y-24880952D02*
X19271428Y-24833333D01*
X19176190Y-24785714D01*
X19033333Y-24785714D01*
X18938095Y-24833333D01*
X18890476Y-24928571D01*
X18890476Y-25452380D01*
X17985714Y-25452380D02*
X17985714Y-24452380D01*
X17985714Y-25404761D02*
X18080952Y-25452380D01*
X18271428Y-25452380D01*
X18366666Y-25404761D01*
X18414285Y-25357142D01*
X18461904Y-25261904D01*
X18461904Y-24976190D01*
X18414285Y-24880952D01*
X18366666Y-24833333D01*
X18271428Y-24785714D01*
X18080952Y-24785714D01*
X17985714Y-24833333D01*
X16795238Y-24547619D02*
X16747619Y-24500000D01*
X16652380Y-24452380D01*
X16414285Y-24452380D01*
X16319047Y-24500000D01*
X16271428Y-24547619D01*
X16223809Y-24642857D01*
X16223809Y-24738095D01*
X16271428Y-24880952D01*
X16842857Y-25452380D01*
X16223809Y-25452380D01*
X15604761Y-24452380D02*
X15509523Y-24452380D01*
X15414285Y-24500000D01*
X15366666Y-24547619D01*
X15319047Y-24642857D01*
X15271428Y-24833333D01*
X15271428Y-25071428D01*
X15319047Y-25261904D01*
X15366666Y-25357142D01*
X15414285Y-25404761D01*
X15509523Y-25452380D01*
X15604761Y-25452380D01*
X15700000Y-25404761D01*
X15747619Y-25357142D01*
X15795238Y-25261904D01*
X15842857Y-25071428D01*
X15842857Y-24833333D01*
X15795238Y-24642857D01*
X15747619Y-24547619D01*
X15700000Y-24500000D01*
X15604761Y-24452380D01*
X14890476Y-24547619D02*
X14842857Y-24500000D01*
X14747619Y-24452380D01*
X14509523Y-24452380D01*
X14414285Y-24500000D01*
X14366666Y-24547619D01*
X14319047Y-24642857D01*
X14319047Y-24738095D01*
X14366666Y-24880952D01*
X14938095Y-25452380D01*
X14319047Y-25452380D01*
X13366666Y-25452380D02*
X13938095Y-25452380D01*
X13652380Y-25452380D02*
X13652380Y-24452380D01*
X13747619Y-24595238D01*
X13842857Y-24690476D01*
X13938095Y-24738095D01*
D12*
X1569904Y-4963953D02*
X-1562096Y-4963953D01*
X-2173346Y-1220703D02*
X-2173346Y-4352703D01*
X1569904Y-609453D02*
X-1562096Y-609453D01*
X2181154Y-4352703D02*
X2181154Y-1220703D01*
X1138519Y-8254779D02*
G75*
G03*
X1138519Y-8254779I-1134615J0D01*
G01*
X-6083021Y4253296D02*
G75*
G03*
X-6083021Y4253296I-1134615J0D01*
G01*
X8360060Y4253296D02*
G75*
G03*
X8360060Y4253296I-1134615J0D01*
G01*
D10*
X-5928077Y-8120070D02*
G75*
G03*
X-5928077Y-8120070I-259791J0D01*
G01*
X-3544669Y-8307896D02*
X-3724650Y-8225208D01*
X-3877461Y-8649279D02*
X-3300480Y-8649279D01*
X3524762Y-8649279D02*
X3524762Y-8557096D01*
X4955805Y-8204767D02*
X4827182Y-8228239D01*
X4026150Y-7860279D02*
X4026150Y-8649279D01*
X4339823Y-7860279D02*
X3712477Y-7860279D01*
X6064207Y-8215329D02*
X5701686Y-8215329D01*
X6064207Y-7860279D02*
X5558023Y-7860279D01*
X6064207Y-8649279D02*
X6064207Y-7860279D01*
X5558023Y-8649279D02*
X6064207Y-8649279D01*
X-89166Y-3038667D02*
X-276906Y-2821435D01*
X-191618Y-2821435D02*
X-89166Y-3038667D01*
X-276906Y-2821435D02*
X-191618Y-2821435D01*
X101526Y-2210082D02*
X-63414Y-1914315D01*
X-19449Y-1914315D02*
X101526Y-2210082D01*
X-63414Y-1914315D02*
X-19449Y-1914315D01*
X272685Y-2670988D02*
X-191113Y-1839315D01*
X371078Y-2670988D02*
X272685Y-2670988D01*
X30906Y-1839315D02*
X371078Y-2670988D01*
X-191113Y-1839315D02*
X30906Y-1839315D01*
X228636Y-2745988D02*
X-318812Y-1764315D01*
X482786Y-2745988D02*
X228636Y-2745988D01*
X81260Y-1764315D02*
X482786Y-2745988D01*
X-318812Y-1764315D02*
X81260Y-1764315D01*
X143012Y-2746435D02*
X-446511Y-1689315D01*
X-440851Y-2746435D02*
X143012Y-2746435D01*
X212447Y-3502362D02*
X-440851Y-2746435D01*
X-108907Y-2820988D02*
X212447Y-3502362D01*
X594494Y-2820988D02*
X-108907Y-2820988D01*
X131615Y-1689315D02*
X594494Y-2820988D01*
X-446511Y-1689315D02*
X131615Y-1689315D01*
X15313Y-2671435D02*
X-574211Y-1614315D01*
X-604796Y-2671435D02*
X15313Y-2671435D01*
X514059Y-3966056D02*
X-604796Y-2671435D01*
X9388Y-2895988D02*
X514059Y-3966056D01*
X706202Y-2895988D02*
X9388Y-2895988D01*
X181969Y-1614315D02*
X706202Y-2895988D01*
X-574211Y-1614315D02*
X181969Y-1614315D01*
X5412494Y426904D02*
X6392937Y742213D01*
X-5336060Y-433262D02*
X-5336060Y635281D01*
X4324599Y280778D02*
G75*
G03*
X4324599Y280778I-531776J0D01*
G01*
X5439183Y256737D02*
G75*
G03*
X5439183Y256737I-555817J0D01*
G01*
D12*
X-4039791Y-4785348D02*
G75*
G03*
X-955660Y-7649314I11265236J9038644D01*
G01*
X963468Y-7649314D02*
G75*
G03*
X4047598Y-4785348I-8181104J11902610D01*
G01*
X6610334Y82709D02*
G75*
G03*
X7167651Y3074963I-13841198J4125993D01*
G01*
X6221315Y4781570D02*
G75*
G03*
X-6213506Y4781570I-6217411J-13036349D01*
G01*
X-7173071Y3119557D02*
G75*
G03*
X-6653810Y257187I14398516J1133739D01*
G01*
X-2173346Y-4352703D02*
G75*
G03*
X-1562096Y-4963953I611250J0D01*
G01*
X1569904Y-4963953D02*
G75*
G03*
X2181154Y-4352703I0J611250D01*
G01*
X-1562096Y-609453D02*
G75*
G03*
X-2173346Y-1220703I0J-611250D01*
G01*
X2181154Y-1220703D02*
G75*
G03*
X1569904Y-609453I-611250J0D01*
G01*
D13*
X-4319324Y-4672865D02*
G75*
G03*
X-4156786Y-4879220I11544769J8926161D01*
G01*
X4164594Y-4879220D02*
G75*
G03*
X4327132Y-4672864I-11382230J9132516D01*
G01*
X6325505Y-1181899D02*
G75*
G03*
X6756254Y47538I-13543141J5435195D01*
G01*
X-6797954Y215685D02*
G75*
G03*
X-6317696Y-1181899I14023399J4037611D01*
G01*
X3662156Y-754764D02*
G75*
G03*
X3141818Y-4388408I4233261J-2460281D01*
G01*
X6624914Y-4388408D02*
G75*
G03*
X6104577Y-754764I-4753598J1173363D01*
G01*
X3141818Y-4388408D02*
G75*
G03*
X6624914Y-4388408I1741548J4645145D01*
G01*
X3363762Y709828D02*
G75*
G03*
X3345271Y-128947I429061J-429050D01*
G01*
X3345271Y-128947D02*
G75*
G03*
X3662156Y-754764I1538095J385684D01*
G01*
X2181154Y-2672250D02*
G75*
G03*
X3046781Y-2533715I-348085J4948657D01*
G01*
X-6617106Y-4388408D02*
G75*
G03*
X-3134010Y-4388408I1741548J4645145D01*
G01*
X-6317697Y-1181899D02*
G75*
G03*
X-6617106Y-4388408I4454189J-2033146D01*
G01*
X-3134011Y-4388408D02*
G75*
G03*
X-3654348Y-754764I-4753598J1173363D01*
G01*
X-3038973Y-2533715D02*
G75*
G03*
X-2173346Y-2672250I1213712J4810122D01*
G01*
X-3046471Y1264906D02*
G75*
G03*
X-3342900Y663493I4233261J-2460281D01*
G01*
X3903Y-463178D02*
G75*
G03*
X-604051Y1264906I-4841215J-732197D01*
G01*
X-604051Y1264906D02*
G75*
G03*
X-3046471Y1264906I-1221210J1011501D01*
G01*
X-3654347Y-754764D02*
G75*
G03*
X-6326249Y897039I-1221211J1011501D01*
G01*
X6182604Y-894212D02*
G75*
G03*
X6610334Y82709I-1299238J1150949D01*
G01*
X6104576Y-754764D02*
G75*
G03*
X3363762Y709828I-1221210J1011501D01*
G01*
X3341338Y686165D02*
G75*
G03*
X3054280Y1264906I-4520319J-1881540D01*
G01*
X3054279Y1264906D02*
G75*
G03*
X3141106Y3172805I-1221210J1011501D01*
G01*
X3940382Y2540392D02*
G75*
G03*
X4124105Y2311503I116071J-95012D01*
G01*
X4124106Y2311502D02*
G75*
G03*
X2468445Y3729262I-532502J1053765D01*
G01*
X2468445Y3729262D02*
G75*
G03*
X611859Y1264906I-635376J-1452855D01*
G01*
X611859Y1264905D02*
G75*
G03*
X3904Y-463179I4233261J-2460280D01*
G01*
X-6326249Y897040D02*
G75*
G03*
X-6264109Y-1068375I2079707J-917936D01*
G01*
X3940382Y2540392D02*
G75*
G03*
X3141106Y3172805I-394392J322837D01*
G01*
D10*
X-4656060Y-7981663D02*
G75*
G03*
X-4656060Y-8527895I415305J-273116D01*
G01*
X-4656060Y-8527896D02*
G75*
G03*
X-4205851Y-8527895I225104J148035D01*
G01*
X-4205851Y-8527896D02*
G75*
G03*
X-4205851Y-7981663I-415306J273117D01*
G01*
X-4205852Y-7981664D02*
G75*
G03*
X-4656060Y-7981663I-225104J-148034D01*
G01*
X-6187868Y-7860280D02*
G75*
G03*
X-6412972Y-7981663I0J-269418D01*
G01*
X-6412972Y-7981663D02*
G75*
G03*
X-6412972Y-8527895I415305J-273116D01*
G01*
X-6412972Y-8527896D02*
G75*
G03*
X-5962763Y-8527895I225104J148035D01*
G01*
X-5542423Y-7981662D02*
G75*
G03*
X-5542423Y-8527895I415306J-273117D01*
G01*
X-5542422Y-8527896D02*
G75*
G03*
X-5092214Y-8527895I225104J148035D01*
G01*
X-5092214Y-8527896D02*
G75*
G03*
X-5092214Y-7981663I-415306J273117D01*
G01*
X-5092213Y-7981663D02*
G75*
G03*
X-5542423Y-7981663I-225105J-148035D01*
G01*
X-3326040Y-8057634D02*
G75*
G03*
X-3388110Y-7929885I-162500J-1D01*
G01*
X-3388109Y-7929885D02*
G75*
G03*
X-3789831Y-7929885I-200861J-255499D01*
G01*
X-3789831Y-7929886D02*
G75*
G03*
X-3789831Y-8185384I100430J-127749D01*
G01*
X-3789831Y-8185384D02*
G75*
G03*
X-3724650Y-8225208I200861J255499D01*
G01*
X-3440564Y-8369757D02*
G75*
G03*
X-3544669Y-8307896I-344167J-460665D01*
G01*
X-3300480Y-8649279D02*
G75*
G03*
X-3440564Y-8369758I-348918J0D01*
G01*
X5127455Y-8575530D02*
G75*
G03*
X5180327Y-8514237I-100303J139972D01*
G01*
X4668395Y-8575530D02*
G75*
G03*
X5127455Y-8575530I229530J320310D01*
G01*
X4668395Y-8295585D02*
G75*
G03*
X4668394Y-8575530I100302J-139973D01*
G01*
X4827182Y-8228238D02*
G75*
G03*
X4668394Y-8295586I70743J-387658D01*
G01*
X4955805Y-8204767D02*
G75*
G03*
X5085722Y-8149665I-57880J317174D01*
G01*
X5085723Y-8149665D02*
G75*
G03*
X5085722Y-7920619I-82066J114523D01*
G01*
X5085723Y-7920618D02*
G75*
G03*
X4710127Y-7920619I-187798J-262073D01*
G01*
X4710127Y-7920619D02*
G75*
G03*
X4666868Y-7970768I82066J-114523D01*
G01*
X3702884Y-685984D02*
G75*
G03*
X6063848Y-685983I1180482J942721D01*
G01*
X652587Y1333686D02*
G75*
G03*
X3013551Y1333687I1180482J942721D01*
G01*
X-4997593Y-2086893D02*
G75*
G03*
X-4907685Y-1977774I25623J70487D01*
G01*
X-3005742Y1333687D02*
G75*
G03*
X-2365458Y865576I1180481J942720D01*
G01*
X-1285064Y865575D02*
G75*
G03*
X-644779Y1333687I-540197J1410832D01*
G01*
X424315Y3004350D02*
G75*
G03*
X2241716Y2805115I1037146J1072050D01*
G01*
X-2085919Y291481D02*
G75*
G03*
X-1564603Y291481I260658J226839D01*
G01*
X-2365630Y866477D02*
G75*
G03*
X-2085919Y291481I1206067J231170D01*
G01*
X-2228095Y1104695D02*
G75*
G03*
X-2365631Y866477I68976J-198636D01*
G01*
X-1422427Y1104695D02*
G75*
G03*
X-2228096Y1104695I-402834J-1160070D01*
G01*
X-1284891Y866476D02*
G75*
G03*
X-1422426Y1104695I-206512J39583D01*
G01*
X-1564602Y291481D02*
G75*
G03*
X-1284891Y866477I-926357J806166D01*
G01*
X2355657Y2747790D02*
G75*
G03*
X3398247Y2022026I824588J72811D01*
G01*
X2355657Y2747791D02*
G75*
G03*
X2241716Y2805115I-74709J-6597D01*
G01*
X-5233450Y-1210972D02*
G75*
G03*
X-3695077Y-685983I357892J1467709D01*
G01*
X-6222283Y-984673D02*
G75*
G03*
X-4997594Y-2086892I1975741J963777D01*
G01*
X-4958129Y866998D02*
G75*
G03*
X-3481951Y1013274I623870J1225801D01*
G01*
X-4958129Y866997D02*
G75*
G03*
X-5336060Y635281I-117931J-231716D01*
G01*
X-5336060Y-433262D02*
G75*
G03*
X-4907685Y-1977774I2998567J0D01*
G01*
X-2335542Y1650637D02*
G75*
G03*
X-1314981Y1650636I510281J883831D01*
G01*
X3096843Y3104134D02*
G75*
G03*
X2447433Y3656557I-1263774J-827727D01*
G01*
X5080000Y21971000D02*
X-10160000Y21971000D01*
X-10160000Y19431000D02*
X5080000Y19431000D01*
X-10160000Y21971000D02*
X-10160000Y19431000D01*
X5080000Y21971000D02*
X5080000Y19431000D01*
X12833333Y4297619D02*
X12833333Y3583333D01*
X12880952Y3440476D01*
X12976190Y3345238D01*
X13119047Y3297619D01*
X13214285Y3297619D01*
X12404761Y4202380D02*
X12357142Y4250000D01*
X12261904Y4297619D01*
X12023809Y4297619D01*
X11928571Y4250000D01*
X11880952Y4202380D01*
X11833333Y4107142D01*
X11833333Y4011904D01*
X11880952Y3869047D01*
X12452380Y3297619D01*
X11833333Y3297619D01*
X17333333Y4297619D02*
X17333333Y3583333D01*
X17380952Y3440476D01*
X17476190Y3345238D01*
X17619047Y3297619D01*
X17714285Y3297619D01*
X16333333Y3297619D02*
X16904761Y3297619D01*
X16619047Y3297619D02*
X16619047Y4297619D01*
X16714285Y4154761D01*
X16809523Y4059523D01*
X16904761Y4011904D01*
X4302380Y18879452D02*
X3302380Y18879452D01*
X4016666Y18546119D01*
X3302380Y18212785D01*
X4302380Y18212785D01*
X4302380Y17736595D02*
X3302380Y17736595D01*
X4254761Y17308023D02*
X4302380Y17165166D01*
X4302380Y16927071D01*
X4254761Y16831833D01*
X4207142Y16784214D01*
X4111904Y16736595D01*
X4016666Y16736595D01*
X3921428Y16784214D01*
X3873809Y16831833D01*
X3826190Y16927071D01*
X3778571Y17117547D01*
X3730952Y17212785D01*
X3683333Y17260404D01*
X3588095Y17308023D01*
X3492857Y17308023D01*
X3397619Y17260404D01*
X3350000Y17212785D01*
X3302380Y17117547D01*
X3302380Y16879452D01*
X3350000Y16736595D01*
X3302380Y16117547D02*
X3302380Y15927071D01*
X3350000Y15831833D01*
X3445238Y15736595D01*
X3635714Y15688976D01*
X3969047Y15688976D01*
X4159523Y15736595D01*
X4254761Y15831833D01*
X4302380Y15927071D01*
X4302380Y16117547D01*
X4254761Y16212785D01*
X4159523Y16308023D01*
X3969047Y16355642D01*
X3635714Y16355642D01*
X3445238Y16308023D01*
X3350000Y16212785D01*
X3302380Y16117547D01*
X1744761Y18769166D02*
X1792380Y18669166D01*
X1792380Y18502500D01*
X1744761Y18435833D01*
X1697142Y18402500D01*
X1601904Y18369166D01*
X1506666Y18369166D01*
X1411428Y18402500D01*
X1363809Y18435833D01*
X1316190Y18502500D01*
X1268571Y18635833D01*
X1220952Y18702500D01*
X1173333Y18735833D01*
X1078095Y18769166D01*
X982857Y18769166D01*
X887619Y18735833D01*
X840000Y18702500D01*
X792380Y18635833D01*
X792380Y18469166D01*
X840000Y18369166D01*
X1697142Y17669166D02*
X1744761Y17702500D01*
X1792380Y17802500D01*
X1792380Y17869166D01*
X1744761Y17969166D01*
X1649523Y18035833D01*
X1554285Y18069166D01*
X1363809Y18102500D01*
X1220952Y18102500D01*
X1030476Y18069166D01*
X935238Y18035833D01*
X840000Y17969166D01*
X792380Y17869166D01*
X792380Y17802500D01*
X840000Y17702500D01*
X887619Y17669166D01*
X1792380Y17035833D02*
X1792380Y17369166D01*
X792380Y17369166D01*
X744761Y16302500D02*
X2030476Y16902500D01*
X1744761Y16102500D02*
X1792380Y16002500D01*
X1792380Y15835833D01*
X1744761Y15769166D01*
X1697142Y15735833D01*
X1601904Y15702500D01*
X1506666Y15702500D01*
X1411428Y15735833D01*
X1363809Y15769166D01*
X1316190Y15835833D01*
X1268571Y15969166D01*
X1220952Y16035833D01*
X1173333Y16069166D01*
X1078095Y16102500D01*
X982857Y16102500D01*
X887619Y16069166D01*
X839999Y16035833D01*
X792380Y15969166D01*
X792380Y15802500D01*
X839999Y15702500D01*
X1697142Y15002500D02*
X1744761Y15035833D01*
X1792380Y15135833D01*
X1792380Y15202500D01*
X1744761Y15302500D01*
X1649523Y15369166D01*
X1554285Y15402500D01*
X1363809Y15435833D01*
X1220952Y15435833D01*
X1030476Y15402500D01*
X935238Y15369166D01*
X839999Y15302500D01*
X792380Y15202500D01*
X792380Y15135833D01*
X839999Y15035833D01*
X887619Y15002500D01*
X1792380Y14369166D02*
X1792380Y14702500D01*
X792380Y14702500D01*
X1792380Y14135833D02*
X792380Y14135833D01*
X1792380Y13735833D02*
X1220952Y14035833D01*
X792380Y13735833D02*
X1363809Y14135833D01*
X-845238Y18769166D02*
X-797619Y18669166D01*
X-797619Y18502500D01*
X-845238Y18435833D01*
X-892857Y18402500D01*
X-988095Y18369166D01*
X-1083333Y18369166D01*
X-1178571Y18402500D01*
X-1226190Y18435833D01*
X-1273809Y18502500D01*
X-1321428Y18635833D01*
X-1369047Y18702500D01*
X-1416666Y18735833D01*
X-1511904Y18769166D01*
X-1607142Y18769166D01*
X-1702380Y18735833D01*
X-1750000Y18702500D01*
X-1797619Y18635833D01*
X-1797619Y18469166D01*
X-1750000Y18369166D01*
X-797619Y18069166D02*
X-1797619Y18069166D01*
X-1797619Y17902500D01*
X-1750000Y17802500D01*
X-1654761Y17735833D01*
X-1559523Y17702500D01*
X-1369047Y17669166D01*
X-1226190Y17669166D01*
X-1035714Y17702500D01*
X-940476Y17735833D01*
X-845238Y17802500D01*
X-797619Y17902500D01*
X-797619Y18069166D01*
X-1083333Y17402500D02*
X-1083333Y17069166D01*
X-797619Y17469166D02*
X-1797619Y17235833D01*
X-797619Y17002500D01*
X-1845238Y16269166D02*
X-559523Y16869166D01*
X-797619Y16035833D02*
X-1797619Y16035833D01*
X-1083333Y15802500D01*
X-1797619Y15569166D01*
X-797619Y15569166D01*
X-1797619Y15102500D02*
X-1797619Y14969166D01*
X-1750000Y14902500D01*
X-1654761Y14835833D01*
X-1464285Y14802500D01*
X-1130952Y14802500D01*
X-940476Y14835833D01*
X-845238Y14902500D01*
X-797619Y14969166D01*
X-797619Y15102500D01*
X-845238Y15169166D01*
X-940476Y15235833D01*
X-1130952Y15269166D01*
X-1464285Y15269166D01*
X-1654761Y15235833D01*
X-1750000Y15169166D01*
X-1797619Y15102500D01*
X-845238Y14535833D02*
X-797619Y14435833D01*
X-797619Y14269166D01*
X-845238Y14202500D01*
X-892857Y14169166D01*
X-988095Y14135833D01*
X-1083333Y14135833D01*
X-1178571Y14169166D01*
X-1226190Y14202500D01*
X-1273809Y14269166D01*
X-1321428Y14402500D01*
X-1369047Y14469166D01*
X-1416666Y14502500D01*
X-1511904Y14535833D01*
X-1607142Y14535833D01*
X-1702380Y14502500D01*
X-1750000Y14469166D01*
X-1797619Y14402500D01*
X-1797619Y14235833D01*
X-1750000Y14135833D01*
X-797619Y13835833D02*
X-1797619Y13835833D01*
X-4317619Y18853261D02*
X-3317619Y18519928D01*
X-4317619Y18186595D01*
X-3412857Y17281833D02*
X-3365238Y17329452D01*
X-3317619Y17472309D01*
X-3317619Y17567547D01*
X-3365238Y17710404D01*
X-3460476Y17805642D01*
X-3555714Y17853261D01*
X-3746190Y17900880D01*
X-3889047Y17900880D01*
X-4079523Y17853261D01*
X-4174761Y17805642D01*
X-4270000Y17710404D01*
X-4317619Y17567547D01*
X-4317619Y17472309D01*
X-4270000Y17329452D01*
X-4222380Y17281833D01*
X-3412857Y16281833D02*
X-3365238Y16329452D01*
X-3317619Y16472309D01*
X-3317619Y16567547D01*
X-3365238Y16710404D01*
X-3460476Y16805642D01*
X-3555714Y16853261D01*
X-3746190Y16900880D01*
X-3889047Y16900880D01*
X-4079523Y16853261D01*
X-4174761Y16805642D01*
X-4270000Y16710404D01*
X-4317619Y16567547D01*
X-4317619Y16472309D01*
X-4270000Y16329452D01*
X-4222380Y16281833D01*
X-6760000Y18384214D02*
X-6807619Y18479452D01*
X-6807619Y18622309D01*
X-6760000Y18765166D01*
X-6664761Y18860404D01*
X-6569523Y18908023D01*
X-6379047Y18955642D01*
X-6236190Y18955642D01*
X-6045714Y18908023D01*
X-5950476Y18860404D01*
X-5855238Y18765166D01*
X-5807619Y18622309D01*
X-5807619Y18527071D01*
X-5855238Y18384214D01*
X-5902857Y18336595D01*
X-6236190Y18336595D01*
X-6236190Y18527071D01*
X-5807619Y17908023D02*
X-6807619Y17908023D01*
X-5807619Y17336595D01*
X-6807619Y17336595D01*
X-5807619Y16860404D02*
X-6807619Y16860404D01*
X-6807619Y16622309D01*
X-6760000Y16479452D01*
X-6664761Y16384214D01*
X-6569523Y16336595D01*
X-6379047Y16288976D01*
X-6236190Y16288976D01*
X-6045714Y16336595D01*
X-5950476Y16384214D01*
X-5855238Y16479452D01*
X-5807619Y16622309D01*
X-5807619Y16860404D01*
X-3674761Y23745047D02*
X-3579523Y23792666D01*
X-3531904Y23840285D01*
X-3484285Y23935523D01*
X-3484285Y23983142D01*
X-3531904Y24078380D01*
X-3579523Y24126000D01*
X-3674761Y24173619D01*
X-3865238Y24173619D01*
X-3960476Y24126000D01*
X-4008095Y24078380D01*
X-4055714Y23983142D01*
X-4055714Y23935523D01*
X-4008095Y23840285D01*
X-3960476Y23792666D01*
X-3865238Y23745047D01*
X-3674761Y23745047D01*
X-3579523Y23697428D01*
X-3531904Y23649809D01*
X-3484285Y23554571D01*
X-3484285Y23364095D01*
X-3531904Y23268857D01*
X-3579523Y23221238D01*
X-3674761Y23173619D01*
X-3865238Y23173619D01*
X-3960476Y23221238D01*
X-4008095Y23268857D01*
X-4055714Y23364095D01*
X-4055714Y23554571D01*
X-4008095Y23649809D01*
X-3960476Y23697428D01*
X-3865238Y23745047D01*
X1643333Y24173619D02*
X976666Y24173619D01*
X1405238Y23173619D01*
X3659523Y24173619D02*
X3850000Y24173619D01*
X3945238Y24126000D01*
X3992857Y24078380D01*
X4088095Y23935523D01*
X4135714Y23745047D01*
X4135714Y23364095D01*
X4088095Y23268857D01*
X4040476Y23221238D01*
X3945238Y23173619D01*
X3754761Y23173619D01*
X3659523Y23221238D01*
X3611904Y23268857D01*
X3564285Y23364095D01*
X3564285Y23602190D01*
X3611904Y23697428D01*
X3659523Y23745047D01*
X3754761Y23792666D01*
X3945238Y23792666D01*
X4040476Y23745047D01*
X4088095Y23697428D01*
X4135714Y23602190D01*
X-1468095Y24173619D02*
X-991904Y24173619D01*
X-944285Y23697428D01*
X-991904Y23745047D01*
X-1087142Y23792666D01*
X-1325238Y23792666D01*
X-1420476Y23745047D01*
X-1468095Y23697428D01*
X-1515714Y23602190D01*
X-1515714Y23364095D01*
X-1468095Y23268857D01*
X-1420476Y23221238D01*
X-1325238Y23173619D01*
X-1087142Y23173619D01*
X-991904Y23221238D01*
X-944285Y23268857D01*
X-6500476Y23840285D02*
X-6500476Y23173619D01*
X-6262380Y24221238D02*
X-6024285Y23506952D01*
X-6643333Y23506952D01*
X9263333Y24173619D02*
X8644285Y24173619D01*
X8977619Y23792666D01*
X8834761Y23792666D01*
X8739523Y23745047D01*
X8691904Y23697428D01*
X8644285Y23602190D01*
X8644285Y23364095D01*
X8691904Y23268857D01*
X8739523Y23221238D01*
X8834761Y23173619D01*
X9120476Y23173619D01*
X9215714Y23221238D01*
X9263333Y23268857D01*
X6675714Y24078380D02*
X6628095Y24126000D01*
X6532857Y24173619D01*
X6294761Y24173619D01*
X6199523Y24126000D01*
X6151904Y24078380D01*
X6104285Y23983142D01*
X6104285Y23887904D01*
X6151904Y23745047D01*
X6723333Y23173619D01*
X6104285Y23173619D01*
X-9135714Y23173619D02*
X-8564285Y23173619D01*
X-8850000Y23173619D02*
X-8850000Y24173619D01*
X-8754761Y24030761D01*
X-8659523Y23935523D01*
X-8564285Y23887904D01*
X-8397619Y18412785D02*
X-8873809Y18746119D01*
X-8397619Y18984214D02*
X-9397619Y18984214D01*
X-9397619Y18603261D01*
X-9350000Y18508023D01*
X-9302380Y18460404D01*
X-9207142Y18412785D01*
X-9064285Y18412785D01*
X-8969047Y18460404D01*
X-8921428Y18508023D01*
X-8873809Y18603261D01*
X-8873809Y18984214D01*
X-8921428Y17984214D02*
X-8921428Y17650880D01*
X-8397619Y17508023D02*
X-8397619Y17984214D01*
X-9397619Y17984214D01*
X-9397619Y17508023D01*
X-8445238Y17127071D02*
X-8397619Y16984214D01*
X-8397619Y16746119D01*
X-8445238Y16650880D01*
X-8492857Y16603261D01*
X-8588095Y16555642D01*
X-8683333Y16555642D01*
X-8778571Y16603261D01*
X-8826190Y16650880D01*
X-8873809Y16746119D01*
X-8921428Y16936595D01*
X-8969047Y17031833D01*
X-9016666Y17079452D01*
X-9111904Y17127071D01*
X-9207142Y17127071D01*
X-9302380Y17079452D01*
X-9350000Y17031833D01*
X-9397619Y16936595D01*
X-9397619Y16698500D01*
X-9350000Y16555642D01*
X-8921428Y16127071D02*
X-8921428Y15793738D01*
X-8397619Y15650880D02*
X-8397619Y16127071D01*
X-9397619Y16127071D01*
X-9397619Y15650880D01*
X-9397619Y15365166D02*
X-9397619Y14793738D01*
X-8397619Y15079452D02*
X-9397619Y15079452D01*
%LPC*%
D14*
X13770000Y12500000D03*
D15*
X11230000Y12500000D03*
D16*
X22190000Y3810000D03*
X29810000Y-3810000D03*
X24730000Y3810000D03*
X27270000Y-3810000D03*
X27270000Y3810000D03*
X24730000Y-3810000D03*
X29810000Y3810000D03*
D17*
X22190000Y-3810000D03*
D18*
X0Y-8255000D03*
D19*
X0Y12065000D03*
D14*
X13770000Y-12500000D03*
D15*
X11230000Y-12500000D03*
D20*
X10500000Y-21250000D03*
D21*
X8000000Y-21250000D03*
D20*
X-3250000Y-18000000D03*
D21*
X3250000Y-18000000D03*
D14*
X-11230000Y12500000D03*
D15*
X-13770000Y12500000D03*
D14*
X-11230000Y-12500000D03*
D15*
X-13770000Y-12500000D03*
D22*
X-32250000Y15000000D03*
X-32250000Y10000000D03*
X-19750000Y15000000D03*
X-19750000Y10000000D03*
X19750000Y15000000D03*
X19750000Y10000000D03*
X32250000Y15000000D03*
X32250000Y10000000D03*
X-19750000Y-15000000D03*
X-19750000Y-10000000D03*
X-32250000Y-15000000D03*
X-32250000Y-10000000D03*
X32250000Y-15000000D03*
X32250000Y-10000000D03*
X19750000Y-15000000D03*
X19750000Y-10000000D03*
D21*
X-30250000Y20750000D03*
X-21750000Y20750000D03*
X30250000Y20750000D03*
X21750000Y20750000D03*
X-30250000Y-20750000D03*
X-21750000Y-20750000D03*
X30250000Y-20750000D03*
X21750000Y-20750000D03*
X-13750000Y-2250000D03*
X-20250000Y-2250000D03*
X-13750000Y2250000D03*
X-20250000Y2250000D03*
D23*
G36*
X13325755Y175005D02*
G01*
X13325275Y170128D01*
X13323323Y160316D01*
X13321900Y155626D01*
X13318076Y146393D01*
X13315766Y142071D01*
X13310213Y133760D01*
X13307104Y129971D01*
X13300029Y122896D01*
X13296240Y119787D01*
X13287929Y114234D01*
X13283607Y111924D01*
X13274374Y108100D01*
X13269684Y106677D01*
X13259872Y104725D01*
X13254995Y104245D01*
X13250000Y104000D01*
X11750000Y104000D01*
X11745005Y104245D01*
X11740128Y104725D01*
X11730316Y106677D01*
X11725626Y108100D01*
X11716393Y111924D01*
X11712071Y114234D01*
X11703760Y119787D01*
X11699971Y122896D01*
X11692896Y129971D01*
X11689787Y133760D01*
X11684234Y142071D01*
X11681924Y146393D01*
X11678100Y155626D01*
X11676677Y160316D01*
X11674725Y170128D01*
X11674245Y175005D01*
X11674000Y180000D01*
X11674000Y930000D01*
X11674030Y930611D01*
X11674030Y931222D01*
X11674091Y933713D01*
X11677670Y1006899D01*
X11677684Y1007180D01*
X11677703Y1007529D01*
X11677950Y1010480D01*
X11678022Y1011116D01*
X11678087Y1011785D01*
X11678394Y1014291D01*
X11689099Y1086779D01*
X11689143Y1087072D01*
X11689196Y1087417D01*
X11689726Y1090307D01*
X11689867Y1090968D01*
X11689998Y1091630D01*
X11690542Y1094062D01*
X11708264Y1165144D01*
X11708331Y1165127D01*
X11708393Y1165369D01*
X11708325Y1165386D01*
X11708407Y1165709D01*
X11709233Y1168603D01*
X11709437Y1169246D01*
X11709630Y1169885D01*
X11710413Y1172268D01*
X11734987Y1241279D01*
X11735005Y1241273D01*
X11735137Y1241631D01*
X11735117Y1241638D01*
X11735229Y1241946D01*
X11735546Y1242748D01*
X11735686Y1243130D01*
X11735694Y1243150D01*
X11735703Y1243146D01*
X11736276Y1244595D01*
X11736556Y1245249D01*
X11736823Y1245896D01*
X11737823Y1248162D01*
X11769022Y1314464D01*
X11769206Y1314852D01*
X11769357Y1315166D01*
X11770613Y1317607D01*
X11770972Y1318261D01*
X11771299Y1318875D01*
X11772508Y1321019D01*
X11810019Y1383944D01*
X11810086Y1383904D01*
X11810194Y1384082D01*
X11810126Y1384123D01*
X11810296Y1384406D01*
X11811949Y1386979D01*
X11812380Y1387607D01*
X11812722Y1388122D01*
X11814137Y1390143D01*
X11857620Y1449122D01*
X11857782Y1449341D01*
X11857990Y1449620D01*
X11859806Y1451915D01*
X11860275Y1452474D01*
X11860706Y1453002D01*
X11862312Y1454875D01*
X11911333Y1509319D01*
X11911380Y1509277D01*
X11911591Y1509511D01*
X11911545Y1509553D01*
X11911769Y1509799D01*
X11913130Y1511210D01*
X11913181Y1511267D01*
X11913192Y1511278D01*
X11913194Y1511276D01*
X11913785Y1511890D01*
X11914274Y1512369D01*
X11914806Y1512904D01*
X11916576Y1514599D01*
X11970674Y1563997D01*
X11970731Y1563934D01*
X11970979Y1564154D01*
X11970920Y1564220D01*
X11971166Y1564442D01*
X11973371Y1566321D01*
X11973914Y1566758D01*
X11974486Y1567230D01*
X11976406Y1568740D01*
X12035078Y1612633D01*
X12035286Y1612788D01*
X12035567Y1612996D01*
X12037993Y1614684D01*
X12038580Y1615068D01*
X12039133Y1615441D01*
X12041235Y1616786D01*
X12103912Y1654744D01*
X12104199Y1654916D01*
X12104499Y1655095D01*
X12106998Y1656493D01*
X12107604Y1656810D01*
X12108241Y1657154D01*
X12110443Y1658275D01*
X12176524Y1689936D01*
X12176754Y1690046D01*
X12177069Y1690195D01*
X12179803Y1691391D01*
X12180437Y1691647D01*
X12181064Y1691910D01*
X12183369Y1692813D01*
X12252206Y1717869D01*
X12252217Y1717839D01*
X12252458Y1717922D01*
X12252446Y1717955D01*
X12252755Y1718066D01*
X12255601Y1718995D01*
X12256259Y1719189D01*
X12256943Y1719400D01*
X12259319Y1720072D01*
X12330292Y1738294D01*
X12330709Y1738399D01*
X12331048Y1738483D01*
X12333727Y1739071D01*
X12334377Y1739195D01*
X12335137Y1739351D01*
X12337565Y1739787D01*
X12409977Y1750997D01*
X12410342Y1751052D01*
X12410688Y1751103D01*
X12413503Y1751438D01*
X12414204Y1751502D01*
X12414893Y1751574D01*
X12417362Y1751772D01*
X12490521Y1755863D01*
X12490887Y1755883D01*
X12491236Y1755900D01*
X12494058Y1755959D01*
X12494764Y1755954D01*
X12495470Y1755959D01*
X12497947Y1755915D01*
X12571157Y1752846D01*
X12571509Y1752830D01*
X12571857Y1752813D01*
X12574692Y1752595D01*
X12575328Y1752528D01*
X12576087Y1752459D01*
X12578551Y1752174D01*
X12651113Y1741976D01*
X12651452Y1741927D01*
X12651798Y1741876D01*
X12654629Y1741377D01*
X12655289Y1741241D01*
X12655982Y1741109D01*
X12658407Y1740584D01*
X12729611Y1723358D01*
X12729596Y1723294D01*
X12729859Y1723227D01*
X12729875Y1723293D01*
X12730199Y1723213D01*
X12733066Y1722416D01*
X12733748Y1722205D01*
X12734408Y1722010D01*
X12736748Y1721258D01*
X12805935Y1697166D01*
X12805928Y1697147D01*
X12806122Y1697075D01*
X12806130Y1697097D01*
X12806448Y1696985D01*
X12809299Y1695884D01*
X12809967Y1695603D01*
X12810555Y1695365D01*
X12812832Y1694379D01*
X12879349Y1663645D01*
X12879709Y1663477D01*
X12880025Y1663328D01*
X12882552Y1662050D01*
X12883119Y1661743D01*
X12883743Y1661417D01*
X12885931Y1660204D01*
X12949131Y1623124D01*
X12949455Y1622932D01*
X12949755Y1622753D01*
X12952148Y1621234D01*
X12952757Y1620823D01*
X12953295Y1620471D01*
X12955344Y1619058D01*
X13014624Y1575989D01*
X13014826Y1575842D01*
X13015108Y1575635D01*
X13017470Y1573792D01*
X13018006Y1573348D01*
X13018501Y1572950D01*
X13020411Y1571336D01*
X13075206Y1522688D01*
X13075455Y1522465D01*
X13075714Y1522232D01*
X13077790Y1520257D01*
X13078310Y1519734D01*
X13078789Y1519264D01*
X13080512Y1517492D01*
X13130287Y1463739D01*
X13130249Y1463704D01*
X13130405Y1463534D01*
X13130443Y1463569D01*
X13130669Y1463323D01*
X13131951Y1461841D01*
X13132055Y1461727D01*
X13132065Y1461715D01*
X13132062Y1461713D01*
X13132661Y1461020D01*
X13133096Y1460485D01*
X13133512Y1459990D01*
X13135069Y1458040D01*
X13179363Y1399684D01*
X13179332Y1399660D01*
X13179513Y1399435D01*
X13179538Y1399454D01*
X13179740Y1399185D01*
X13179922Y1398927D01*
X13179994Y1398838D01*
X13180002Y1398827D01*
X13179996Y1398823D01*
X13181437Y1396784D01*
X13181817Y1396212D01*
X13182224Y1395617D01*
X13183566Y1393548D01*
X13221955Y1331147D01*
X13221915Y1331122D01*
X13222072Y1330862D01*
X13222114Y1330888D01*
X13222289Y1330600D01*
X13223246Y1328919D01*
X13223296Y1328836D01*
X13223302Y1328825D01*
X13223300Y1328824D01*
X13223720Y1328086D01*
X13224047Y1327472D01*
X13224406Y1326818D01*
X13225538Y1324631D01*
X13257656Y1258781D01*
X13257649Y1258777D01*
X13257786Y1258486D01*
X13257797Y1258491D01*
X13257944Y1258185D01*
X13258218Y1257570D01*
X13258426Y1257129D01*
X13258430Y1257120D01*
X13258420Y1257116D01*
X13259135Y1255512D01*
X13259403Y1254861D01*
X13259663Y1254254D01*
X13260585Y1251947D01*
X13286126Y1183269D01*
X13286220Y1183015D01*
X13286340Y1182687D01*
X13287275Y1179881D01*
X13287470Y1179235D01*
X13287675Y1178588D01*
X13288372Y1176191D01*
X13307088Y1105354D01*
X13306808Y1105280D01*
X13306887Y1104997D01*
X13307163Y1105068D01*
X13307249Y1104735D01*
X13307897Y1101893D01*
X13308040Y1101173D01*
X13308182Y1100501D01*
X13308633Y1098085D01*
X13320345Y1025773D01*
X13320322Y1025769D01*
X13320388Y1025376D01*
X13320408Y1025379D01*
X13320458Y1025056D01*
X13320506Y1024672D01*
X13320537Y1024490D01*
X13320540Y1024468D01*
X13320532Y1024467D01*
X13320814Y1022234D01*
X13320878Y1021585D01*
X13320961Y1020840D01*
X13321176Y1018374D01*
X13325777Y945243D01*
X13325794Y944967D01*
X13325814Y944619D01*
X13325846Y943496D01*
X13325848Y943464D01*
X13325925Y941002D01*
X13325998Y930531D01*
X13325999Y930175D01*
X13325999Y930010D01*
X13326000Y930000D01*
X13326000Y180000D01*
X13325755Y175005D01*
G37*
G36*
X11674245Y-195005D02*
G01*
X11674725Y-190128D01*
X11676677Y-180316D01*
X11678100Y-175626D01*
X11681924Y-166393D01*
X11684234Y-162071D01*
X11689787Y-153760D01*
X11692896Y-149971D01*
X11699971Y-142896D01*
X11703760Y-139787D01*
X11712071Y-134234D01*
X11716393Y-131924D01*
X11725626Y-128100D01*
X11730316Y-126677D01*
X11740128Y-124725D01*
X11745005Y-124245D01*
X11750000Y-124000D01*
X13250000Y-124000D01*
X13254995Y-124245D01*
X13259872Y-124725D01*
X13269684Y-126677D01*
X13274374Y-128100D01*
X13283607Y-131924D01*
X13287929Y-134234D01*
X13296240Y-139787D01*
X13300029Y-142896D01*
X13307104Y-149971D01*
X13310213Y-153760D01*
X13315766Y-162071D01*
X13318076Y-166393D01*
X13321900Y-175626D01*
X13323323Y-180316D01*
X13325275Y-190128D01*
X13325755Y-195005D01*
X13326000Y-200000D01*
X13326000Y-950000D01*
X13325970Y-950611D01*
X13325970Y-951222D01*
X13325909Y-953713D01*
X13322330Y-1026899D01*
X13322316Y-1027180D01*
X13322297Y-1027529D01*
X13322050Y-1030480D01*
X13321978Y-1031116D01*
X13321913Y-1031785D01*
X13321606Y-1034291D01*
X13310901Y-1106779D01*
X13310857Y-1107072D01*
X13310804Y-1107417D01*
X13310274Y-1110307D01*
X13310133Y-1110968D01*
X13310002Y-1111630D01*
X13309458Y-1114062D01*
X13291736Y-1185144D01*
X13291669Y-1185127D01*
X13291607Y-1185369D01*
X13291675Y-1185386D01*
X13291593Y-1185709D01*
X13290767Y-1188603D01*
X13290563Y-1189246D01*
X13290370Y-1189885D01*
X13289587Y-1192268D01*
X13265013Y-1261279D01*
X13264995Y-1261273D01*
X13264863Y-1261631D01*
X13264883Y-1261638D01*
X13264771Y-1261946D01*
X13264454Y-1262748D01*
X13264314Y-1263130D01*
X13264306Y-1263150D01*
X13264297Y-1263146D01*
X13263724Y-1264595D01*
X13263444Y-1265249D01*
X13263177Y-1265896D01*
X13262177Y-1268162D01*
X13230978Y-1334464D01*
X13230794Y-1334852D01*
X13230643Y-1335166D01*
X13229387Y-1337607D01*
X13229028Y-1338261D01*
X13228701Y-1338875D01*
X13227492Y-1341019D01*
X13189981Y-1403944D01*
X13189914Y-1403904D01*
X13189806Y-1404082D01*
X13189874Y-1404123D01*
X13189704Y-1404406D01*
X13188051Y-1406979D01*
X13187620Y-1407607D01*
X13187278Y-1408122D01*
X13185863Y-1410143D01*
X13142380Y-1469122D01*
X13142218Y-1469341D01*
X13142010Y-1469620D01*
X13140194Y-1471915D01*
X13139725Y-1472474D01*
X13139294Y-1473002D01*
X13137688Y-1474875D01*
X13088667Y-1529319D01*
X13088620Y-1529277D01*
X13088409Y-1529511D01*
X13088455Y-1529553D01*
X13088231Y-1529799D01*
X13086870Y-1531210D01*
X13086819Y-1531267D01*
X13086808Y-1531278D01*
X13086806Y-1531276D01*
X13086215Y-1531890D01*
X13085726Y-1532369D01*
X13085194Y-1532904D01*
X13083424Y-1534599D01*
X13029326Y-1583997D01*
X13029269Y-1583934D01*
X13029021Y-1584154D01*
X13029080Y-1584220D01*
X13028834Y-1584442D01*
X13026629Y-1586321D01*
X13026086Y-1586758D01*
X13025514Y-1587230D01*
X13023594Y-1588740D01*
X12964922Y-1632633D01*
X12964714Y-1632788D01*
X12964433Y-1632996D01*
X12962007Y-1634684D01*
X12961420Y-1635068D01*
X12960867Y-1635441D01*
X12958765Y-1636786D01*
X12896088Y-1674744D01*
X12895801Y-1674916D01*
X12895501Y-1675095D01*
X12893002Y-1676493D01*
X12892396Y-1676810D01*
X12891759Y-1677154D01*
X12889557Y-1678275D01*
X12823476Y-1709936D01*
X12823246Y-1710046D01*
X12822931Y-1710195D01*
X12820197Y-1711391D01*
X12819563Y-1711647D01*
X12818936Y-1711910D01*
X12816631Y-1712813D01*
X12747794Y-1737869D01*
X12747783Y-1737839D01*
X12747542Y-1737922D01*
X12747554Y-1737955D01*
X12747245Y-1738066D01*
X12744399Y-1738995D01*
X12743741Y-1739189D01*
X12743057Y-1739400D01*
X12740681Y-1740072D01*
X12669708Y-1758294D01*
X12669291Y-1758399D01*
X12668952Y-1758483D01*
X12666273Y-1759071D01*
X12665623Y-1759195D01*
X12664863Y-1759351D01*
X12662435Y-1759787D01*
X12590023Y-1770997D01*
X12589658Y-1771052D01*
X12589312Y-1771103D01*
X12586497Y-1771438D01*
X12585796Y-1771502D01*
X12585107Y-1771574D01*
X12582638Y-1771772D01*
X12509479Y-1775863D01*
X12509113Y-1775883D01*
X12508764Y-1775900D01*
X12505942Y-1775959D01*
X12505236Y-1775954D01*
X12504530Y-1775959D01*
X12502053Y-1775915D01*
X12428843Y-1772846D01*
X12428491Y-1772830D01*
X12428143Y-1772813D01*
X12425308Y-1772595D01*
X12424672Y-1772528D01*
X12423913Y-1772459D01*
X12421449Y-1772174D01*
X12348887Y-1761976D01*
X12348548Y-1761927D01*
X12348202Y-1761876D01*
X12345371Y-1761377D01*
X12344711Y-1761241D01*
X12344018Y-1761109D01*
X12341593Y-1760584D01*
X12270389Y-1743358D01*
X12270404Y-1743294D01*
X12270141Y-1743227D01*
X12270125Y-1743293D01*
X12269801Y-1743213D01*
X12266934Y-1742416D01*
X12266252Y-1742205D01*
X12265592Y-1742010D01*
X12263252Y-1741258D01*
X12194065Y-1717166D01*
X12194072Y-1717147D01*
X12193878Y-1717075D01*
X12193870Y-1717097D01*
X12193552Y-1716985D01*
X12190701Y-1715884D01*
X12190033Y-1715603D01*
X12189445Y-1715365D01*
X12187168Y-1714379D01*
X12120651Y-1683645D01*
X12120291Y-1683477D01*
X12119975Y-1683328D01*
X12117448Y-1682050D01*
X12116881Y-1681743D01*
X12116257Y-1681417D01*
X12114069Y-1680204D01*
X12050869Y-1643124D01*
X12050545Y-1642932D01*
X12050245Y-1642753D01*
X12047852Y-1641234D01*
X12047243Y-1640823D01*
X12046705Y-1640471D01*
X12044656Y-1639058D01*
X11985376Y-1595989D01*
X11985174Y-1595842D01*
X11984892Y-1595635D01*
X11982530Y-1593792D01*
X11981994Y-1593348D01*
X11981499Y-1592950D01*
X11979589Y-1591336D01*
X11924794Y-1542688D01*
X11924545Y-1542465D01*
X11924286Y-1542232D01*
X11922210Y-1540257D01*
X11921690Y-1539734D01*
X11921211Y-1539264D01*
X11919488Y-1537492D01*
X11869713Y-1483739D01*
X11869751Y-1483704D01*
X11869595Y-1483534D01*
X11869557Y-1483569D01*
X11869331Y-1483323D01*
X11868049Y-1481841D01*
X11867945Y-1481727D01*
X11867935Y-1481715D01*
X11867938Y-1481713D01*
X11867339Y-1481020D01*
X11866904Y-1480485D01*
X11866488Y-1479990D01*
X11864931Y-1478040D01*
X11820637Y-1419684D01*
X11820668Y-1419660D01*
X11820487Y-1419435D01*
X11820462Y-1419454D01*
X11820260Y-1419185D01*
X11820078Y-1418927D01*
X11820006Y-1418838D01*
X11819998Y-1418827D01*
X11820004Y-1418823D01*
X11818563Y-1416784D01*
X11818183Y-1416212D01*
X11817776Y-1415617D01*
X11816434Y-1413548D01*
X11778045Y-1351147D01*
X11778085Y-1351122D01*
X11777928Y-1350862D01*
X11777886Y-1350888D01*
X11777711Y-1350600D01*
X11776754Y-1348919D01*
X11776704Y-1348836D01*
X11776698Y-1348825D01*
X11776700Y-1348824D01*
X11776280Y-1348086D01*
X11775953Y-1347472D01*
X11775594Y-1346818D01*
X11774462Y-1344631D01*
X11742344Y-1278781D01*
X11742351Y-1278777D01*
X11742214Y-1278486D01*
X11742203Y-1278491D01*
X11742056Y-1278185D01*
X11741782Y-1277570D01*
X11741574Y-1277129D01*
X11741570Y-1277120D01*
X11741580Y-1277116D01*
X11740865Y-1275512D01*
X11740597Y-1274861D01*
X11740337Y-1274254D01*
X11739415Y-1271947D01*
X11713874Y-1203269D01*
X11713780Y-1203015D01*
X11713660Y-1202687D01*
X11712725Y-1199881D01*
X11712530Y-1199235D01*
X11712325Y-1198588D01*
X11711628Y-1196191D01*
X11692912Y-1125354D01*
X11693192Y-1125280D01*
X11693113Y-1124997D01*
X11692837Y-1125068D01*
X11692751Y-1124735D01*
X11692103Y-1121893D01*
X11691960Y-1121173D01*
X11691818Y-1120501D01*
X11691367Y-1118085D01*
X11679655Y-1045773D01*
X11679678Y-1045769D01*
X11679612Y-1045376D01*
X11679592Y-1045379D01*
X11679542Y-1045056D01*
X11679494Y-1044672D01*
X11679463Y-1044490D01*
X11679460Y-1044468D01*
X11679468Y-1044467D01*
X11679186Y-1042234D01*
X11679122Y-1041585D01*
X11679039Y-1040840D01*
X11678824Y-1038374D01*
X11674223Y-965243D01*
X11674206Y-964967D01*
X11674186Y-964619D01*
X11674154Y-963496D01*
X11674152Y-963464D01*
X11674075Y-961002D01*
X11674002Y-950531D01*
X11674001Y-950175D01*
X11674001Y-950010D01*
X11674000Y-950000D01*
X11674000Y-200000D01*
X11674245Y-195005D01*
G37*
D21*
X17000000Y1270000D03*
X17000000Y-1270000D03*
D16*
X8890000Y20701000D03*
X6350000Y20701000D03*
X3810000Y20701000D03*
X1270000Y20701000D03*
X-1270000Y20701000D03*
X-3810000Y20701000D03*
X-6350000Y20701000D03*
X-8890000Y20701000D03*
M02*
