G04 #@! TF.GenerationSoftware,KiCad,Pcbnew,(5.1.6)-1*
G04 #@! TF.CreationDate,2021-06-05T18:08:31+10:00*
G04 #@! TF.ProjectId,Simon,53696d6f-6e2e-46b6-9963-61645f706362,rev?*
G04 #@! TF.SameCoordinates,Original*
G04 #@! TF.FileFunction,Copper,L2,Bot*
G04 #@! TF.FilePolarity,Positive*
%FSLAX46Y46*%
G04 Gerber Fmt 4.6, Leading zero omitted, Abs format (unit mm)*
G04 Created by KiCad (PCBNEW (5.1.6)-1) date 2021-06-05 18:08:31*
%MOMM*%
%LPD*%
G01*
G04 APERTURE LIST*
G04 #@! TA.AperFunction,ComponentPad*
%ADD10C,1.900000*%
G04 #@! TD*
G04 #@! TA.AperFunction,ComponentPad*
%ADD11R,1.900000X1.900000*%
G04 #@! TD*
G04 #@! TA.AperFunction,ComponentPad*
%ADD12O,1.600000X2.400000*%
G04 #@! TD*
G04 #@! TA.AperFunction,ComponentPad*
%ADD13R,1.600000X2.400000*%
G04 #@! TD*
G04 #@! TA.AperFunction,ComponentPad*
%ADD14C,2.500000*%
G04 #@! TD*
G04 #@! TA.AperFunction,ComponentPad*
%ADD15R,2.500000X2.500000*%
G04 #@! TD*
G04 #@! TA.AperFunction,ComponentPad*
%ADD16R,2.000000X2.000000*%
G04 #@! TD*
G04 #@! TA.AperFunction,ComponentPad*
%ADD17C,2.000000*%
G04 #@! TD*
G04 #@! TA.AperFunction,ComponentPad*
%ADD18C,2.100000*%
G04 #@! TD*
G04 #@! TA.AperFunction,SMDPad,CuDef*
%ADD19C,0.100000*%
G04 #@! TD*
G04 #@! TA.AperFunction,ViaPad*
%ADD20C,0.800000*%
G04 #@! TD*
G04 #@! TA.AperFunction,Conductor*
%ADD21C,0.300000*%
G04 #@! TD*
G04 #@! TA.AperFunction,Conductor*
%ADD22C,0.500000*%
G04 #@! TD*
G04 #@! TA.AperFunction,Conductor*
%ADD23C,0.254000*%
G04 #@! TD*
G04 APERTURE END LIST*
D10*
X13770000Y12500000D03*
D11*
X11230000Y12500000D03*
D12*
X22190000Y3810000D03*
X29810000Y-3810000D03*
X24730000Y3810000D03*
X27270000Y-3810000D03*
X27270000Y3810000D03*
X24730000Y-3810000D03*
X29810000Y3810000D03*
D13*
X22190000Y-3810000D03*
D14*
X0Y-8255000D03*
D15*
X0Y12065000D03*
D10*
X13770000Y-12500000D03*
D11*
X11230000Y-12500000D03*
D16*
X10500000Y-21250000D03*
D17*
X8000000Y-21250000D03*
D16*
X-3250000Y-18000000D03*
D17*
X3250000Y-18000000D03*
D10*
X-11230000Y12500000D03*
D11*
X-13770000Y12500000D03*
D10*
X-11230000Y-12500000D03*
D11*
X-13770000Y-12500000D03*
D18*
X-32250000Y15000000D03*
X-32250000Y10000000D03*
X-19750000Y15000000D03*
X-19750000Y10000000D03*
X19750000Y15000000D03*
X19750000Y10000000D03*
X32250000Y15000000D03*
X32250000Y10000000D03*
X-19750000Y-15000000D03*
X-19750000Y-10000000D03*
X-32250000Y-15000000D03*
X-32250000Y-10000000D03*
X32250000Y-15000000D03*
X32250000Y-10000000D03*
X19750000Y-15000000D03*
X19750000Y-10000000D03*
D17*
X-30250000Y20750000D03*
X-21750000Y20750000D03*
X30250000Y20750000D03*
X21750000Y20750000D03*
X-30250000Y-20750000D03*
X-21750000Y-20750000D03*
X30250000Y-20750000D03*
X21750000Y-20750000D03*
X-13750000Y-2250000D03*
X-20250000Y-2250000D03*
X-13750000Y2250000D03*
X-20250000Y2250000D03*
G04 #@! TA.AperFunction,SMDPad,CuDef*
D19*
G36*
X13274520Y175123D02*
G01*
X13273097Y170433D01*
X13270787Y166111D01*
X13267678Y162322D01*
X13263889Y159213D01*
X13259567Y156903D01*
X13254877Y155480D01*
X13250000Y155000D01*
X11750000Y155000D01*
X11745123Y155480D01*
X11740433Y156903D01*
X11736111Y159213D01*
X11732322Y162322D01*
X11729213Y166111D01*
X11726903Y170433D01*
X11725480Y175123D01*
X11725000Y180000D01*
X11725000Y930000D01*
X11725030Y930305D01*
X11725030Y931222D01*
X11728609Y1004408D01*
X11728628Y1004757D01*
X11728745Y1005793D01*
X11728847Y1006840D01*
X11739552Y1079328D01*
X11739605Y1079673D01*
X11739828Y1080719D01*
X11740027Y1081724D01*
X11757749Y1152806D01*
X11757752Y1152821D01*
X11757757Y1152837D01*
X11757839Y1153160D01*
X11758151Y1154142D01*
X11758458Y1155160D01*
X11783032Y1224171D01*
X11783038Y1224189D01*
X11783046Y1224209D01*
X11783158Y1224517D01*
X11783561Y1225458D01*
X11783969Y1226447D01*
X11815168Y1292749D01*
X11815319Y1293063D01*
X11815823Y1293981D01*
X11816315Y1294905D01*
X11853826Y1357830D01*
X11853834Y1357845D01*
X11853845Y1357861D01*
X11854015Y1358144D01*
X11854623Y1359031D01*
X11855187Y1359879D01*
X11898670Y1418858D01*
X11898878Y1419137D01*
X11899555Y1419944D01*
X11900213Y1420750D01*
X11949234Y1475194D01*
X11949243Y1475205D01*
X11949254Y1475216D01*
X11949478Y1475462D01*
X11950221Y1476190D01*
X11950965Y1476938D01*
X12005063Y1526336D01*
X12005074Y1526347D01*
X12005088Y1526358D01*
X12005334Y1526580D01*
X12006131Y1527221D01*
X12006957Y1527903D01*
X12065629Y1571796D01*
X12065910Y1572004D01*
X12066812Y1572594D01*
X12067654Y1573162D01*
X12130331Y1611120D01*
X12130631Y1611299D01*
X12131547Y1611778D01*
X12132480Y1612282D01*
X12198561Y1643943D01*
X12198876Y1644092D01*
X12199863Y1644490D01*
X12200813Y1644889D01*
X12269650Y1669945D01*
X12269668Y1669952D01*
X12269688Y1669958D01*
X12269997Y1670069D01*
X12270986Y1670360D01*
X12272002Y1670674D01*
X12342975Y1688896D01*
X12343314Y1688980D01*
X12344312Y1689171D01*
X12345367Y1689387D01*
X12417779Y1700597D01*
X12418125Y1700648D01*
X12419169Y1700743D01*
X12420209Y1700852D01*
X12493368Y1704943D01*
X12493717Y1704960D01*
X12494764Y1704953D01*
X12495811Y1704960D01*
X12569021Y1701891D01*
X12569369Y1701874D01*
X12570379Y1701768D01*
X12571453Y1701670D01*
X12644015Y1691472D01*
X12644361Y1691421D01*
X12645373Y1691213D01*
X12646415Y1691014D01*
X12717619Y1673788D01*
X12717634Y1673785D01*
X12717650Y1673780D01*
X12717974Y1673700D01*
X12718994Y1673384D01*
X12719977Y1673094D01*
X12789164Y1649002D01*
X12789176Y1648998D01*
X12789188Y1648993D01*
X12789506Y1648881D01*
X12790501Y1648462D01*
X12791441Y1648082D01*
X12857958Y1617348D01*
X12858274Y1617199D01*
X12859170Y1616714D01*
X12860123Y1616216D01*
X12923323Y1579136D01*
X12923623Y1578957D01*
X12924493Y1578370D01*
X12925367Y1577798D01*
X12984647Y1534729D01*
X12984929Y1534522D01*
X12985746Y1533845D01*
X12986551Y1533198D01*
X13041346Y1484550D01*
X13041605Y1484317D01*
X13042338Y1483579D01*
X13043091Y1482841D01*
X13092866Y1429088D01*
X13092876Y1429078D01*
X13092886Y1429066D01*
X13093112Y1428820D01*
X13093778Y1428002D01*
X13094446Y1427206D01*
X13138740Y1368850D01*
X13138748Y1368841D01*
X13138756Y1368830D01*
X13138958Y1368561D01*
X13139548Y1367673D01*
X13140128Y1366825D01*
X13178517Y1304424D01*
X13178523Y1304415D01*
X13178529Y1304404D01*
X13178704Y1304116D01*
X13179196Y1303192D01*
X13179700Y1302274D01*
X13211818Y1236424D01*
X13211822Y1236416D01*
X13211826Y1236407D01*
X13211973Y1236101D01*
X13212371Y1235134D01*
X13212784Y1234170D01*
X13238325Y1165492D01*
X13238445Y1165164D01*
X13238747Y1164162D01*
X13239064Y1163163D01*
X13257780Y1092326D01*
X13257782Y1092321D01*
X13257783Y1092315D01*
X13257869Y1091982D01*
X13258078Y1090927D01*
X13258289Y1089931D01*
X13270001Y1017619D01*
X13270005Y1017599D01*
X13270008Y1017577D01*
X13270058Y1017254D01*
X13270157Y1016245D01*
X13270277Y1015172D01*
X13274878Y942041D01*
X13274898Y941693D01*
X13274898Y941152D01*
X13274926Y940646D01*
X13274999Y930175D01*
X13274999Y930005D01*
X13275000Y930000D01*
X13275000Y180000D01*
X13274520Y175123D01*
G37*
G04 #@! TD.AperFunction*
G04 #@! TA.AperFunction,SMDPad,CuDef*
G36*
X11725480Y-195123D02*
G01*
X11726903Y-190433D01*
X11729213Y-186111D01*
X11732322Y-182322D01*
X11736111Y-179213D01*
X11740433Y-176903D01*
X11745123Y-175480D01*
X11750000Y-175000D01*
X13250000Y-175000D01*
X13254877Y-175480D01*
X13259567Y-176903D01*
X13263889Y-179213D01*
X13267678Y-182322D01*
X13270787Y-186111D01*
X13273097Y-190433D01*
X13274520Y-195123D01*
X13275000Y-200000D01*
X13275000Y-950000D01*
X13274970Y-950305D01*
X13274970Y-951222D01*
X13271391Y-1024408D01*
X13271372Y-1024757D01*
X13271255Y-1025793D01*
X13271153Y-1026840D01*
X13260448Y-1099328D01*
X13260395Y-1099673D01*
X13260172Y-1100719D01*
X13259973Y-1101724D01*
X13242251Y-1172806D01*
X13242248Y-1172821D01*
X13242243Y-1172837D01*
X13242161Y-1173160D01*
X13241849Y-1174142D01*
X13241542Y-1175160D01*
X13216968Y-1244171D01*
X13216962Y-1244189D01*
X13216954Y-1244209D01*
X13216842Y-1244517D01*
X13216439Y-1245458D01*
X13216031Y-1246447D01*
X13184832Y-1312749D01*
X13184681Y-1313063D01*
X13184177Y-1313981D01*
X13183685Y-1314905D01*
X13146174Y-1377830D01*
X13146166Y-1377845D01*
X13146155Y-1377861D01*
X13145985Y-1378144D01*
X13145377Y-1379031D01*
X13144813Y-1379879D01*
X13101330Y-1438858D01*
X13101122Y-1439137D01*
X13100445Y-1439944D01*
X13099787Y-1440750D01*
X13050766Y-1495194D01*
X13050757Y-1495205D01*
X13050746Y-1495216D01*
X13050522Y-1495462D01*
X13049779Y-1496190D01*
X13049035Y-1496938D01*
X12994937Y-1546336D01*
X12994926Y-1546347D01*
X12994912Y-1546358D01*
X12994666Y-1546580D01*
X12993869Y-1547221D01*
X12993043Y-1547903D01*
X12934371Y-1591796D01*
X12934090Y-1592004D01*
X12933188Y-1592594D01*
X12932346Y-1593162D01*
X12869669Y-1631120D01*
X12869369Y-1631299D01*
X12868453Y-1631778D01*
X12867520Y-1632282D01*
X12801439Y-1663943D01*
X12801124Y-1664092D01*
X12800137Y-1664490D01*
X12799187Y-1664889D01*
X12730350Y-1689945D01*
X12730332Y-1689952D01*
X12730312Y-1689958D01*
X12730003Y-1690069D01*
X12729014Y-1690360D01*
X12727998Y-1690674D01*
X12657025Y-1708896D01*
X12656686Y-1708980D01*
X12655688Y-1709171D01*
X12654633Y-1709387D01*
X12582221Y-1720597D01*
X12581875Y-1720648D01*
X12580831Y-1720743D01*
X12579791Y-1720852D01*
X12506632Y-1724943D01*
X12506283Y-1724960D01*
X12505236Y-1724953D01*
X12504189Y-1724960D01*
X12430979Y-1721891D01*
X12430631Y-1721874D01*
X12429621Y-1721768D01*
X12428547Y-1721670D01*
X12355985Y-1711472D01*
X12355639Y-1711421D01*
X12354627Y-1711213D01*
X12353585Y-1711014D01*
X12282381Y-1693788D01*
X12282366Y-1693785D01*
X12282350Y-1693780D01*
X12282026Y-1693700D01*
X12281006Y-1693384D01*
X12280023Y-1693094D01*
X12210836Y-1669002D01*
X12210824Y-1668998D01*
X12210812Y-1668993D01*
X12210494Y-1668881D01*
X12209499Y-1668462D01*
X12208559Y-1668082D01*
X12142042Y-1637348D01*
X12141726Y-1637199D01*
X12140830Y-1636714D01*
X12139877Y-1636216D01*
X12076677Y-1599136D01*
X12076377Y-1598957D01*
X12075507Y-1598370D01*
X12074633Y-1597798D01*
X12015353Y-1554729D01*
X12015071Y-1554522D01*
X12014254Y-1553845D01*
X12013449Y-1553198D01*
X11958654Y-1504550D01*
X11958395Y-1504317D01*
X11957662Y-1503579D01*
X11956909Y-1502841D01*
X11907134Y-1449088D01*
X11907124Y-1449078D01*
X11907114Y-1449066D01*
X11906888Y-1448820D01*
X11906222Y-1448002D01*
X11905554Y-1447206D01*
X11861260Y-1388850D01*
X11861252Y-1388841D01*
X11861244Y-1388830D01*
X11861042Y-1388561D01*
X11860452Y-1387673D01*
X11859872Y-1386825D01*
X11821483Y-1324424D01*
X11821477Y-1324415D01*
X11821471Y-1324404D01*
X11821296Y-1324116D01*
X11820804Y-1323192D01*
X11820300Y-1322274D01*
X11788182Y-1256424D01*
X11788178Y-1256416D01*
X11788174Y-1256407D01*
X11788027Y-1256101D01*
X11787629Y-1255134D01*
X11787216Y-1254170D01*
X11761675Y-1185492D01*
X11761555Y-1185164D01*
X11761253Y-1184162D01*
X11760936Y-1183163D01*
X11742220Y-1112326D01*
X11742218Y-1112321D01*
X11742217Y-1112315D01*
X11742131Y-1111982D01*
X11741922Y-1110927D01*
X11741711Y-1109931D01*
X11729999Y-1037619D01*
X11729995Y-1037599D01*
X11729992Y-1037577D01*
X11729942Y-1037254D01*
X11729843Y-1036245D01*
X11729723Y-1035172D01*
X11725122Y-962041D01*
X11725102Y-961693D01*
X11725102Y-961152D01*
X11725074Y-960646D01*
X11725001Y-950175D01*
X11725001Y-950005D01*
X11725000Y-950000D01*
X11725000Y-200000D01*
X11725480Y-195123D01*
G37*
G04 #@! TD.AperFunction*
D17*
X17000000Y1270000D03*
X17000000Y-1270000D03*
D12*
X8890000Y20701000D03*
X6350000Y20701000D03*
X3810000Y20701000D03*
X1270000Y20701000D03*
X-1270000Y20701000D03*
X-3810000Y20701000D03*
X-6350000Y20701000D03*
X-8890000Y20701000D03*
D20*
X8940000Y8250000D03*
X7250000Y7000000D03*
D21*
X-13770000Y12500000D02*
X-13770000Y15570000D01*
X-13770000Y15570000D02*
X-19000000Y20800000D01*
X-19000000Y20800000D02*
X-21600000Y20800000D01*
X-13770000Y-12500000D02*
X-13770000Y-12770000D01*
X-13770000Y-12770000D02*
X-21800000Y-20800000D01*
X11230000Y-12500000D02*
X11230000Y-14230000D01*
X11230000Y-14230000D02*
X17800000Y-20800000D01*
X17800000Y-20800000D02*
X21800000Y-20800000D01*
X-19400000Y-9900000D02*
X-19700000Y-9900000D01*
D22*
X12500000Y950000D02*
X12500000Y2700000D01*
D21*
X12500000Y-970000D02*
X12500000Y-10500000D01*
X12500000Y-970000D02*
X16720000Y-970000D01*
X12500000Y-11230000D02*
X12500000Y-10500000D01*
X13770000Y-12500000D02*
X12500000Y-11230000D01*
X30250000Y-20750000D02*
X30250000Y-17000000D01*
X30250000Y-17000000D02*
X32250000Y-15000000D01*
X23340001Y-11409999D02*
X19750000Y-15000000D01*
X23500000Y2250000D02*
X23500000Y-11250000D01*
X23500000Y-11250000D02*
X23340001Y-11409999D01*
X24730000Y3810000D02*
X24730000Y3480000D01*
X24730000Y3480000D02*
X23500000Y2250000D01*
X-30250000Y-20750000D02*
X-30250000Y-17000000D01*
X-30250000Y-17000000D02*
X-32250000Y-15000000D01*
X-2250000Y19721000D02*
X-1270000Y20701000D01*
X-1270000Y20930000D02*
X1400000Y23600000D01*
X-1270000Y20701000D02*
X-1270000Y20930000D01*
X29749990Y8949990D02*
X29749990Y4000010D01*
X15099980Y23600000D02*
X29749990Y8949990D01*
X14600000Y23600000D02*
X15099980Y23600000D01*
X14600000Y23600000D02*
X1400000Y23600000D01*
X-2250000Y4150000D02*
X-2250000Y19721000D01*
X-19750000Y-13350000D02*
X-2250000Y4150000D01*
X-19750000Y-15000000D02*
X-19750000Y-13350000D01*
X8890000Y20701000D02*
X14049000Y20701000D01*
X14049000Y20701000D02*
X19750000Y15000000D01*
X27276359Y-3723641D02*
X27250000Y-3750000D01*
X32250000Y15000000D02*
X30250000Y17000000D01*
X30250000Y17000000D02*
X30250000Y20750000D01*
X35250000Y12000000D02*
X32250000Y15000000D01*
X35250000Y4450000D02*
X35250000Y12000000D01*
X27270000Y-3810000D02*
X27270000Y-3530000D01*
X27270000Y-3530000D02*
X35250000Y4450000D01*
X-8890000Y20701000D02*
X-8890000Y12510000D01*
X-8890000Y12510000D02*
X-8890000Y7110000D01*
X-8890000Y7110000D02*
X-13750000Y2250000D01*
X27270000Y3810000D02*
X27270000Y2670000D01*
X3200000Y-12400000D02*
X3200000Y-18000000D01*
X8940000Y8250000D02*
X8940000Y-6660000D01*
X8940000Y-6660000D02*
X3200000Y-12400000D01*
X6350000Y20701000D02*
X6350000Y7900000D01*
X6350000Y7900000D02*
X7250000Y7000000D01*
X7250000Y7000000D02*
X7250000Y7000000D01*
X-30250000Y20750000D02*
X-30250000Y17000000D01*
X-30250000Y17000000D02*
X-32250000Y15000000D01*
D23*
G36*
X39388370Y26224002D02*
G01*
X40002423Y26038608D01*
X40568773Y25737475D01*
X41065847Y25332072D01*
X41474710Y24837841D01*
X41779791Y24273607D01*
X41969467Y23660863D01*
X42040001Y22989786D01*
X42040000Y-22965280D01*
X41974004Y-23638366D01*
X41788607Y-24252428D01*
X41487474Y-24818775D01*
X41082071Y-25315847D01*
X40587842Y-25724710D01*
X40023611Y-26029790D01*
X39410862Y-26219467D01*
X38739787Y-26290000D01*
X-38715280Y-26290000D01*
X-39388366Y-26224004D01*
X-40002428Y-26038607D01*
X-40568775Y-25737474D01*
X-41065847Y-25332071D01*
X-41474710Y-24837842D01*
X-41779790Y-24273611D01*
X-41969467Y-23660862D01*
X-42040000Y-22989787D01*
X-42040000Y-14834042D01*
X-33935000Y-14834042D01*
X-33935000Y-15165958D01*
X-33870246Y-15491496D01*
X-33743228Y-15798147D01*
X-33558825Y-16074125D01*
X-33324125Y-16308825D01*
X-33048147Y-16493228D01*
X-32741496Y-16620246D01*
X-32415958Y-16685000D01*
X-32084042Y-16685000D01*
X-31758504Y-16620246D01*
X-31745357Y-16614800D01*
X-31034999Y-17325159D01*
X-31035000Y-19308122D01*
X-31292252Y-19480013D01*
X-31519987Y-19707748D01*
X-31698918Y-19975537D01*
X-31822168Y-20273088D01*
X-31885000Y-20588967D01*
X-31885000Y-20911033D01*
X-31822168Y-21226912D01*
X-31698918Y-21524463D01*
X-31519987Y-21792252D01*
X-31292252Y-22019987D01*
X-31024463Y-22198918D01*
X-30726912Y-22322168D01*
X-30411033Y-22385000D01*
X-30088967Y-22385000D01*
X-29773088Y-22322168D01*
X-29475537Y-22198918D01*
X-29207748Y-22019987D01*
X-28980013Y-21792252D01*
X-28801082Y-21524463D01*
X-28677832Y-21226912D01*
X-28615000Y-20911033D01*
X-28615000Y-20588967D01*
X-23385000Y-20588967D01*
X-23385000Y-20911033D01*
X-23322168Y-21226912D01*
X-23198918Y-21524463D01*
X-23019987Y-21792252D01*
X-22792252Y-22019987D01*
X-22524463Y-22198918D01*
X-22226912Y-22322168D01*
X-21911033Y-22385000D01*
X-21588967Y-22385000D01*
X-21273088Y-22322168D01*
X-20975537Y-22198918D01*
X-20707748Y-22019987D01*
X-20480013Y-21792252D01*
X-20301082Y-21524463D01*
X-20177832Y-21226912D01*
X-20150394Y-21088967D01*
X6365000Y-21088967D01*
X6365000Y-21411033D01*
X6427832Y-21726912D01*
X6551082Y-22024463D01*
X6730013Y-22292252D01*
X6957748Y-22519987D01*
X7225537Y-22698918D01*
X7523088Y-22822168D01*
X7838967Y-22885000D01*
X8161033Y-22885000D01*
X8476912Y-22822168D01*
X8774463Y-22698918D01*
X8955335Y-22578063D01*
X8969463Y-22604494D01*
X9048815Y-22701185D01*
X9145506Y-22780537D01*
X9255820Y-22839502D01*
X9375518Y-22875812D01*
X9500000Y-22888072D01*
X10214250Y-22885000D01*
X10373000Y-22726250D01*
X10373000Y-21377000D01*
X10627000Y-21377000D01*
X10627000Y-22726250D01*
X10785750Y-22885000D01*
X11500000Y-22888072D01*
X11624482Y-22875812D01*
X11744180Y-22839502D01*
X11854494Y-22780537D01*
X11951185Y-22701185D01*
X12030537Y-22604494D01*
X12089502Y-22494180D01*
X12125812Y-22374482D01*
X12138072Y-22250000D01*
X12135000Y-21535750D01*
X11976250Y-21377000D01*
X10627000Y-21377000D01*
X10373000Y-21377000D01*
X10353000Y-21377000D01*
X10353000Y-21123000D01*
X10373000Y-21123000D01*
X10373000Y-19773750D01*
X10627000Y-19773750D01*
X10627000Y-21123000D01*
X11976250Y-21123000D01*
X12135000Y-20964250D01*
X12138072Y-20250000D01*
X12125812Y-20125518D01*
X12089502Y-20005820D01*
X12030537Y-19895506D01*
X11951185Y-19798815D01*
X11854494Y-19719463D01*
X11744180Y-19660498D01*
X11624482Y-19624188D01*
X11500000Y-19611928D01*
X10785750Y-19615000D01*
X10627000Y-19773750D01*
X10373000Y-19773750D01*
X10214250Y-19615000D01*
X9500000Y-19611928D01*
X9375518Y-19624188D01*
X9255820Y-19660498D01*
X9145506Y-19719463D01*
X9048815Y-19798815D01*
X8969463Y-19895506D01*
X8955335Y-19921937D01*
X8774463Y-19801082D01*
X8476912Y-19677832D01*
X8161033Y-19615000D01*
X7838967Y-19615000D01*
X7523088Y-19677832D01*
X7225537Y-19801082D01*
X6957748Y-19980013D01*
X6730013Y-20207748D01*
X6551082Y-20475537D01*
X6427832Y-20773088D01*
X6365000Y-21088967D01*
X-20150394Y-21088967D01*
X-20115000Y-20911033D01*
X-20115000Y-20588967D01*
X-20175360Y-20285517D01*
X-16889843Y-17000000D01*
X-4888072Y-17000000D01*
X-4888072Y-19000000D01*
X-4875812Y-19124482D01*
X-4839502Y-19244180D01*
X-4780537Y-19354494D01*
X-4701185Y-19451185D01*
X-4604494Y-19530537D01*
X-4494180Y-19589502D01*
X-4374482Y-19625812D01*
X-4250000Y-19638072D01*
X-2250000Y-19638072D01*
X-2125518Y-19625812D01*
X-2005820Y-19589502D01*
X-1895506Y-19530537D01*
X-1798815Y-19451185D01*
X-1719463Y-19354494D01*
X-1660498Y-19244180D01*
X-1624188Y-19124482D01*
X-1611928Y-19000000D01*
X-1611928Y-17000000D01*
X-1624188Y-16875518D01*
X-1660498Y-16755820D01*
X-1719463Y-16645506D01*
X-1798815Y-16548815D01*
X-1895506Y-16469463D01*
X-2005820Y-16410498D01*
X-2125518Y-16374188D01*
X-2250000Y-16361928D01*
X-4250000Y-16361928D01*
X-4374482Y-16374188D01*
X-4494180Y-16410498D01*
X-4604494Y-16469463D01*
X-4701185Y-16548815D01*
X-4780537Y-16645506D01*
X-4839502Y-16755820D01*
X-4875812Y-16875518D01*
X-4888072Y-17000000D01*
X-16889843Y-17000000D01*
X-13977914Y-14088072D01*
X-12820000Y-14088072D01*
X-12695518Y-14075812D01*
X-12575820Y-14039502D01*
X-12465506Y-13980537D01*
X-12368815Y-13901185D01*
X-12289463Y-13804494D01*
X-12246818Y-13724711D01*
X-12240379Y-13731150D01*
X-11980779Y-13904609D01*
X-11692327Y-14024089D01*
X-11386109Y-14085000D01*
X-11073891Y-14085000D01*
X-10767673Y-14024089D01*
X-10479221Y-13904609D01*
X-10219621Y-13731150D01*
X-9998850Y-13510379D01*
X-9825391Y-13250779D01*
X-9705911Y-12962327D01*
X-9645000Y-12656109D01*
X-9645000Y-12343891D01*
X-9705911Y-12037673D01*
X-9825391Y-11749221D01*
X-9998850Y-11489621D01*
X-10219621Y-11268850D01*
X-10479221Y-11095391D01*
X-10767673Y-10975911D01*
X-11073891Y-10915000D01*
X-11386109Y-10915000D01*
X-11692327Y-10975911D01*
X-11980779Y-11095391D01*
X-12240379Y-11268850D01*
X-12246818Y-11275289D01*
X-12289463Y-11195506D01*
X-12368815Y-11098815D01*
X-12465506Y-11019463D01*
X-12575820Y-10960498D01*
X-12695518Y-10924188D01*
X-12820000Y-10911928D01*
X-14720000Y-10911928D01*
X-14844482Y-10924188D01*
X-14964180Y-10960498D01*
X-15074494Y-11019463D01*
X-15171185Y-11098815D01*
X-15250537Y-11195506D01*
X-15309502Y-11305820D01*
X-15345812Y-11425518D01*
X-15358072Y-11550000D01*
X-15358072Y-13247914D01*
X-21285517Y-19175360D01*
X-21588967Y-19115000D01*
X-21911033Y-19115000D01*
X-22226912Y-19177832D01*
X-22524463Y-19301082D01*
X-22792252Y-19480013D01*
X-23019987Y-19707748D01*
X-23198918Y-19975537D01*
X-23322168Y-20273088D01*
X-23385000Y-20588967D01*
X-28615000Y-20588967D01*
X-28677832Y-20273088D01*
X-28801082Y-19975537D01*
X-28980013Y-19707748D01*
X-29207748Y-19480013D01*
X-29465000Y-19308123D01*
X-29465000Y-17038552D01*
X-29461203Y-16999999D01*
X-29465000Y-16961446D01*
X-29465000Y-16961439D01*
X-29476359Y-16846113D01*
X-29521246Y-16698140D01*
X-29594138Y-16561767D01*
X-29650387Y-16493228D01*
X-29667655Y-16472187D01*
X-29667658Y-16472184D01*
X-29692236Y-16442236D01*
X-29722184Y-16417658D01*
X-30635200Y-15504643D01*
X-30629754Y-15491496D01*
X-30565000Y-15165958D01*
X-30565000Y-14834042D01*
X-30629754Y-14508504D01*
X-30756772Y-14201853D01*
X-30941175Y-13925875D01*
X-31175875Y-13691175D01*
X-31451853Y-13506772D01*
X-31758504Y-13379754D01*
X-32084042Y-13315000D01*
X-32415958Y-13315000D01*
X-32741496Y-13379754D01*
X-33048147Y-13506772D01*
X-33324125Y-13691175D01*
X-33558825Y-13925875D01*
X-33743228Y-14201853D01*
X-33870246Y-14508504D01*
X-33935000Y-14834042D01*
X-42040000Y-14834042D01*
X-42040000Y-9834042D01*
X-33935000Y-9834042D01*
X-33935000Y-10165958D01*
X-33870246Y-10491496D01*
X-33743228Y-10798147D01*
X-33558825Y-11074125D01*
X-33324125Y-11308825D01*
X-33048147Y-11493228D01*
X-32741496Y-11620246D01*
X-32415958Y-11685000D01*
X-32084042Y-11685000D01*
X-31758504Y-11620246D01*
X-31451853Y-11493228D01*
X-31175875Y-11308825D01*
X-30941175Y-11074125D01*
X-30756772Y-10798147D01*
X-30629754Y-10491496D01*
X-30565000Y-10165958D01*
X-30565000Y-9834042D01*
X-21435000Y-9834042D01*
X-21435000Y-10165958D01*
X-21370246Y-10491496D01*
X-21243228Y-10798147D01*
X-21058825Y-11074125D01*
X-20824125Y-11308825D01*
X-20548147Y-11493228D01*
X-20241496Y-11620246D01*
X-19915958Y-11685000D01*
X-19584042Y-11685000D01*
X-19258504Y-11620246D01*
X-19039823Y-11529666D01*
X-20277815Y-12767658D01*
X-20307763Y-12792236D01*
X-20332341Y-12822184D01*
X-20332345Y-12822188D01*
X-20365310Y-12862356D01*
X-20405861Y-12911767D01*
X-20443585Y-12982345D01*
X-20478754Y-13048141D01*
X-20523641Y-13196114D01*
X-20538797Y-13350000D01*
X-20534999Y-13388562D01*
X-20534999Y-13501326D01*
X-20548147Y-13506772D01*
X-20824125Y-13691175D01*
X-21058825Y-13925875D01*
X-21243228Y-14201853D01*
X-21370246Y-14508504D01*
X-21435000Y-14834042D01*
X-21435000Y-15165958D01*
X-21370246Y-15491496D01*
X-21243228Y-15798147D01*
X-21058825Y-16074125D01*
X-20824125Y-16308825D01*
X-20548147Y-16493228D01*
X-20241496Y-16620246D01*
X-19915958Y-16685000D01*
X-19584042Y-16685000D01*
X-19258504Y-16620246D01*
X-18951853Y-16493228D01*
X-18675875Y-16308825D01*
X-18441175Y-16074125D01*
X-18256772Y-15798147D01*
X-18129754Y-15491496D01*
X-18065000Y-15165958D01*
X-18065000Y-14834042D01*
X-18129754Y-14508504D01*
X-18256772Y-14201853D01*
X-18441175Y-13925875D01*
X-18675875Y-13691175D01*
X-18858795Y-13568952D01*
X-13359187Y-8069344D01*
X-1885000Y-8069344D01*
X-1885000Y-8440656D01*
X-1812561Y-8804834D01*
X-1670466Y-9147882D01*
X-1464175Y-9456618D01*
X-1201618Y-9719175D01*
X-892882Y-9925466D01*
X-549834Y-10067561D01*
X-185656Y-10140000D01*
X185656Y-10140000D01*
X549834Y-10067561D01*
X892882Y-9925466D01*
X1201618Y-9719175D01*
X1464175Y-9456618D01*
X1670466Y-9147882D01*
X1812561Y-8804834D01*
X1885000Y-8440656D01*
X1885000Y-8069344D01*
X1812561Y-7705166D01*
X1670466Y-7362118D01*
X1464175Y-7053382D01*
X1201618Y-6790825D01*
X892882Y-6584534D01*
X549834Y-6442439D01*
X185656Y-6370000D01*
X-185656Y-6370000D01*
X-549834Y-6442439D01*
X-892882Y-6584534D01*
X-1201618Y-6790825D01*
X-1464175Y-7053382D01*
X-1670466Y-7362118D01*
X-1812561Y-7705166D01*
X-1885000Y-8069344D01*
X-13359187Y-8069344D01*
X-1722183Y3567659D01*
X-1692236Y3592236D01*
X-1594138Y3711767D01*
X-1521246Y3848140D01*
X-1476359Y3996113D01*
X-1465000Y4111439D01*
X-1465000Y4111446D01*
X-1461203Y4149999D01*
X-1465000Y4188552D01*
X-1465000Y10216646D01*
X-1374482Y10189188D01*
X-1250000Y10176928D01*
X-285750Y10180000D01*
X-127000Y10338750D01*
X-127000Y11938000D01*
X127000Y11938000D01*
X127000Y10338750D01*
X285750Y10180000D01*
X1250000Y10176928D01*
X1374482Y10189188D01*
X1494180Y10225498D01*
X1604494Y10284463D01*
X1701185Y10363815D01*
X1780537Y10460506D01*
X1839502Y10570820D01*
X1875812Y10690518D01*
X1888072Y10815000D01*
X1885000Y11779250D01*
X1726250Y11938000D01*
X127000Y11938000D01*
X-127000Y11938000D01*
X-147000Y11938000D01*
X-147000Y12192000D01*
X-127000Y12192000D01*
X-127000Y13791250D01*
X127000Y13791250D01*
X127000Y12192000D01*
X1726250Y12192000D01*
X1885000Y12350750D01*
X1888072Y13315000D01*
X1875812Y13439482D01*
X1839502Y13559180D01*
X1780537Y13669494D01*
X1701185Y13766185D01*
X1604494Y13845537D01*
X1494180Y13904502D01*
X1374482Y13940812D01*
X1250000Y13953072D01*
X285750Y13950000D01*
X127000Y13791250D01*
X-127000Y13791250D01*
X-285750Y13950000D01*
X-1250000Y13953072D01*
X-1374482Y13940812D01*
X-1465000Y13913354D01*
X-1465000Y18878263D01*
X-1270000Y18859057D01*
X-988692Y18886764D01*
X-718193Y18968818D01*
X-468900Y19102068D01*
X-250393Y19281392D01*
X-71068Y19499899D01*
X0Y19632858D01*
X71068Y19499900D01*
X250392Y19281393D01*
X468899Y19102068D01*
X718192Y18968818D01*
X988691Y18886764D01*
X1270000Y18859057D01*
X1551308Y18886764D01*
X1821807Y18968818D01*
X2071100Y19102068D01*
X2289607Y19281392D01*
X2468932Y19499899D01*
X2540000Y19632858D01*
X2611068Y19499900D01*
X2790392Y19281393D01*
X3008899Y19102068D01*
X3258192Y18968818D01*
X3528691Y18886764D01*
X3810000Y18859057D01*
X4091308Y18886764D01*
X4361807Y18968818D01*
X4611100Y19102068D01*
X4829607Y19281392D01*
X5008932Y19499899D01*
X5080000Y19632858D01*
X5151068Y19499900D01*
X5330392Y19281393D01*
X5548899Y19102068D01*
X5565000Y19093462D01*
X5565001Y7938563D01*
X5561203Y7900000D01*
X5576359Y7746114D01*
X5621246Y7598141D01*
X5621247Y7598140D01*
X5694139Y7461767D01*
X5734690Y7412356D01*
X5767655Y7372188D01*
X5767659Y7372184D01*
X5792237Y7342236D01*
X5822185Y7317658D01*
X6215000Y6924843D01*
X6215000Y6898061D01*
X6254774Y6698102D01*
X6332795Y6509744D01*
X6446063Y6340226D01*
X6590226Y6196063D01*
X6759744Y6082795D01*
X6948102Y6004774D01*
X7148061Y5965000D01*
X7351939Y5965000D01*
X7551898Y6004774D01*
X7740256Y6082795D01*
X7909774Y6196063D01*
X8053937Y6340226D01*
X8155000Y6491478D01*
X8155001Y-6334842D01*
X2672190Y-11817653D01*
X2642236Y-11842236D01*
X2544138Y-11961768D01*
X2471246Y-12098141D01*
X2426359Y-12246114D01*
X2415000Y-12361440D01*
X2415000Y-12361447D01*
X2411203Y-12400000D01*
X2415000Y-12438553D01*
X2415001Y-16591531D01*
X2207748Y-16730013D01*
X1980013Y-16957748D01*
X1801082Y-17225537D01*
X1677832Y-17523088D01*
X1615000Y-17838967D01*
X1615000Y-18161033D01*
X1677832Y-18476912D01*
X1801082Y-18774463D01*
X1980013Y-19042252D01*
X2207748Y-19269987D01*
X2475537Y-19448918D01*
X2773088Y-19572168D01*
X3088967Y-19635000D01*
X3411033Y-19635000D01*
X3726912Y-19572168D01*
X4024463Y-19448918D01*
X4292252Y-19269987D01*
X4519987Y-19042252D01*
X4698918Y-18774463D01*
X4822168Y-18476912D01*
X4885000Y-18161033D01*
X4885000Y-17838967D01*
X4822168Y-17523088D01*
X4698918Y-17225537D01*
X4519987Y-16957748D01*
X4292252Y-16730013D01*
X4024463Y-16551082D01*
X3985000Y-16534736D01*
X3985000Y-12725157D01*
X5160157Y-11550000D01*
X9641928Y-11550000D01*
X9641928Y-13450000D01*
X9654188Y-13574482D01*
X9690498Y-13694180D01*
X9749463Y-13804494D01*
X9828815Y-13901185D01*
X9925506Y-13980537D01*
X10035820Y-14039502D01*
X10155518Y-14075812D01*
X10280000Y-14088072D01*
X10445001Y-14088072D01*
X10445001Y-14191438D01*
X10441203Y-14230000D01*
X10456359Y-14383886D01*
X10501246Y-14531859D01*
X10501247Y-14531860D01*
X10574139Y-14668233D01*
X10614690Y-14717644D01*
X10647655Y-14757812D01*
X10647659Y-14757816D01*
X10672237Y-14787764D01*
X10702185Y-14812342D01*
X17217658Y-21327816D01*
X17242236Y-21357764D01*
X17272184Y-21382342D01*
X17272187Y-21382345D01*
X17300843Y-21405862D01*
X17361767Y-21455862D01*
X17488574Y-21523641D01*
X17498140Y-21528754D01*
X17646112Y-21573641D01*
X17660490Y-21575057D01*
X17761439Y-21585000D01*
X17761446Y-21585000D01*
X17799999Y-21588797D01*
X17838552Y-21585000D01*
X20341532Y-21585000D01*
X20480013Y-21792252D01*
X20707748Y-22019987D01*
X20975537Y-22198918D01*
X21273088Y-22322168D01*
X21588967Y-22385000D01*
X21911033Y-22385000D01*
X22226912Y-22322168D01*
X22524463Y-22198918D01*
X22792252Y-22019987D01*
X23019987Y-21792252D01*
X23198918Y-21524463D01*
X23322168Y-21226912D01*
X23385000Y-20911033D01*
X23385000Y-20588967D01*
X28615000Y-20588967D01*
X28615000Y-20911033D01*
X28677832Y-21226912D01*
X28801082Y-21524463D01*
X28980013Y-21792252D01*
X29207748Y-22019987D01*
X29475537Y-22198918D01*
X29773088Y-22322168D01*
X30088967Y-22385000D01*
X30411033Y-22385000D01*
X30726912Y-22322168D01*
X31024463Y-22198918D01*
X31292252Y-22019987D01*
X31519987Y-21792252D01*
X31698918Y-21524463D01*
X31822168Y-21226912D01*
X31885000Y-20911033D01*
X31885000Y-20588967D01*
X31822168Y-20273088D01*
X31698918Y-19975537D01*
X31519987Y-19707748D01*
X31292252Y-19480013D01*
X31035000Y-19308123D01*
X31035000Y-17325157D01*
X31745357Y-16614800D01*
X31758504Y-16620246D01*
X32084042Y-16685000D01*
X32415958Y-16685000D01*
X32741496Y-16620246D01*
X33048147Y-16493228D01*
X33324125Y-16308825D01*
X33558825Y-16074125D01*
X33743228Y-15798147D01*
X33870246Y-15491496D01*
X33935000Y-15165958D01*
X33935000Y-14834042D01*
X33870246Y-14508504D01*
X33743228Y-14201853D01*
X33558825Y-13925875D01*
X33324125Y-13691175D01*
X33048147Y-13506772D01*
X32741496Y-13379754D01*
X32415958Y-13315000D01*
X32084042Y-13315000D01*
X31758504Y-13379754D01*
X31451853Y-13506772D01*
X31175875Y-13691175D01*
X30941175Y-13925875D01*
X30756772Y-14201853D01*
X30629754Y-14508504D01*
X30565000Y-14834042D01*
X30565000Y-15165958D01*
X30629754Y-15491496D01*
X30635200Y-15504643D01*
X29722185Y-16417658D01*
X29692237Y-16442236D01*
X29667659Y-16472184D01*
X29667655Y-16472188D01*
X29650388Y-16493228D01*
X29594139Y-16561767D01*
X29562882Y-16620246D01*
X29521246Y-16698141D01*
X29476359Y-16846114D01*
X29461203Y-17000000D01*
X29465001Y-17038563D01*
X29465000Y-19308122D01*
X29207748Y-19480013D01*
X28980013Y-19707748D01*
X28801082Y-19975537D01*
X28677832Y-20273088D01*
X28615000Y-20588967D01*
X23385000Y-20588967D01*
X23322168Y-20273088D01*
X23198918Y-19975537D01*
X23019987Y-19707748D01*
X22792252Y-19480013D01*
X22524463Y-19301082D01*
X22226912Y-19177832D01*
X21911033Y-19115000D01*
X21588967Y-19115000D01*
X21273088Y-19177832D01*
X20975537Y-19301082D01*
X20707748Y-19480013D01*
X20480013Y-19707748D01*
X20301082Y-19975537D01*
X20284736Y-20015000D01*
X18125158Y-20015000D01*
X12196595Y-14086438D01*
X12304482Y-14075812D01*
X12424180Y-14039502D01*
X12534494Y-13980537D01*
X12631185Y-13901185D01*
X12710537Y-13804494D01*
X12753182Y-13724711D01*
X12759621Y-13731150D01*
X13019221Y-13904609D01*
X13307673Y-14024089D01*
X13613891Y-14085000D01*
X13926109Y-14085000D01*
X14232327Y-14024089D01*
X14520779Y-13904609D01*
X14780379Y-13731150D01*
X15001150Y-13510379D01*
X15174609Y-13250779D01*
X15294089Y-12962327D01*
X15355000Y-12656109D01*
X15355000Y-12343891D01*
X15294089Y-12037673D01*
X15174609Y-11749221D01*
X15001150Y-11489621D01*
X14780379Y-11268850D01*
X14520779Y-11095391D01*
X14232327Y-10975911D01*
X13926109Y-10915000D01*
X13613891Y-10915000D01*
X13348039Y-10967882D01*
X13285000Y-10904843D01*
X13285000Y-9834042D01*
X18065000Y-9834042D01*
X18065000Y-10165958D01*
X18129754Y-10491496D01*
X18256772Y-10798147D01*
X18441175Y-11074125D01*
X18675875Y-11308825D01*
X18951853Y-11493228D01*
X19258504Y-11620246D01*
X19584042Y-11685000D01*
X19915958Y-11685000D01*
X20241496Y-11620246D01*
X20548147Y-11493228D01*
X20824125Y-11308825D01*
X21058825Y-11074125D01*
X21243228Y-10798147D01*
X21370246Y-10491496D01*
X21435000Y-10165958D01*
X21435000Y-9834042D01*
X21370246Y-9508504D01*
X21243228Y-9201853D01*
X21058825Y-8925875D01*
X20824125Y-8691175D01*
X20548147Y-8506772D01*
X20241496Y-8379754D01*
X19915958Y-8315000D01*
X19584042Y-8315000D01*
X19258504Y-8379754D01*
X18951853Y-8506772D01*
X18675875Y-8691175D01*
X18441175Y-8925875D01*
X18256772Y-9201853D01*
X18129754Y-9508504D01*
X18065000Y-9834042D01*
X13285000Y-9834042D01*
X13285000Y-2124773D01*
X13286059Y-2123998D01*
X13287899Y-2122884D01*
X13289767Y-2121625D01*
X13289613Y-2121397D01*
X13338316Y-2085752D01*
X13338587Y-2085531D01*
X13342053Y-2082684D01*
X13454836Y-1989382D01*
X13496024Y-1951775D01*
X13496204Y-1951959D01*
X13497812Y-1950384D01*
X13499206Y-1948869D01*
X13500835Y-1947382D01*
X13502442Y-1945764D01*
X13502245Y-1945568D01*
X13542556Y-1901771D01*
X13542779Y-1901502D01*
X13546024Y-1897555D01*
X13638536Y-1784123D01*
X13660010Y-1755000D01*
X15431182Y-1755000D01*
X15551082Y-2044463D01*
X15730013Y-2312252D01*
X15957748Y-2539987D01*
X16225537Y-2718918D01*
X16523088Y-2842168D01*
X16838967Y-2905000D01*
X17161033Y-2905000D01*
X17476912Y-2842168D01*
X17774463Y-2718918D01*
X18042252Y-2539987D01*
X18269987Y-2312252D01*
X18448918Y-2044463D01*
X18572168Y-1746912D01*
X18635000Y-1431033D01*
X18635000Y-1108967D01*
X18572168Y-793088D01*
X18448918Y-495537D01*
X18269987Y-227748D01*
X18042252Y-13D01*
X17933400Y72720D01*
X17955808Y134587D01*
X17000000Y1090395D01*
X16044192Y134587D01*
X16066600Y72720D01*
X15957748Y-13D01*
X15772761Y-185000D01*
X13912336Y-185000D01*
X13910004Y-137502D01*
X13909524Y-132625D01*
X13885133Y-10000D01*
X13909524Y112625D01*
X13910004Y117502D01*
X13913072Y180000D01*
X13913072Y930000D01*
X13913071Y930010D01*
X13913071Y930175D01*
X13913055Y934623D01*
X13912982Y945094D01*
X13909517Y1007208D01*
X13909404Y1008281D01*
X13909283Y1010565D01*
X13909246Y1010912D01*
X13908867Y1014383D01*
X13892551Y1159845D01*
X13884851Y1207405D01*
X15358282Y1207405D01*
X15402039Y888325D01*
X15507205Y583912D01*
X15600186Y409956D01*
X15864587Y314192D01*
X16820395Y1270000D01*
X17179605Y1270000D01*
X18135413Y314192D01*
X18399814Y409956D01*
X18540704Y699571D01*
X18622384Y1011108D01*
X18641718Y1332595D01*
X18597961Y1651675D01*
X18492795Y1956088D01*
X18399814Y2130044D01*
X18135413Y2225808D01*
X17179605Y1270000D01*
X16820395Y1270000D01*
X15864587Y2225808D01*
X15600186Y2130044D01*
X15459296Y1840429D01*
X15377616Y1528892D01*
X15358282Y1207405D01*
X13884851Y1207405D01*
X13883640Y1214882D01*
X13883893Y1214932D01*
X13883451Y1217163D01*
X13882951Y1219138D01*
X13882602Y1221296D01*
X13882133Y1223504D01*
X13881861Y1223446D01*
X13867122Y1281708D01*
X13867019Y1282041D01*
X13865645Y1286427D01*
X13821386Y1425949D01*
X13802016Y1478027D01*
X13802265Y1478129D01*
X13801402Y1480224D01*
X13800465Y1482198D01*
X13799634Y1484432D01*
X13798741Y1486515D01*
X13798471Y1486399D01*
X13772701Y1540684D01*
X13772535Y1540991D01*
X13770406Y1544895D01*
X13699889Y1673164D01*
X13670791Y1720452D01*
X13671018Y1720603D01*
X13669767Y1722487D01*
X13668435Y1724280D01*
X13667155Y1726360D01*
X13665872Y1728233D01*
X13665624Y1728063D01*
X13629590Y1776565D01*
X13629368Y1776833D01*
X13626781Y1779936D01*
X13532693Y1892067D01*
X13494829Y1932961D01*
X13495012Y1933143D01*
X13493405Y1934761D01*
X13491909Y1936114D01*
X13491568Y1936482D01*
X13491604Y1936518D01*
X13491598Y1936524D01*
X13491363Y1936703D01*
X13490382Y1937763D01*
X13488774Y1939338D01*
X13488572Y1939132D01*
X13442695Y1980620D01*
X13442430Y1980835D01*
X13439046Y1976663D01*
X13436811Y1978370D01*
X13440225Y1982616D01*
X13326156Y2074330D01*
X13281133Y2107040D01*
X13281282Y2107260D01*
X13279371Y2108549D01*
X13277582Y2109620D01*
X13275699Y2110988D01*
X13273836Y2112207D01*
X13273674Y2111959D01*
X13220270Y2143929D01*
X13219961Y2144092D01*
X13217872Y2145189D01*
X13088155Y2213004D01*
X13037452Y2236437D01*
X13037550Y2236670D01*
X13035443Y2237555D01*
X13033586Y2238224D01*
X13031664Y2239112D01*
X13029581Y2239954D01*
X13029479Y2239703D01*
X12973037Y2260028D01*
X12972703Y2260129D01*
X12968165Y2261483D01*
X12827746Y2302810D01*
X12773840Y2315846D01*
X12773895Y2316116D01*
X12771638Y2316580D01*
X12769452Y2316907D01*
X12767051Y2317488D01*
X12764863Y2317905D01*
X12764805Y2317603D01*
X12703386Y2326801D01*
X12703038Y2326834D01*
X12700635Y2327058D01*
X12554864Y2340325D01*
X12499508Y2342640D01*
X12499510Y2342918D01*
X12497206Y2342935D01*
X12494956Y2342830D01*
X12492448Y2342935D01*
X12490220Y2342919D01*
X12490222Y2342609D01*
X12428464Y2339731D01*
X12428117Y2339696D01*
X12425451Y2339421D01*
X12279879Y2324120D01*
X12224843Y2315603D01*
X12224794Y2315858D01*
X12222561Y2315432D01*
X12220563Y2314941D01*
X12218348Y2314598D01*
X12216135Y2314144D01*
X12216192Y2313866D01*
X12157443Y2299422D01*
X12157109Y2299321D01*
X12153117Y2298100D01*
X12013288Y2254816D01*
X11960918Y2235757D01*
X11960821Y2235997D01*
X11958720Y2235148D01*
X11956860Y2234280D01*
X11954739Y2233508D01*
X11952650Y2232630D01*
X11952761Y2232367D01*
X11897891Y2206759D01*
X11897583Y2206595D01*
X11893988Y2204666D01*
X11765231Y2135047D01*
X11717583Y2106202D01*
X11717444Y2106414D01*
X11715537Y2105166D01*
X11713941Y2103998D01*
X11712101Y2102884D01*
X11710233Y2101625D01*
X11710387Y2101397D01*
X11661684Y2065752D01*
X11661413Y2065531D01*
X11657947Y2062684D01*
X11545164Y1969382D01*
X11503976Y1931775D01*
X11503796Y1931959D01*
X11502188Y1930384D01*
X11500794Y1928869D01*
X11499165Y1927382D01*
X11497558Y1925764D01*
X11497755Y1925568D01*
X11457444Y1881771D01*
X11457221Y1881502D01*
X11453976Y1877555D01*
X11361464Y1764123D01*
X11328468Y1719373D01*
X11328251Y1719522D01*
X11326960Y1717637D01*
X11325863Y1715840D01*
X11324504Y1713997D01*
X11323260Y1712125D01*
X11323498Y1711967D01*
X11292126Y1660579D01*
X11291960Y1660272D01*
X11289851Y1656339D01*
X11221132Y1527098D01*
X11197370Y1476601D01*
X11197133Y1476703D01*
X11196236Y1474609D01*
X11195532Y1472695D01*
X11194593Y1470699D01*
X11193734Y1468615D01*
X11193993Y1468508D01*
X11173182Y1411910D01*
X11173079Y1411577D01*
X11171817Y1407449D01*
X11129511Y1267322D01*
X11116070Y1213407D01*
X11115808Y1213463D01*
X11115329Y1211211D01*
X11114996Y1209103D01*
X11114429Y1206827D01*
X11113996Y1204640D01*
X11114283Y1204583D01*
X11104773Y1144307D01*
X11104737Y1143960D01*
X11104376Y1140382D01*
X11090092Y994705D01*
X11087047Y932439D01*
X11087047Y932424D01*
X11086928Y930000D01*
X11086928Y180000D01*
X11089996Y117502D01*
X11090476Y112625D01*
X11114867Y-10000D01*
X11090476Y-132625D01*
X11089996Y-137502D01*
X11086928Y-200000D01*
X11086928Y-950000D01*
X11086929Y-950010D01*
X11086929Y-950175D01*
X11086945Y-954623D01*
X11087018Y-965094D01*
X11090483Y-1027208D01*
X11090596Y-1028281D01*
X11090717Y-1030565D01*
X11090754Y-1030912D01*
X11091133Y-1034383D01*
X11107449Y-1179845D01*
X11116360Y-1234882D01*
X11116107Y-1234932D01*
X11116549Y-1237163D01*
X11117049Y-1239138D01*
X11117398Y-1241296D01*
X11117867Y-1243504D01*
X11118139Y-1243446D01*
X11132878Y-1301708D01*
X11132981Y-1302041D01*
X11134355Y-1306427D01*
X11178614Y-1445949D01*
X11197984Y-1498027D01*
X11197735Y-1498129D01*
X11198598Y-1500224D01*
X11199535Y-1502198D01*
X11200366Y-1504432D01*
X11201259Y-1506515D01*
X11201529Y-1506399D01*
X11227299Y-1560684D01*
X11227465Y-1560991D01*
X11229594Y-1564895D01*
X11300111Y-1693164D01*
X11329209Y-1740452D01*
X11328982Y-1740603D01*
X11330233Y-1742487D01*
X11331565Y-1744280D01*
X11332845Y-1746360D01*
X11334128Y-1748233D01*
X11334376Y-1748063D01*
X11370410Y-1796565D01*
X11370632Y-1796833D01*
X11373219Y-1799936D01*
X11467307Y-1912067D01*
X11505171Y-1952961D01*
X11504988Y-1953143D01*
X11506595Y-1954761D01*
X11508091Y-1956114D01*
X11508432Y-1956482D01*
X11508396Y-1956518D01*
X11508402Y-1956524D01*
X11508637Y-1956703D01*
X11509618Y-1957763D01*
X11511226Y-1959338D01*
X11511428Y-1959132D01*
X11557305Y-2000620D01*
X11557570Y-2000835D01*
X11560954Y-1996663D01*
X11563189Y-1998370D01*
X11559775Y-2002616D01*
X11673844Y-2094330D01*
X11715000Y-2124231D01*
X11715001Y-10461429D01*
X11715000Y-10461439D01*
X11715000Y-10911928D01*
X10280000Y-10911928D01*
X10155518Y-10924188D01*
X10035820Y-10960498D01*
X9925506Y-11019463D01*
X9828815Y-11098815D01*
X9749463Y-11195506D01*
X9690498Y-11305820D01*
X9654188Y-11425518D01*
X9641928Y-11550000D01*
X5160157Y-11550000D01*
X9467810Y-7242347D01*
X9497764Y-7217764D01*
X9595862Y-7098233D01*
X9668754Y-6961860D01*
X9713642Y-6813887D01*
X9721020Y-6738974D01*
X9725000Y-6698561D01*
X9725000Y-6698556D01*
X9728797Y-6660000D01*
X9725000Y-6621444D01*
X9725000Y2405413D01*
X16044192Y2405413D01*
X17000000Y1449605D01*
X17955808Y2405413D01*
X17860044Y2669814D01*
X17570429Y2810704D01*
X17258892Y2892384D01*
X16937405Y2911718D01*
X16618325Y2867961D01*
X16313912Y2762795D01*
X16139956Y2669814D01*
X16044192Y2405413D01*
X9725000Y2405413D01*
X9725000Y3683000D01*
X20755000Y3683000D01*
X20755000Y3283000D01*
X20807350Y3005486D01*
X20912834Y2743517D01*
X21067399Y2507161D01*
X21265105Y2305500D01*
X21498354Y2146285D01*
X21758182Y2035633D01*
X21840961Y2018096D01*
X22063000Y2140085D01*
X22063000Y3683000D01*
X20755000Y3683000D01*
X9725000Y3683000D01*
X9725000Y4337000D01*
X20755000Y4337000D01*
X20755000Y3937000D01*
X22063000Y3937000D01*
X22063000Y5479915D01*
X21840961Y5601904D01*
X21758182Y5584367D01*
X21498354Y5473715D01*
X21265105Y5314500D01*
X21067399Y5112839D01*
X20912834Y4876483D01*
X20807350Y4614514D01*
X20755000Y4337000D01*
X9725000Y4337000D01*
X9725000Y7571289D01*
X9743937Y7590226D01*
X9857205Y7759744D01*
X9935226Y7948102D01*
X9975000Y8148061D01*
X9975000Y8351939D01*
X9935226Y8551898D01*
X9857205Y8740256D01*
X9743937Y8909774D01*
X9599774Y9053937D01*
X9430256Y9167205D01*
X9241898Y9245226D01*
X9041939Y9285000D01*
X8838061Y9285000D01*
X8638102Y9245226D01*
X8449744Y9167205D01*
X8280226Y9053937D01*
X8136063Y8909774D01*
X8022795Y8740256D01*
X7944774Y8551898D01*
X7905000Y8351939D01*
X7905000Y8148061D01*
X7944774Y7948102D01*
X8022795Y7759744D01*
X8136063Y7590226D01*
X8155000Y7571289D01*
X8155000Y7508522D01*
X8053937Y7659774D01*
X7909774Y7803937D01*
X7740256Y7917205D01*
X7551898Y7995226D01*
X7351939Y8035000D01*
X7325157Y8035000D01*
X7135000Y8225157D01*
X7135000Y10165958D01*
X18065000Y10165958D01*
X18065000Y9834042D01*
X18129754Y9508504D01*
X18256772Y9201853D01*
X18441175Y8925875D01*
X18675875Y8691175D01*
X18951853Y8506772D01*
X19258504Y8379754D01*
X19584042Y8315000D01*
X19915958Y8315000D01*
X20241496Y8379754D01*
X20548147Y8506772D01*
X20824125Y8691175D01*
X21058825Y8925875D01*
X21243228Y9201853D01*
X21370246Y9508504D01*
X21435000Y9834042D01*
X21435000Y10165958D01*
X21370246Y10491496D01*
X21243228Y10798147D01*
X21058825Y11074125D01*
X20824125Y11308825D01*
X20548147Y11493228D01*
X20241496Y11620246D01*
X19915958Y11685000D01*
X19584042Y11685000D01*
X19258504Y11620246D01*
X18951853Y11493228D01*
X18675875Y11308825D01*
X18441175Y11074125D01*
X18256772Y10798147D01*
X18129754Y10491496D01*
X18065000Y10165958D01*
X7135000Y10165958D01*
X7135000Y13450000D01*
X9641928Y13450000D01*
X9641928Y11550000D01*
X9654188Y11425518D01*
X9690498Y11305820D01*
X9749463Y11195506D01*
X9828815Y11098815D01*
X9925506Y11019463D01*
X10035820Y10960498D01*
X10155518Y10924188D01*
X10280000Y10911928D01*
X12180000Y10911928D01*
X12304482Y10924188D01*
X12424180Y10960498D01*
X12534494Y11019463D01*
X12631185Y11098815D01*
X12710537Y11195506D01*
X12769502Y11305820D01*
X12775630Y11326022D01*
X12849854Y11400246D01*
X12939579Y11140958D01*
X13220671Y11005065D01*
X13522873Y10926621D01*
X13834573Y10908641D01*
X14143791Y10951816D01*
X14438644Y11054487D01*
X14600421Y11140958D01*
X14690147Y11400248D01*
X13770000Y12320395D01*
X13755858Y12306253D01*
X13576253Y12485858D01*
X13590395Y12500000D01*
X13949605Y12500000D01*
X14869752Y11579853D01*
X15129042Y11669579D01*
X15264935Y11950671D01*
X15343379Y12252873D01*
X15361359Y12564573D01*
X15318184Y12873791D01*
X15215513Y13168644D01*
X15129042Y13330421D01*
X14869752Y13420147D01*
X13949605Y12500000D01*
X13590395Y12500000D01*
X13576253Y12514143D01*
X13755858Y12693748D01*
X13770000Y12679605D01*
X14690147Y13599752D01*
X14600421Y13859042D01*
X14319329Y13994935D01*
X14017127Y14073379D01*
X13705427Y14091359D01*
X13396209Y14048184D01*
X13101356Y13945513D01*
X12939579Y13859042D01*
X12849854Y13599754D01*
X12775630Y13673978D01*
X12769502Y13694180D01*
X12710537Y13804494D01*
X12631185Y13901185D01*
X12534494Y13980537D01*
X12424180Y14039502D01*
X12304482Y14075812D01*
X12180000Y14088072D01*
X10280000Y14088072D01*
X10155518Y14075812D01*
X10035820Y14039502D01*
X9925506Y13980537D01*
X9828815Y13901185D01*
X9749463Y13804494D01*
X9690498Y13694180D01*
X9654188Y13574482D01*
X9641928Y13450000D01*
X7135000Y13450000D01*
X7135000Y19093462D01*
X7151100Y19102068D01*
X7369607Y19281392D01*
X7548932Y19499899D01*
X7620000Y19632858D01*
X7691068Y19499900D01*
X7870392Y19281393D01*
X8088899Y19102068D01*
X8338192Y18968818D01*
X8608691Y18886764D01*
X8890000Y18859057D01*
X9171308Y18886764D01*
X9441807Y18968818D01*
X9691100Y19102068D01*
X9909607Y19281392D01*
X10088932Y19499899D01*
X10222182Y19749192D01*
X10272782Y19916000D01*
X13723843Y19916000D01*
X18135200Y15504643D01*
X18129754Y15491496D01*
X18065000Y15165958D01*
X18065000Y14834042D01*
X18129754Y14508504D01*
X18256772Y14201853D01*
X18441175Y13925875D01*
X18675875Y13691175D01*
X18951853Y13506772D01*
X19258504Y13379754D01*
X19584042Y13315000D01*
X19915958Y13315000D01*
X20241496Y13379754D01*
X20548147Y13506772D01*
X20824125Y13691175D01*
X21058825Y13925875D01*
X21243228Y14201853D01*
X21370246Y14508504D01*
X21435000Y14834042D01*
X21435000Y15165958D01*
X21370246Y15491496D01*
X21243228Y15798147D01*
X21058825Y16074125D01*
X20824125Y16308825D01*
X20548147Y16493228D01*
X20241496Y16620246D01*
X19915958Y16685000D01*
X19584042Y16685000D01*
X19258504Y16620246D01*
X19245357Y16614800D01*
X14631347Y21228810D01*
X14606764Y21258764D01*
X14487233Y21356862D01*
X14350860Y21429754D01*
X14202887Y21474641D01*
X14087561Y21486000D01*
X14087553Y21486000D01*
X14049000Y21489797D01*
X14010447Y21486000D01*
X10272782Y21486000D01*
X10222182Y21652808D01*
X10088932Y21902101D01*
X9909608Y22120608D01*
X9691101Y22299932D01*
X9441808Y22433182D01*
X9171309Y22515236D01*
X8890000Y22542943D01*
X8608692Y22515236D01*
X8338193Y22433182D01*
X8088900Y22299932D01*
X7870393Y22120608D01*
X7691068Y21902101D01*
X7620000Y21769142D01*
X7548932Y21902101D01*
X7369608Y22120608D01*
X7151101Y22299932D01*
X6901808Y22433182D01*
X6631309Y22515236D01*
X6350000Y22542943D01*
X6068692Y22515236D01*
X5798193Y22433182D01*
X5548900Y22299932D01*
X5330393Y22120608D01*
X5151068Y21902101D01*
X5080000Y21769142D01*
X5008932Y21902101D01*
X4829608Y22120608D01*
X4611101Y22299932D01*
X4361808Y22433182D01*
X4091309Y22515236D01*
X3810000Y22542943D01*
X3528692Y22515236D01*
X3258193Y22433182D01*
X3008900Y22299932D01*
X2790393Y22120608D01*
X2611068Y21902101D01*
X2540000Y21769142D01*
X2468932Y21902101D01*
X2289608Y22120608D01*
X2071101Y22299932D01*
X1821808Y22433182D01*
X1551309Y22515236D01*
X1436684Y22526526D01*
X1725158Y22815000D01*
X14774823Y22815000D01*
X28964990Y8624833D01*
X28964991Y5372897D01*
X28790392Y5229607D01*
X28611068Y5011100D01*
X28540000Y4878142D01*
X28468932Y5011101D01*
X28289607Y5229608D01*
X28071100Y5408932D01*
X27821807Y5542182D01*
X27551308Y5624236D01*
X27270000Y5651943D01*
X26988691Y5624236D01*
X26718192Y5542182D01*
X26468899Y5408932D01*
X26250392Y5229607D01*
X26071068Y5011100D01*
X26000000Y4878142D01*
X25928932Y5011101D01*
X25749607Y5229608D01*
X25531100Y5408932D01*
X25281807Y5542182D01*
X25011308Y5624236D01*
X24730000Y5651943D01*
X24448691Y5624236D01*
X24178192Y5542182D01*
X23928899Y5408932D01*
X23710392Y5229607D01*
X23531068Y5011100D01*
X23462735Y4883258D01*
X23312601Y5112839D01*
X23114895Y5314500D01*
X22881646Y5473715D01*
X22621818Y5584367D01*
X22539039Y5601904D01*
X22317000Y5479915D01*
X22317000Y3937000D01*
X22337000Y3937000D01*
X22337000Y3683000D01*
X22317000Y3683000D01*
X22317000Y2140085D01*
X22539039Y2018096D01*
X22621818Y2035633D01*
X22715000Y2075316D01*
X22715000Y-1971928D01*
X21390000Y-1971928D01*
X21265518Y-1984188D01*
X21145820Y-2020498D01*
X21035506Y-2079463D01*
X20938815Y-2158815D01*
X20859463Y-2255506D01*
X20800498Y-2365820D01*
X20764188Y-2485518D01*
X20751928Y-2610000D01*
X20751928Y-5010000D01*
X20764188Y-5134482D01*
X20800498Y-5254180D01*
X20859463Y-5364494D01*
X20938815Y-5461185D01*
X21035506Y-5540537D01*
X21145820Y-5599502D01*
X21265518Y-5635812D01*
X21390000Y-5648072D01*
X22715001Y-5648072D01*
X22715001Y-10924841D01*
X20254643Y-13385200D01*
X20241496Y-13379754D01*
X19915958Y-13315000D01*
X19584042Y-13315000D01*
X19258504Y-13379754D01*
X18951853Y-13506772D01*
X18675875Y-13691175D01*
X18441175Y-13925875D01*
X18256772Y-14201853D01*
X18129754Y-14508504D01*
X18065000Y-14834042D01*
X18065000Y-15165958D01*
X18129754Y-15491496D01*
X18256772Y-15798147D01*
X18441175Y-16074125D01*
X18675875Y-16308825D01*
X18951853Y-16493228D01*
X19258504Y-16620246D01*
X19584042Y-16685000D01*
X19915958Y-16685000D01*
X20241496Y-16620246D01*
X20548147Y-16493228D01*
X20824125Y-16308825D01*
X21058825Y-16074125D01*
X21243228Y-15798147D01*
X21370246Y-15491496D01*
X21435000Y-15165958D01*
X21435000Y-14834042D01*
X21370246Y-14508504D01*
X21364800Y-14495357D01*
X23922346Y-11937812D01*
X23922352Y-11937805D01*
X24027806Y-11832350D01*
X24057764Y-11807764D01*
X24155862Y-11688233D01*
X24228754Y-11551860D01*
X24247634Y-11489621D01*
X24273642Y-11403887D01*
X24283300Y-11305820D01*
X24285000Y-11288561D01*
X24285000Y-11288556D01*
X24288797Y-11250000D01*
X24285000Y-11211444D01*
X24285000Y-9834042D01*
X30565000Y-9834042D01*
X30565000Y-10165958D01*
X30629754Y-10491496D01*
X30756772Y-10798147D01*
X30941175Y-11074125D01*
X31175875Y-11308825D01*
X31451853Y-11493228D01*
X31758504Y-11620246D01*
X32084042Y-11685000D01*
X32415958Y-11685000D01*
X32741496Y-11620246D01*
X33048147Y-11493228D01*
X33324125Y-11308825D01*
X33558825Y-11074125D01*
X33743228Y-10798147D01*
X33870246Y-10491496D01*
X33935000Y-10165958D01*
X33935000Y-9834042D01*
X33870246Y-9508504D01*
X33743228Y-9201853D01*
X33558825Y-8925875D01*
X33324125Y-8691175D01*
X33048147Y-8506772D01*
X32741496Y-8379754D01*
X32415958Y-8315000D01*
X32084042Y-8315000D01*
X31758504Y-8379754D01*
X31451853Y-8506772D01*
X31175875Y-8691175D01*
X30941175Y-8925875D01*
X30756772Y-9201853D01*
X30629754Y-9508504D01*
X30565000Y-9834042D01*
X24285000Y-9834042D01*
X24285000Y-5574581D01*
X24448692Y-5624236D01*
X24730000Y-5651943D01*
X25011309Y-5624236D01*
X25281808Y-5542182D01*
X25531101Y-5408932D01*
X25749608Y-5229608D01*
X25928932Y-5011101D01*
X26000000Y-4878142D01*
X26071068Y-5011101D01*
X26250393Y-5229608D01*
X26468900Y-5408932D01*
X26718193Y-5542182D01*
X26988692Y-5624236D01*
X27270000Y-5651943D01*
X27551309Y-5624236D01*
X27821808Y-5542182D01*
X28071101Y-5408932D01*
X28289608Y-5229608D01*
X28468932Y-5011101D01*
X28540000Y-4878142D01*
X28611068Y-5011101D01*
X28790393Y-5229608D01*
X29008900Y-5408932D01*
X29258193Y-5542182D01*
X29528692Y-5624236D01*
X29810000Y-5651943D01*
X30091309Y-5624236D01*
X30361808Y-5542182D01*
X30611101Y-5408932D01*
X30829608Y-5229608D01*
X31008932Y-5011101D01*
X31142182Y-4761808D01*
X31224236Y-4491309D01*
X31245000Y-4280491D01*
X31245000Y-3339508D01*
X31224236Y-3128691D01*
X31142182Y-2858192D01*
X31008932Y-2608899D01*
X30829607Y-2390392D01*
X30611100Y-2211068D01*
X30361807Y-2077818D01*
X30091308Y-1995764D01*
X29930256Y-1979901D01*
X35777817Y3867659D01*
X35807764Y3892236D01*
X35844502Y3937000D01*
X35864566Y3961449D01*
X35905862Y4011767D01*
X35978754Y4148140D01*
X36018902Y4280491D01*
X36023641Y4296112D01*
X36030698Y4367764D01*
X36035000Y4411439D01*
X36035000Y4411446D01*
X36038797Y4449999D01*
X36035000Y4488552D01*
X36035000Y11961444D01*
X36038797Y12000000D01*
X36035000Y12038556D01*
X36035000Y12038561D01*
X36031020Y12078974D01*
X36023642Y12153887D01*
X35978754Y12301860D01*
X35968847Y12320395D01*
X35905862Y12438233D01*
X35807764Y12557764D01*
X35777810Y12582347D01*
X33864800Y14495357D01*
X33870246Y14508504D01*
X33935000Y14834042D01*
X33935000Y15165958D01*
X33870246Y15491496D01*
X33743228Y15798147D01*
X33558825Y16074125D01*
X33324125Y16308825D01*
X33048147Y16493228D01*
X32741496Y16620246D01*
X32415958Y16685000D01*
X32084042Y16685000D01*
X31758504Y16620246D01*
X31745357Y16614800D01*
X31035000Y17325157D01*
X31035000Y19308123D01*
X31292252Y19480013D01*
X31519987Y19707748D01*
X31698918Y19975537D01*
X31822168Y20273088D01*
X31885000Y20588967D01*
X31885000Y20911033D01*
X31822168Y21226912D01*
X31698918Y21524463D01*
X31519987Y21792252D01*
X31292252Y22019987D01*
X31024463Y22198918D01*
X30726912Y22322168D01*
X30411033Y22385000D01*
X30088967Y22385000D01*
X29773088Y22322168D01*
X29475537Y22198918D01*
X29207748Y22019987D01*
X28980013Y21792252D01*
X28801082Y21524463D01*
X28677832Y21226912D01*
X28615000Y20911033D01*
X28615000Y20588967D01*
X28677832Y20273088D01*
X28801082Y19975537D01*
X28980013Y19707748D01*
X29207748Y19480013D01*
X29465001Y19308122D01*
X29465000Y17038553D01*
X29461203Y17000000D01*
X29465000Y16961447D01*
X29465000Y16961440D01*
X29476359Y16846114D01*
X29521246Y16698141D01*
X29594138Y16561768D01*
X29692236Y16442236D01*
X29722190Y16417653D01*
X30635200Y15504643D01*
X30629754Y15491496D01*
X30565000Y15165958D01*
X30565000Y14834042D01*
X30629754Y14508504D01*
X30756772Y14201853D01*
X30941175Y13925875D01*
X31175875Y13691175D01*
X31451853Y13506772D01*
X31758504Y13379754D01*
X32084042Y13315000D01*
X32415958Y13315000D01*
X32741496Y13379754D01*
X32754643Y13385200D01*
X34465001Y11674842D01*
X34465000Y4775158D01*
X27660850Y-2028993D01*
X27551308Y-1995764D01*
X27270000Y-1968057D01*
X26988691Y-1995764D01*
X26718192Y-2077818D01*
X26468899Y-2211068D01*
X26250392Y-2390393D01*
X26071068Y-2608900D01*
X26000000Y-2741858D01*
X25928932Y-2608899D01*
X25749607Y-2390392D01*
X25531100Y-2211068D01*
X25281807Y-2077818D01*
X25011308Y-1995764D01*
X24730000Y-1968057D01*
X24448691Y-1995764D01*
X24285000Y-2045419D01*
X24285000Y1924843D01*
X24377513Y2017356D01*
X24448692Y1995764D01*
X24730000Y1968057D01*
X25011309Y1995764D01*
X25281808Y2077818D01*
X25531101Y2211068D01*
X25749608Y2390392D01*
X25928932Y2608899D01*
X26000000Y2741858D01*
X26071068Y2608899D01*
X26250393Y2390392D01*
X26468900Y2211068D01*
X26718193Y2077818D01*
X26775273Y2060503D01*
X26831768Y2014138D01*
X26968141Y1941246D01*
X27116114Y1896359D01*
X27270000Y1881202D01*
X27423887Y1896359D01*
X27571860Y1941246D01*
X27708233Y2014138D01*
X27764728Y2060503D01*
X27821808Y2077818D01*
X28071101Y2211068D01*
X28289608Y2390392D01*
X28468932Y2608899D01*
X28540000Y2741858D01*
X28611068Y2608899D01*
X28790393Y2390392D01*
X29008900Y2211068D01*
X29258193Y2077818D01*
X29528692Y1995764D01*
X29810000Y1968057D01*
X30091309Y1995764D01*
X30361808Y2077818D01*
X30611101Y2211068D01*
X30829608Y2390392D01*
X31008932Y2608899D01*
X31142182Y2858192D01*
X31224236Y3128691D01*
X31245000Y3339509D01*
X31245000Y4280492D01*
X31224236Y4491309D01*
X31142182Y4761808D01*
X31008932Y5011101D01*
X30829607Y5229608D01*
X30611100Y5408932D01*
X30534990Y5449614D01*
X30534990Y8911434D01*
X30538787Y8949990D01*
X30534990Y8988550D01*
X30534990Y8988551D01*
X30528550Y9053937D01*
X30523632Y9103877D01*
X30478744Y9251850D01*
X30461025Y9285000D01*
X30405852Y9388223D01*
X30307754Y9507754D01*
X30277801Y9532336D01*
X29644179Y10165958D01*
X30565000Y10165958D01*
X30565000Y9834042D01*
X30629754Y9508504D01*
X30756772Y9201853D01*
X30941175Y8925875D01*
X31175875Y8691175D01*
X31451853Y8506772D01*
X31758504Y8379754D01*
X32084042Y8315000D01*
X32415958Y8315000D01*
X32741496Y8379754D01*
X33048147Y8506772D01*
X33324125Y8691175D01*
X33558825Y8925875D01*
X33743228Y9201853D01*
X33870246Y9508504D01*
X33935000Y9834042D01*
X33935000Y10165958D01*
X33870246Y10491496D01*
X33743228Y10798147D01*
X33558825Y11074125D01*
X33324125Y11308825D01*
X33048147Y11493228D01*
X32741496Y11620246D01*
X32415958Y11685000D01*
X32084042Y11685000D01*
X31758504Y11620246D01*
X31451853Y11493228D01*
X31175875Y11308825D01*
X30941175Y11074125D01*
X30756772Y10798147D01*
X30629754Y10491496D01*
X30565000Y10165958D01*
X29644179Y10165958D01*
X18899104Y20911033D01*
X20115000Y20911033D01*
X20115000Y20588967D01*
X20177832Y20273088D01*
X20301082Y19975537D01*
X20480013Y19707748D01*
X20707748Y19480013D01*
X20975537Y19301082D01*
X21273088Y19177832D01*
X21588967Y19115000D01*
X21911033Y19115000D01*
X22226912Y19177832D01*
X22524463Y19301082D01*
X22792252Y19480013D01*
X23019987Y19707748D01*
X23198918Y19975537D01*
X23322168Y20273088D01*
X23385000Y20588967D01*
X23385000Y20911033D01*
X23322168Y21226912D01*
X23198918Y21524463D01*
X23019987Y21792252D01*
X22792252Y22019987D01*
X22524463Y22198918D01*
X22226912Y22322168D01*
X21911033Y22385000D01*
X21588967Y22385000D01*
X21273088Y22322168D01*
X20975537Y22198918D01*
X20707748Y22019987D01*
X20480013Y21792252D01*
X20301082Y21524463D01*
X20177832Y21226912D01*
X20115000Y20911033D01*
X18899104Y20911033D01*
X15682327Y24127810D01*
X15657744Y24157764D01*
X15538213Y24255862D01*
X15401840Y24328754D01*
X15253867Y24373641D01*
X15138541Y24385000D01*
X15138533Y24385000D01*
X15099980Y24388797D01*
X15061427Y24385000D01*
X1438552Y24385000D01*
X1399999Y24388797D01*
X1361446Y24385000D01*
X1361439Y24385000D01*
X1260490Y24375057D01*
X1246112Y24373641D01*
X1211672Y24363194D01*
X1098140Y24328754D01*
X961767Y24255862D01*
X908770Y24212368D01*
X872187Y24182345D01*
X872184Y24182342D01*
X842236Y24157764D01*
X817658Y24127816D01*
X-840020Y22470138D01*
X-988691Y22515236D01*
X-1270000Y22542943D01*
X-1551308Y22515236D01*
X-1821807Y22433182D01*
X-2071100Y22299932D01*
X-2289607Y22120608D01*
X-2468932Y21902101D01*
X-2537265Y21774259D01*
X-2687399Y22003839D01*
X-2885105Y22205500D01*
X-3118354Y22364715D01*
X-3378182Y22475367D01*
X-3460961Y22492904D01*
X-3683000Y22370915D01*
X-3683000Y20828000D01*
X-3663000Y20828000D01*
X-3663000Y20574000D01*
X-3683000Y20574000D01*
X-3683000Y19031085D01*
X-3460961Y18909096D01*
X-3378182Y18926633D01*
X-3118354Y19037285D01*
X-3034999Y19094183D01*
X-3035000Y4475158D01*
X-18220334Y-10710177D01*
X-18129754Y-10491496D01*
X-18065000Y-10165958D01*
X-18065000Y-9834042D01*
X-18129754Y-9508504D01*
X-18256772Y-9201853D01*
X-18441175Y-8925875D01*
X-18675875Y-8691175D01*
X-18951853Y-8506772D01*
X-19258504Y-8379754D01*
X-19584042Y-8315000D01*
X-19915958Y-8315000D01*
X-20241496Y-8379754D01*
X-20548147Y-8506772D01*
X-20824125Y-8691175D01*
X-21058825Y-8925875D01*
X-21243228Y-9201853D01*
X-21370246Y-9508504D01*
X-21435000Y-9834042D01*
X-30565000Y-9834042D01*
X-30629754Y-9508504D01*
X-30756772Y-9201853D01*
X-30941175Y-8925875D01*
X-31175875Y-8691175D01*
X-31451853Y-8506772D01*
X-31758504Y-8379754D01*
X-32084042Y-8315000D01*
X-32415958Y-8315000D01*
X-32741496Y-8379754D01*
X-33048147Y-8506772D01*
X-33324125Y-8691175D01*
X-33558825Y-8925875D01*
X-33743228Y-9201853D01*
X-33870246Y-9508504D01*
X-33935000Y-9834042D01*
X-42040000Y-9834042D01*
X-42040000Y-2088967D01*
X-21885000Y-2088967D01*
X-21885000Y-2411033D01*
X-21822168Y-2726912D01*
X-21698918Y-3024463D01*
X-21519987Y-3292252D01*
X-21292252Y-3519987D01*
X-21024463Y-3698918D01*
X-20726912Y-3822168D01*
X-20411033Y-3885000D01*
X-20088967Y-3885000D01*
X-19773088Y-3822168D01*
X-19475537Y-3698918D01*
X-19207748Y-3519987D01*
X-18980013Y-3292252D01*
X-18801082Y-3024463D01*
X-18677832Y-2726912D01*
X-18615000Y-2411033D01*
X-18615000Y-2088967D01*
X-15385000Y-2088967D01*
X-15385000Y-2411033D01*
X-15322168Y-2726912D01*
X-15198918Y-3024463D01*
X-15019987Y-3292252D01*
X-14792252Y-3519987D01*
X-14524463Y-3698918D01*
X-14226912Y-3822168D01*
X-13911033Y-3885000D01*
X-13588967Y-3885000D01*
X-13273088Y-3822168D01*
X-12975537Y-3698918D01*
X-12707748Y-3519987D01*
X-12480013Y-3292252D01*
X-12301082Y-3024463D01*
X-12177832Y-2726912D01*
X-12115000Y-2411033D01*
X-12115000Y-2088967D01*
X-12177832Y-1773088D01*
X-12301082Y-1475537D01*
X-12480013Y-1207748D01*
X-12707748Y-980013D01*
X-12975537Y-801082D01*
X-13273088Y-677832D01*
X-13588967Y-615000D01*
X-13911033Y-615000D01*
X-14226912Y-677832D01*
X-14524463Y-801082D01*
X-14792252Y-980013D01*
X-15019987Y-1207748D01*
X-15198918Y-1475537D01*
X-15322168Y-1773088D01*
X-15385000Y-2088967D01*
X-18615000Y-2088967D01*
X-18677832Y-1773088D01*
X-18801082Y-1475537D01*
X-18980013Y-1207748D01*
X-19207748Y-980013D01*
X-19475537Y-801082D01*
X-19773088Y-677832D01*
X-20088967Y-615000D01*
X-20411033Y-615000D01*
X-20726912Y-677832D01*
X-21024463Y-801082D01*
X-21292252Y-980013D01*
X-21519987Y-1207748D01*
X-21698918Y-1475537D01*
X-21822168Y-1773088D01*
X-21885000Y-2088967D01*
X-42040000Y-2088967D01*
X-42040000Y2411033D01*
X-21885000Y2411033D01*
X-21885000Y2088967D01*
X-21822168Y1773088D01*
X-21698918Y1475537D01*
X-21519987Y1207748D01*
X-21292252Y980013D01*
X-21024463Y801082D01*
X-20726912Y677832D01*
X-20411033Y615000D01*
X-20088967Y615000D01*
X-19773088Y677832D01*
X-19475537Y801082D01*
X-19207748Y980013D01*
X-18980013Y1207748D01*
X-18801082Y1475537D01*
X-18677832Y1773088D01*
X-18615000Y2088967D01*
X-18615000Y2411033D01*
X-15385000Y2411033D01*
X-15385000Y2088967D01*
X-15322168Y1773088D01*
X-15198918Y1475537D01*
X-15019987Y1207748D01*
X-14792252Y980013D01*
X-14524463Y801082D01*
X-14226912Y677832D01*
X-13911033Y615000D01*
X-13588967Y615000D01*
X-13273088Y677832D01*
X-12975537Y801082D01*
X-12707748Y980013D01*
X-12480013Y1207748D01*
X-12301082Y1475537D01*
X-12177832Y1773088D01*
X-12115000Y2088967D01*
X-12115000Y2411033D01*
X-12175360Y2714483D01*
X-8362184Y6527658D01*
X-8332236Y6552236D01*
X-8234138Y6671767D01*
X-8161246Y6808140D01*
X-8149727Y6846113D01*
X-8116358Y6956113D01*
X-8108980Y7031026D01*
X-8105000Y7071439D01*
X-8105000Y7071444D01*
X-8101203Y7110000D01*
X-8105000Y7148556D01*
X-8105000Y19093462D01*
X-8088900Y19102068D01*
X-7870393Y19281392D01*
X-7691068Y19499899D01*
X-7620000Y19632858D01*
X-7548932Y19499900D01*
X-7369608Y19281393D01*
X-7151101Y19102068D01*
X-6901808Y18968818D01*
X-6631309Y18886764D01*
X-6350000Y18859057D01*
X-6068692Y18886764D01*
X-5798193Y18968818D01*
X-5548900Y19102068D01*
X-5330393Y19281392D01*
X-5151068Y19499899D01*
X-5082735Y19627741D01*
X-4932601Y19398161D01*
X-4734895Y19196500D01*
X-4501646Y19037285D01*
X-4241818Y18926633D01*
X-4159039Y18909096D01*
X-3937000Y19031085D01*
X-3937000Y20574000D01*
X-3957000Y20574000D01*
X-3957000Y20828000D01*
X-3937000Y20828000D01*
X-3937000Y22370915D01*
X-4159039Y22492904D01*
X-4241818Y22475367D01*
X-4501646Y22364715D01*
X-4734895Y22205500D01*
X-4932601Y22003839D01*
X-5082735Y21774259D01*
X-5151068Y21902101D01*
X-5330392Y22120608D01*
X-5548899Y22299932D01*
X-5798192Y22433182D01*
X-6068691Y22515236D01*
X-6350000Y22542943D01*
X-6631308Y22515236D01*
X-6901807Y22433182D01*
X-7151100Y22299932D01*
X-7369607Y22120608D01*
X-7548932Y21902101D01*
X-7620000Y21769142D01*
X-7691068Y21902101D01*
X-7870392Y22120608D01*
X-8088899Y22299932D01*
X-8338192Y22433182D01*
X-8608691Y22515236D01*
X-8890000Y22542943D01*
X-9171308Y22515236D01*
X-9441807Y22433182D01*
X-9691100Y22299932D01*
X-9909607Y22120608D01*
X-10088932Y21902101D01*
X-10222182Y21652808D01*
X-10304236Y21382309D01*
X-10325000Y21171492D01*
X-10325000Y20230509D01*
X-10304236Y20019692D01*
X-10222182Y19749193D01*
X-10088932Y19499900D01*
X-9909608Y19281393D01*
X-9691101Y19102068D01*
X-9675000Y19093462D01*
X-9674999Y12824968D01*
X-9681816Y12873791D01*
X-9784487Y13168644D01*
X-9870958Y13330421D01*
X-10130248Y13420147D01*
X-11050395Y12500000D01*
X-10130248Y11579853D01*
X-9870958Y11669579D01*
X-9735065Y11950671D01*
X-9675000Y12182069D01*
X-9674999Y7435159D01*
X-13285517Y3824640D01*
X-13588967Y3885000D01*
X-13911033Y3885000D01*
X-14226912Y3822168D01*
X-14524463Y3698918D01*
X-14792252Y3519987D01*
X-15019987Y3292252D01*
X-15198918Y3024463D01*
X-15322168Y2726912D01*
X-15385000Y2411033D01*
X-18615000Y2411033D01*
X-18677832Y2726912D01*
X-18801082Y3024463D01*
X-18980013Y3292252D01*
X-19207748Y3519987D01*
X-19475537Y3698918D01*
X-19773088Y3822168D01*
X-20088967Y3885000D01*
X-20411033Y3885000D01*
X-20726912Y3822168D01*
X-21024463Y3698918D01*
X-21292252Y3519987D01*
X-21519987Y3292252D01*
X-21698918Y3024463D01*
X-21822168Y2726912D01*
X-21885000Y2411033D01*
X-42040000Y2411033D01*
X-42040000Y10165958D01*
X-33935000Y10165958D01*
X-33935000Y9834042D01*
X-33870246Y9508504D01*
X-33743228Y9201853D01*
X-33558825Y8925875D01*
X-33324125Y8691175D01*
X-33048147Y8506772D01*
X-32741496Y8379754D01*
X-32415958Y8315000D01*
X-32084042Y8315000D01*
X-31758504Y8379754D01*
X-31451853Y8506772D01*
X-31175875Y8691175D01*
X-30941175Y8925875D01*
X-30756772Y9201853D01*
X-30629754Y9508504D01*
X-30565000Y9834042D01*
X-30565000Y10165958D01*
X-21435000Y10165958D01*
X-21435000Y9834042D01*
X-21370246Y9508504D01*
X-21243228Y9201853D01*
X-21058825Y8925875D01*
X-20824125Y8691175D01*
X-20548147Y8506772D01*
X-20241496Y8379754D01*
X-19915958Y8315000D01*
X-19584042Y8315000D01*
X-19258504Y8379754D01*
X-18951853Y8506772D01*
X-18675875Y8691175D01*
X-18441175Y8925875D01*
X-18256772Y9201853D01*
X-18129754Y9508504D01*
X-18065000Y9834042D01*
X-18065000Y10165958D01*
X-18129754Y10491496D01*
X-18256772Y10798147D01*
X-18441175Y11074125D01*
X-18675875Y11308825D01*
X-18951853Y11493228D01*
X-19258504Y11620246D01*
X-19584042Y11685000D01*
X-19915958Y11685000D01*
X-20241496Y11620246D01*
X-20548147Y11493228D01*
X-20824125Y11308825D01*
X-21058825Y11074125D01*
X-21243228Y10798147D01*
X-21370246Y10491496D01*
X-21435000Y10165958D01*
X-30565000Y10165958D01*
X-30629754Y10491496D01*
X-30756772Y10798147D01*
X-30941175Y11074125D01*
X-31175875Y11308825D01*
X-31451853Y11493228D01*
X-31758504Y11620246D01*
X-32084042Y11685000D01*
X-32415958Y11685000D01*
X-32741496Y11620246D01*
X-33048147Y11493228D01*
X-33324125Y11308825D01*
X-33558825Y11074125D01*
X-33743228Y10798147D01*
X-33870246Y10491496D01*
X-33935000Y10165958D01*
X-42040000Y10165958D01*
X-42040000Y15165958D01*
X-33935000Y15165958D01*
X-33935000Y14834042D01*
X-33870246Y14508504D01*
X-33743228Y14201853D01*
X-33558825Y13925875D01*
X-33324125Y13691175D01*
X-33048147Y13506772D01*
X-32741496Y13379754D01*
X-32415958Y13315000D01*
X-32084042Y13315000D01*
X-31758504Y13379754D01*
X-31451853Y13506772D01*
X-31175875Y13691175D01*
X-30941175Y13925875D01*
X-30756772Y14201853D01*
X-30629754Y14508504D01*
X-30565000Y14834042D01*
X-30565000Y15165958D01*
X-21435000Y15165958D01*
X-21435000Y14834042D01*
X-21370246Y14508504D01*
X-21243228Y14201853D01*
X-21058825Y13925875D01*
X-20824125Y13691175D01*
X-20548147Y13506772D01*
X-20241496Y13379754D01*
X-19915958Y13315000D01*
X-19584042Y13315000D01*
X-19258504Y13379754D01*
X-18951853Y13506772D01*
X-18675875Y13691175D01*
X-18441175Y13925875D01*
X-18256772Y14201853D01*
X-18129754Y14508504D01*
X-18065000Y14834042D01*
X-18065000Y15165958D01*
X-18129754Y15491496D01*
X-18256772Y15798147D01*
X-18441175Y16074125D01*
X-18675875Y16308825D01*
X-18951853Y16493228D01*
X-19258504Y16620246D01*
X-19584042Y16685000D01*
X-19915958Y16685000D01*
X-20241496Y16620246D01*
X-20548147Y16493228D01*
X-20824125Y16308825D01*
X-21058825Y16074125D01*
X-21243228Y15798147D01*
X-21370246Y15491496D01*
X-21435000Y15165958D01*
X-30565000Y15165958D01*
X-30629754Y15491496D01*
X-30635200Y15504643D01*
X-29722184Y16417658D01*
X-29692236Y16442236D01*
X-29667654Y16472188D01*
X-29643550Y16501559D01*
X-29594138Y16561767D01*
X-29521246Y16698140D01*
X-29476359Y16846113D01*
X-29465000Y16961439D01*
X-29465000Y16961446D01*
X-29461203Y16999999D01*
X-29465000Y17038552D01*
X-29465000Y19308123D01*
X-29207748Y19480013D01*
X-28980013Y19707748D01*
X-28801082Y19975537D01*
X-28677832Y20273088D01*
X-28615000Y20588967D01*
X-28615000Y20911033D01*
X-23385000Y20911033D01*
X-23385000Y20588967D01*
X-23322168Y20273088D01*
X-23198918Y19975537D01*
X-23019987Y19707748D01*
X-22792252Y19480013D01*
X-22524463Y19301082D01*
X-22226912Y19177832D01*
X-21911033Y19115000D01*
X-21588967Y19115000D01*
X-21273088Y19177832D01*
X-20975537Y19301082D01*
X-20707748Y19480013D01*
X-20480013Y19707748D01*
X-20301082Y19975537D01*
X-20284736Y20015000D01*
X-19325157Y20015000D01*
X-14554999Y15244841D01*
X-14554999Y14088072D01*
X-14720000Y14088072D01*
X-14844482Y14075812D01*
X-14964180Y14039502D01*
X-15074494Y13980537D01*
X-15171185Y13901185D01*
X-15250537Y13804494D01*
X-15309502Y13694180D01*
X-15345812Y13574482D01*
X-15358072Y13450000D01*
X-15358072Y11550000D01*
X-15345812Y11425518D01*
X-15309502Y11305820D01*
X-15250537Y11195506D01*
X-15171185Y11098815D01*
X-15074494Y11019463D01*
X-14964180Y10960498D01*
X-14844482Y10924188D01*
X-14720000Y10911928D01*
X-12820000Y10911928D01*
X-12695518Y10924188D01*
X-12575820Y10960498D01*
X-12465506Y11019463D01*
X-12368815Y11098815D01*
X-12289463Y11195506D01*
X-12230498Y11305820D01*
X-12224370Y11326022D01*
X-12150146Y11400246D01*
X-12060421Y11140958D01*
X-11779329Y11005065D01*
X-11477127Y10926621D01*
X-11165427Y10908641D01*
X-10856209Y10951816D01*
X-10561356Y11054487D01*
X-10399579Y11140958D01*
X-10309853Y11400248D01*
X-11230000Y12320395D01*
X-11244143Y12306253D01*
X-11423748Y12485858D01*
X-11409605Y12500000D01*
X-11423748Y12514143D01*
X-11244143Y12693748D01*
X-11230000Y12679605D01*
X-10309853Y13599752D01*
X-10399579Y13859042D01*
X-10680671Y13994935D01*
X-10982873Y14073379D01*
X-11294573Y14091359D01*
X-11603791Y14048184D01*
X-11898644Y13945513D01*
X-12060421Y13859042D01*
X-12150146Y13599754D01*
X-12224370Y13673978D01*
X-12230498Y13694180D01*
X-12289463Y13804494D01*
X-12368815Y13901185D01*
X-12465506Y13980537D01*
X-12575820Y14039502D01*
X-12695518Y14075812D01*
X-12820000Y14088072D01*
X-12985000Y14088072D01*
X-12985000Y15531445D01*
X-12981203Y15570000D01*
X-12985000Y15608556D01*
X-12985000Y15608561D01*
X-12989659Y15655861D01*
X-12996358Y15723887D01*
X-13041246Y15871860D01*
X-13114138Y16008233D01*
X-13212236Y16127764D01*
X-13242184Y16152342D01*
X-18417653Y21327810D01*
X-18442236Y21357764D01*
X-18561767Y21455862D01*
X-18698140Y21528754D01*
X-18846113Y21573641D01*
X-18961439Y21585000D01*
X-18961447Y21585000D01*
X-19000000Y21588797D01*
X-19038553Y21585000D01*
X-20341532Y21585000D01*
X-20480013Y21792252D01*
X-20707748Y22019987D01*
X-20975537Y22198918D01*
X-21273088Y22322168D01*
X-21588967Y22385000D01*
X-21911033Y22385000D01*
X-22226912Y22322168D01*
X-22524463Y22198918D01*
X-22792252Y22019987D01*
X-23019987Y21792252D01*
X-23198918Y21524463D01*
X-23322168Y21226912D01*
X-23385000Y20911033D01*
X-28615000Y20911033D01*
X-28677832Y21226912D01*
X-28801082Y21524463D01*
X-28980013Y21792252D01*
X-29207748Y22019987D01*
X-29475537Y22198918D01*
X-29773088Y22322168D01*
X-30088967Y22385000D01*
X-30411033Y22385000D01*
X-30726912Y22322168D01*
X-31024463Y22198918D01*
X-31292252Y22019987D01*
X-31519987Y21792252D01*
X-31698918Y21524463D01*
X-31822168Y21226912D01*
X-31885000Y20911033D01*
X-31885000Y20588967D01*
X-31822168Y20273088D01*
X-31698918Y19975537D01*
X-31519987Y19707748D01*
X-31292252Y19480013D01*
X-31035000Y19308122D01*
X-31034999Y17325159D01*
X-31745357Y16614800D01*
X-31758504Y16620246D01*
X-32084042Y16685000D01*
X-32415958Y16685000D01*
X-32741496Y16620246D01*
X-33048147Y16493228D01*
X-33324125Y16308825D01*
X-33558825Y16074125D01*
X-33743228Y15798147D01*
X-33870246Y15491496D01*
X-33935000Y15165958D01*
X-42040000Y15165958D01*
X-42040000Y22965267D01*
X-41974001Y23638370D01*
X-41788609Y24252421D01*
X-41487475Y24818771D01*
X-41082072Y25315846D01*
X-40587843Y25724708D01*
X-40023606Y26029790D01*
X-39410865Y26219466D01*
X-38739796Y26289999D01*
X38715290Y26289999D01*
X39388370Y26224002D01*
G37*
X39388370Y26224002D02*
X40002423Y26038608D01*
X40568773Y25737475D01*
X41065847Y25332072D01*
X41474710Y24837841D01*
X41779791Y24273607D01*
X41969467Y23660863D01*
X42040001Y22989786D01*
X42040000Y-22965280D01*
X41974004Y-23638366D01*
X41788607Y-24252428D01*
X41487474Y-24818775D01*
X41082071Y-25315847D01*
X40587842Y-25724710D01*
X40023611Y-26029790D01*
X39410862Y-26219467D01*
X38739787Y-26290000D01*
X-38715280Y-26290000D01*
X-39388366Y-26224004D01*
X-40002428Y-26038607D01*
X-40568775Y-25737474D01*
X-41065847Y-25332071D01*
X-41474710Y-24837842D01*
X-41779790Y-24273611D01*
X-41969467Y-23660862D01*
X-42040000Y-22989787D01*
X-42040000Y-14834042D01*
X-33935000Y-14834042D01*
X-33935000Y-15165958D01*
X-33870246Y-15491496D01*
X-33743228Y-15798147D01*
X-33558825Y-16074125D01*
X-33324125Y-16308825D01*
X-33048147Y-16493228D01*
X-32741496Y-16620246D01*
X-32415958Y-16685000D01*
X-32084042Y-16685000D01*
X-31758504Y-16620246D01*
X-31745357Y-16614800D01*
X-31034999Y-17325159D01*
X-31035000Y-19308122D01*
X-31292252Y-19480013D01*
X-31519987Y-19707748D01*
X-31698918Y-19975537D01*
X-31822168Y-20273088D01*
X-31885000Y-20588967D01*
X-31885000Y-20911033D01*
X-31822168Y-21226912D01*
X-31698918Y-21524463D01*
X-31519987Y-21792252D01*
X-31292252Y-22019987D01*
X-31024463Y-22198918D01*
X-30726912Y-22322168D01*
X-30411033Y-22385000D01*
X-30088967Y-22385000D01*
X-29773088Y-22322168D01*
X-29475537Y-22198918D01*
X-29207748Y-22019987D01*
X-28980013Y-21792252D01*
X-28801082Y-21524463D01*
X-28677832Y-21226912D01*
X-28615000Y-20911033D01*
X-28615000Y-20588967D01*
X-23385000Y-20588967D01*
X-23385000Y-20911033D01*
X-23322168Y-21226912D01*
X-23198918Y-21524463D01*
X-23019987Y-21792252D01*
X-22792252Y-22019987D01*
X-22524463Y-22198918D01*
X-22226912Y-22322168D01*
X-21911033Y-22385000D01*
X-21588967Y-22385000D01*
X-21273088Y-22322168D01*
X-20975537Y-22198918D01*
X-20707748Y-22019987D01*
X-20480013Y-21792252D01*
X-20301082Y-21524463D01*
X-20177832Y-21226912D01*
X-20150394Y-21088967D01*
X6365000Y-21088967D01*
X6365000Y-21411033D01*
X6427832Y-21726912D01*
X6551082Y-22024463D01*
X6730013Y-22292252D01*
X6957748Y-22519987D01*
X7225537Y-22698918D01*
X7523088Y-22822168D01*
X7838967Y-22885000D01*
X8161033Y-22885000D01*
X8476912Y-22822168D01*
X8774463Y-22698918D01*
X8955335Y-22578063D01*
X8969463Y-22604494D01*
X9048815Y-22701185D01*
X9145506Y-22780537D01*
X9255820Y-22839502D01*
X9375518Y-22875812D01*
X9500000Y-22888072D01*
X10214250Y-22885000D01*
X10373000Y-22726250D01*
X10373000Y-21377000D01*
X10627000Y-21377000D01*
X10627000Y-22726250D01*
X10785750Y-22885000D01*
X11500000Y-22888072D01*
X11624482Y-22875812D01*
X11744180Y-22839502D01*
X11854494Y-22780537D01*
X11951185Y-22701185D01*
X12030537Y-22604494D01*
X12089502Y-22494180D01*
X12125812Y-22374482D01*
X12138072Y-22250000D01*
X12135000Y-21535750D01*
X11976250Y-21377000D01*
X10627000Y-21377000D01*
X10373000Y-21377000D01*
X10353000Y-21377000D01*
X10353000Y-21123000D01*
X10373000Y-21123000D01*
X10373000Y-19773750D01*
X10627000Y-19773750D01*
X10627000Y-21123000D01*
X11976250Y-21123000D01*
X12135000Y-20964250D01*
X12138072Y-20250000D01*
X12125812Y-20125518D01*
X12089502Y-20005820D01*
X12030537Y-19895506D01*
X11951185Y-19798815D01*
X11854494Y-19719463D01*
X11744180Y-19660498D01*
X11624482Y-19624188D01*
X11500000Y-19611928D01*
X10785750Y-19615000D01*
X10627000Y-19773750D01*
X10373000Y-19773750D01*
X10214250Y-19615000D01*
X9500000Y-19611928D01*
X9375518Y-19624188D01*
X9255820Y-19660498D01*
X9145506Y-19719463D01*
X9048815Y-19798815D01*
X8969463Y-19895506D01*
X8955335Y-19921937D01*
X8774463Y-19801082D01*
X8476912Y-19677832D01*
X8161033Y-19615000D01*
X7838967Y-19615000D01*
X7523088Y-19677832D01*
X7225537Y-19801082D01*
X6957748Y-19980013D01*
X6730013Y-20207748D01*
X6551082Y-20475537D01*
X6427832Y-20773088D01*
X6365000Y-21088967D01*
X-20150394Y-21088967D01*
X-20115000Y-20911033D01*
X-20115000Y-20588967D01*
X-20175360Y-20285517D01*
X-16889843Y-17000000D01*
X-4888072Y-17000000D01*
X-4888072Y-19000000D01*
X-4875812Y-19124482D01*
X-4839502Y-19244180D01*
X-4780537Y-19354494D01*
X-4701185Y-19451185D01*
X-4604494Y-19530537D01*
X-4494180Y-19589502D01*
X-4374482Y-19625812D01*
X-4250000Y-19638072D01*
X-2250000Y-19638072D01*
X-2125518Y-19625812D01*
X-2005820Y-19589502D01*
X-1895506Y-19530537D01*
X-1798815Y-19451185D01*
X-1719463Y-19354494D01*
X-1660498Y-19244180D01*
X-1624188Y-19124482D01*
X-1611928Y-19000000D01*
X-1611928Y-17000000D01*
X-1624188Y-16875518D01*
X-1660498Y-16755820D01*
X-1719463Y-16645506D01*
X-1798815Y-16548815D01*
X-1895506Y-16469463D01*
X-2005820Y-16410498D01*
X-2125518Y-16374188D01*
X-2250000Y-16361928D01*
X-4250000Y-16361928D01*
X-4374482Y-16374188D01*
X-4494180Y-16410498D01*
X-4604494Y-16469463D01*
X-4701185Y-16548815D01*
X-4780537Y-16645506D01*
X-4839502Y-16755820D01*
X-4875812Y-16875518D01*
X-4888072Y-17000000D01*
X-16889843Y-17000000D01*
X-13977914Y-14088072D01*
X-12820000Y-14088072D01*
X-12695518Y-14075812D01*
X-12575820Y-14039502D01*
X-12465506Y-13980537D01*
X-12368815Y-13901185D01*
X-12289463Y-13804494D01*
X-12246818Y-13724711D01*
X-12240379Y-13731150D01*
X-11980779Y-13904609D01*
X-11692327Y-14024089D01*
X-11386109Y-14085000D01*
X-11073891Y-14085000D01*
X-10767673Y-14024089D01*
X-10479221Y-13904609D01*
X-10219621Y-13731150D01*
X-9998850Y-13510379D01*
X-9825391Y-13250779D01*
X-9705911Y-12962327D01*
X-9645000Y-12656109D01*
X-9645000Y-12343891D01*
X-9705911Y-12037673D01*
X-9825391Y-11749221D01*
X-9998850Y-11489621D01*
X-10219621Y-11268850D01*
X-10479221Y-11095391D01*
X-10767673Y-10975911D01*
X-11073891Y-10915000D01*
X-11386109Y-10915000D01*
X-11692327Y-10975911D01*
X-11980779Y-11095391D01*
X-12240379Y-11268850D01*
X-12246818Y-11275289D01*
X-12289463Y-11195506D01*
X-12368815Y-11098815D01*
X-12465506Y-11019463D01*
X-12575820Y-10960498D01*
X-12695518Y-10924188D01*
X-12820000Y-10911928D01*
X-14720000Y-10911928D01*
X-14844482Y-10924188D01*
X-14964180Y-10960498D01*
X-15074494Y-11019463D01*
X-15171185Y-11098815D01*
X-15250537Y-11195506D01*
X-15309502Y-11305820D01*
X-15345812Y-11425518D01*
X-15358072Y-11550000D01*
X-15358072Y-13247914D01*
X-21285517Y-19175360D01*
X-21588967Y-19115000D01*
X-21911033Y-19115000D01*
X-22226912Y-19177832D01*
X-22524463Y-19301082D01*
X-22792252Y-19480013D01*
X-23019987Y-19707748D01*
X-23198918Y-19975537D01*
X-23322168Y-20273088D01*
X-23385000Y-20588967D01*
X-28615000Y-20588967D01*
X-28677832Y-20273088D01*
X-28801082Y-19975537D01*
X-28980013Y-19707748D01*
X-29207748Y-19480013D01*
X-29465000Y-19308123D01*
X-29465000Y-17038552D01*
X-29461203Y-16999999D01*
X-29465000Y-16961446D01*
X-29465000Y-16961439D01*
X-29476359Y-16846113D01*
X-29521246Y-16698140D01*
X-29594138Y-16561767D01*
X-29650387Y-16493228D01*
X-29667655Y-16472187D01*
X-29667658Y-16472184D01*
X-29692236Y-16442236D01*
X-29722184Y-16417658D01*
X-30635200Y-15504643D01*
X-30629754Y-15491496D01*
X-30565000Y-15165958D01*
X-30565000Y-14834042D01*
X-30629754Y-14508504D01*
X-30756772Y-14201853D01*
X-30941175Y-13925875D01*
X-31175875Y-13691175D01*
X-31451853Y-13506772D01*
X-31758504Y-13379754D01*
X-32084042Y-13315000D01*
X-32415958Y-13315000D01*
X-32741496Y-13379754D01*
X-33048147Y-13506772D01*
X-33324125Y-13691175D01*
X-33558825Y-13925875D01*
X-33743228Y-14201853D01*
X-33870246Y-14508504D01*
X-33935000Y-14834042D01*
X-42040000Y-14834042D01*
X-42040000Y-9834042D01*
X-33935000Y-9834042D01*
X-33935000Y-10165958D01*
X-33870246Y-10491496D01*
X-33743228Y-10798147D01*
X-33558825Y-11074125D01*
X-33324125Y-11308825D01*
X-33048147Y-11493228D01*
X-32741496Y-11620246D01*
X-32415958Y-11685000D01*
X-32084042Y-11685000D01*
X-31758504Y-11620246D01*
X-31451853Y-11493228D01*
X-31175875Y-11308825D01*
X-30941175Y-11074125D01*
X-30756772Y-10798147D01*
X-30629754Y-10491496D01*
X-30565000Y-10165958D01*
X-30565000Y-9834042D01*
X-21435000Y-9834042D01*
X-21435000Y-10165958D01*
X-21370246Y-10491496D01*
X-21243228Y-10798147D01*
X-21058825Y-11074125D01*
X-20824125Y-11308825D01*
X-20548147Y-11493228D01*
X-20241496Y-11620246D01*
X-19915958Y-11685000D01*
X-19584042Y-11685000D01*
X-19258504Y-11620246D01*
X-19039823Y-11529666D01*
X-20277815Y-12767658D01*
X-20307763Y-12792236D01*
X-20332341Y-12822184D01*
X-20332345Y-12822188D01*
X-20365310Y-12862356D01*
X-20405861Y-12911767D01*
X-20443585Y-12982345D01*
X-20478754Y-13048141D01*
X-20523641Y-13196114D01*
X-20538797Y-13350000D01*
X-20534999Y-13388562D01*
X-20534999Y-13501326D01*
X-20548147Y-13506772D01*
X-20824125Y-13691175D01*
X-21058825Y-13925875D01*
X-21243228Y-14201853D01*
X-21370246Y-14508504D01*
X-21435000Y-14834042D01*
X-21435000Y-15165958D01*
X-21370246Y-15491496D01*
X-21243228Y-15798147D01*
X-21058825Y-16074125D01*
X-20824125Y-16308825D01*
X-20548147Y-16493228D01*
X-20241496Y-16620246D01*
X-19915958Y-16685000D01*
X-19584042Y-16685000D01*
X-19258504Y-16620246D01*
X-18951853Y-16493228D01*
X-18675875Y-16308825D01*
X-18441175Y-16074125D01*
X-18256772Y-15798147D01*
X-18129754Y-15491496D01*
X-18065000Y-15165958D01*
X-18065000Y-14834042D01*
X-18129754Y-14508504D01*
X-18256772Y-14201853D01*
X-18441175Y-13925875D01*
X-18675875Y-13691175D01*
X-18858795Y-13568952D01*
X-13359187Y-8069344D01*
X-1885000Y-8069344D01*
X-1885000Y-8440656D01*
X-1812561Y-8804834D01*
X-1670466Y-9147882D01*
X-1464175Y-9456618D01*
X-1201618Y-9719175D01*
X-892882Y-9925466D01*
X-549834Y-10067561D01*
X-185656Y-10140000D01*
X185656Y-10140000D01*
X549834Y-10067561D01*
X892882Y-9925466D01*
X1201618Y-9719175D01*
X1464175Y-9456618D01*
X1670466Y-9147882D01*
X1812561Y-8804834D01*
X1885000Y-8440656D01*
X1885000Y-8069344D01*
X1812561Y-7705166D01*
X1670466Y-7362118D01*
X1464175Y-7053382D01*
X1201618Y-6790825D01*
X892882Y-6584534D01*
X549834Y-6442439D01*
X185656Y-6370000D01*
X-185656Y-6370000D01*
X-549834Y-6442439D01*
X-892882Y-6584534D01*
X-1201618Y-6790825D01*
X-1464175Y-7053382D01*
X-1670466Y-7362118D01*
X-1812561Y-7705166D01*
X-1885000Y-8069344D01*
X-13359187Y-8069344D01*
X-1722183Y3567659D01*
X-1692236Y3592236D01*
X-1594138Y3711767D01*
X-1521246Y3848140D01*
X-1476359Y3996113D01*
X-1465000Y4111439D01*
X-1465000Y4111446D01*
X-1461203Y4149999D01*
X-1465000Y4188552D01*
X-1465000Y10216646D01*
X-1374482Y10189188D01*
X-1250000Y10176928D01*
X-285750Y10180000D01*
X-127000Y10338750D01*
X-127000Y11938000D01*
X127000Y11938000D01*
X127000Y10338750D01*
X285750Y10180000D01*
X1250000Y10176928D01*
X1374482Y10189188D01*
X1494180Y10225498D01*
X1604494Y10284463D01*
X1701185Y10363815D01*
X1780537Y10460506D01*
X1839502Y10570820D01*
X1875812Y10690518D01*
X1888072Y10815000D01*
X1885000Y11779250D01*
X1726250Y11938000D01*
X127000Y11938000D01*
X-127000Y11938000D01*
X-147000Y11938000D01*
X-147000Y12192000D01*
X-127000Y12192000D01*
X-127000Y13791250D01*
X127000Y13791250D01*
X127000Y12192000D01*
X1726250Y12192000D01*
X1885000Y12350750D01*
X1888072Y13315000D01*
X1875812Y13439482D01*
X1839502Y13559180D01*
X1780537Y13669494D01*
X1701185Y13766185D01*
X1604494Y13845537D01*
X1494180Y13904502D01*
X1374482Y13940812D01*
X1250000Y13953072D01*
X285750Y13950000D01*
X127000Y13791250D01*
X-127000Y13791250D01*
X-285750Y13950000D01*
X-1250000Y13953072D01*
X-1374482Y13940812D01*
X-1465000Y13913354D01*
X-1465000Y18878263D01*
X-1270000Y18859057D01*
X-988692Y18886764D01*
X-718193Y18968818D01*
X-468900Y19102068D01*
X-250393Y19281392D01*
X-71068Y19499899D01*
X0Y19632858D01*
X71068Y19499900D01*
X250392Y19281393D01*
X468899Y19102068D01*
X718192Y18968818D01*
X988691Y18886764D01*
X1270000Y18859057D01*
X1551308Y18886764D01*
X1821807Y18968818D01*
X2071100Y19102068D01*
X2289607Y19281392D01*
X2468932Y19499899D01*
X2540000Y19632858D01*
X2611068Y19499900D01*
X2790392Y19281393D01*
X3008899Y19102068D01*
X3258192Y18968818D01*
X3528691Y18886764D01*
X3810000Y18859057D01*
X4091308Y18886764D01*
X4361807Y18968818D01*
X4611100Y19102068D01*
X4829607Y19281392D01*
X5008932Y19499899D01*
X5080000Y19632858D01*
X5151068Y19499900D01*
X5330392Y19281393D01*
X5548899Y19102068D01*
X5565000Y19093462D01*
X5565001Y7938563D01*
X5561203Y7900000D01*
X5576359Y7746114D01*
X5621246Y7598141D01*
X5621247Y7598140D01*
X5694139Y7461767D01*
X5734690Y7412356D01*
X5767655Y7372188D01*
X5767659Y7372184D01*
X5792237Y7342236D01*
X5822185Y7317658D01*
X6215000Y6924843D01*
X6215000Y6898061D01*
X6254774Y6698102D01*
X6332795Y6509744D01*
X6446063Y6340226D01*
X6590226Y6196063D01*
X6759744Y6082795D01*
X6948102Y6004774D01*
X7148061Y5965000D01*
X7351939Y5965000D01*
X7551898Y6004774D01*
X7740256Y6082795D01*
X7909774Y6196063D01*
X8053937Y6340226D01*
X8155000Y6491478D01*
X8155001Y-6334842D01*
X2672190Y-11817653D01*
X2642236Y-11842236D01*
X2544138Y-11961768D01*
X2471246Y-12098141D01*
X2426359Y-12246114D01*
X2415000Y-12361440D01*
X2415000Y-12361447D01*
X2411203Y-12400000D01*
X2415000Y-12438553D01*
X2415001Y-16591531D01*
X2207748Y-16730013D01*
X1980013Y-16957748D01*
X1801082Y-17225537D01*
X1677832Y-17523088D01*
X1615000Y-17838967D01*
X1615000Y-18161033D01*
X1677832Y-18476912D01*
X1801082Y-18774463D01*
X1980013Y-19042252D01*
X2207748Y-19269987D01*
X2475537Y-19448918D01*
X2773088Y-19572168D01*
X3088967Y-19635000D01*
X3411033Y-19635000D01*
X3726912Y-19572168D01*
X4024463Y-19448918D01*
X4292252Y-19269987D01*
X4519987Y-19042252D01*
X4698918Y-18774463D01*
X4822168Y-18476912D01*
X4885000Y-18161033D01*
X4885000Y-17838967D01*
X4822168Y-17523088D01*
X4698918Y-17225537D01*
X4519987Y-16957748D01*
X4292252Y-16730013D01*
X4024463Y-16551082D01*
X3985000Y-16534736D01*
X3985000Y-12725157D01*
X5160157Y-11550000D01*
X9641928Y-11550000D01*
X9641928Y-13450000D01*
X9654188Y-13574482D01*
X9690498Y-13694180D01*
X9749463Y-13804494D01*
X9828815Y-13901185D01*
X9925506Y-13980537D01*
X10035820Y-14039502D01*
X10155518Y-14075812D01*
X10280000Y-14088072D01*
X10445001Y-14088072D01*
X10445001Y-14191438D01*
X10441203Y-14230000D01*
X10456359Y-14383886D01*
X10501246Y-14531859D01*
X10501247Y-14531860D01*
X10574139Y-14668233D01*
X10614690Y-14717644D01*
X10647655Y-14757812D01*
X10647659Y-14757816D01*
X10672237Y-14787764D01*
X10702185Y-14812342D01*
X17217658Y-21327816D01*
X17242236Y-21357764D01*
X17272184Y-21382342D01*
X17272187Y-21382345D01*
X17300843Y-21405862D01*
X17361767Y-21455862D01*
X17488574Y-21523641D01*
X17498140Y-21528754D01*
X17646112Y-21573641D01*
X17660490Y-21575057D01*
X17761439Y-21585000D01*
X17761446Y-21585000D01*
X17799999Y-21588797D01*
X17838552Y-21585000D01*
X20341532Y-21585000D01*
X20480013Y-21792252D01*
X20707748Y-22019987D01*
X20975537Y-22198918D01*
X21273088Y-22322168D01*
X21588967Y-22385000D01*
X21911033Y-22385000D01*
X22226912Y-22322168D01*
X22524463Y-22198918D01*
X22792252Y-22019987D01*
X23019987Y-21792252D01*
X23198918Y-21524463D01*
X23322168Y-21226912D01*
X23385000Y-20911033D01*
X23385000Y-20588967D01*
X28615000Y-20588967D01*
X28615000Y-20911033D01*
X28677832Y-21226912D01*
X28801082Y-21524463D01*
X28980013Y-21792252D01*
X29207748Y-22019987D01*
X29475537Y-22198918D01*
X29773088Y-22322168D01*
X30088967Y-22385000D01*
X30411033Y-22385000D01*
X30726912Y-22322168D01*
X31024463Y-22198918D01*
X31292252Y-22019987D01*
X31519987Y-21792252D01*
X31698918Y-21524463D01*
X31822168Y-21226912D01*
X31885000Y-20911033D01*
X31885000Y-20588967D01*
X31822168Y-20273088D01*
X31698918Y-19975537D01*
X31519987Y-19707748D01*
X31292252Y-19480013D01*
X31035000Y-19308123D01*
X31035000Y-17325157D01*
X31745357Y-16614800D01*
X31758504Y-16620246D01*
X32084042Y-16685000D01*
X32415958Y-16685000D01*
X32741496Y-16620246D01*
X33048147Y-16493228D01*
X33324125Y-16308825D01*
X33558825Y-16074125D01*
X33743228Y-15798147D01*
X33870246Y-15491496D01*
X33935000Y-15165958D01*
X33935000Y-14834042D01*
X33870246Y-14508504D01*
X33743228Y-14201853D01*
X33558825Y-13925875D01*
X33324125Y-13691175D01*
X33048147Y-13506772D01*
X32741496Y-13379754D01*
X32415958Y-13315000D01*
X32084042Y-13315000D01*
X31758504Y-13379754D01*
X31451853Y-13506772D01*
X31175875Y-13691175D01*
X30941175Y-13925875D01*
X30756772Y-14201853D01*
X30629754Y-14508504D01*
X30565000Y-14834042D01*
X30565000Y-15165958D01*
X30629754Y-15491496D01*
X30635200Y-15504643D01*
X29722185Y-16417658D01*
X29692237Y-16442236D01*
X29667659Y-16472184D01*
X29667655Y-16472188D01*
X29650388Y-16493228D01*
X29594139Y-16561767D01*
X29562882Y-16620246D01*
X29521246Y-16698141D01*
X29476359Y-16846114D01*
X29461203Y-17000000D01*
X29465001Y-17038563D01*
X29465000Y-19308122D01*
X29207748Y-19480013D01*
X28980013Y-19707748D01*
X28801082Y-19975537D01*
X28677832Y-20273088D01*
X28615000Y-20588967D01*
X23385000Y-20588967D01*
X23322168Y-20273088D01*
X23198918Y-19975537D01*
X23019987Y-19707748D01*
X22792252Y-19480013D01*
X22524463Y-19301082D01*
X22226912Y-19177832D01*
X21911033Y-19115000D01*
X21588967Y-19115000D01*
X21273088Y-19177832D01*
X20975537Y-19301082D01*
X20707748Y-19480013D01*
X20480013Y-19707748D01*
X20301082Y-19975537D01*
X20284736Y-20015000D01*
X18125158Y-20015000D01*
X12196595Y-14086438D01*
X12304482Y-14075812D01*
X12424180Y-14039502D01*
X12534494Y-13980537D01*
X12631185Y-13901185D01*
X12710537Y-13804494D01*
X12753182Y-13724711D01*
X12759621Y-13731150D01*
X13019221Y-13904609D01*
X13307673Y-14024089D01*
X13613891Y-14085000D01*
X13926109Y-14085000D01*
X14232327Y-14024089D01*
X14520779Y-13904609D01*
X14780379Y-13731150D01*
X15001150Y-13510379D01*
X15174609Y-13250779D01*
X15294089Y-12962327D01*
X15355000Y-12656109D01*
X15355000Y-12343891D01*
X15294089Y-12037673D01*
X15174609Y-11749221D01*
X15001150Y-11489621D01*
X14780379Y-11268850D01*
X14520779Y-11095391D01*
X14232327Y-10975911D01*
X13926109Y-10915000D01*
X13613891Y-10915000D01*
X13348039Y-10967882D01*
X13285000Y-10904843D01*
X13285000Y-9834042D01*
X18065000Y-9834042D01*
X18065000Y-10165958D01*
X18129754Y-10491496D01*
X18256772Y-10798147D01*
X18441175Y-11074125D01*
X18675875Y-11308825D01*
X18951853Y-11493228D01*
X19258504Y-11620246D01*
X19584042Y-11685000D01*
X19915958Y-11685000D01*
X20241496Y-11620246D01*
X20548147Y-11493228D01*
X20824125Y-11308825D01*
X21058825Y-11074125D01*
X21243228Y-10798147D01*
X21370246Y-10491496D01*
X21435000Y-10165958D01*
X21435000Y-9834042D01*
X21370246Y-9508504D01*
X21243228Y-9201853D01*
X21058825Y-8925875D01*
X20824125Y-8691175D01*
X20548147Y-8506772D01*
X20241496Y-8379754D01*
X19915958Y-8315000D01*
X19584042Y-8315000D01*
X19258504Y-8379754D01*
X18951853Y-8506772D01*
X18675875Y-8691175D01*
X18441175Y-8925875D01*
X18256772Y-9201853D01*
X18129754Y-9508504D01*
X18065000Y-9834042D01*
X13285000Y-9834042D01*
X13285000Y-2124773D01*
X13286059Y-2123998D01*
X13287899Y-2122884D01*
X13289767Y-2121625D01*
X13289613Y-2121397D01*
X13338316Y-2085752D01*
X13338587Y-2085531D01*
X13342053Y-2082684D01*
X13454836Y-1989382D01*
X13496024Y-1951775D01*
X13496204Y-1951959D01*
X13497812Y-1950384D01*
X13499206Y-1948869D01*
X13500835Y-1947382D01*
X13502442Y-1945764D01*
X13502245Y-1945568D01*
X13542556Y-1901771D01*
X13542779Y-1901502D01*
X13546024Y-1897555D01*
X13638536Y-1784123D01*
X13660010Y-1755000D01*
X15431182Y-1755000D01*
X15551082Y-2044463D01*
X15730013Y-2312252D01*
X15957748Y-2539987D01*
X16225537Y-2718918D01*
X16523088Y-2842168D01*
X16838967Y-2905000D01*
X17161033Y-2905000D01*
X17476912Y-2842168D01*
X17774463Y-2718918D01*
X18042252Y-2539987D01*
X18269987Y-2312252D01*
X18448918Y-2044463D01*
X18572168Y-1746912D01*
X18635000Y-1431033D01*
X18635000Y-1108967D01*
X18572168Y-793088D01*
X18448918Y-495537D01*
X18269987Y-227748D01*
X18042252Y-13D01*
X17933400Y72720D01*
X17955808Y134587D01*
X17000000Y1090395D01*
X16044192Y134587D01*
X16066600Y72720D01*
X15957748Y-13D01*
X15772761Y-185000D01*
X13912336Y-185000D01*
X13910004Y-137502D01*
X13909524Y-132625D01*
X13885133Y-10000D01*
X13909524Y112625D01*
X13910004Y117502D01*
X13913072Y180000D01*
X13913072Y930000D01*
X13913071Y930010D01*
X13913071Y930175D01*
X13913055Y934623D01*
X13912982Y945094D01*
X13909517Y1007208D01*
X13909404Y1008281D01*
X13909283Y1010565D01*
X13909246Y1010912D01*
X13908867Y1014383D01*
X13892551Y1159845D01*
X13884851Y1207405D01*
X15358282Y1207405D01*
X15402039Y888325D01*
X15507205Y583912D01*
X15600186Y409956D01*
X15864587Y314192D01*
X16820395Y1270000D01*
X17179605Y1270000D01*
X18135413Y314192D01*
X18399814Y409956D01*
X18540704Y699571D01*
X18622384Y1011108D01*
X18641718Y1332595D01*
X18597961Y1651675D01*
X18492795Y1956088D01*
X18399814Y2130044D01*
X18135413Y2225808D01*
X17179605Y1270000D01*
X16820395Y1270000D01*
X15864587Y2225808D01*
X15600186Y2130044D01*
X15459296Y1840429D01*
X15377616Y1528892D01*
X15358282Y1207405D01*
X13884851Y1207405D01*
X13883640Y1214882D01*
X13883893Y1214932D01*
X13883451Y1217163D01*
X13882951Y1219138D01*
X13882602Y1221296D01*
X13882133Y1223504D01*
X13881861Y1223446D01*
X13867122Y1281708D01*
X13867019Y1282041D01*
X13865645Y1286427D01*
X13821386Y1425949D01*
X13802016Y1478027D01*
X13802265Y1478129D01*
X13801402Y1480224D01*
X13800465Y1482198D01*
X13799634Y1484432D01*
X13798741Y1486515D01*
X13798471Y1486399D01*
X13772701Y1540684D01*
X13772535Y1540991D01*
X13770406Y1544895D01*
X13699889Y1673164D01*
X13670791Y1720452D01*
X13671018Y1720603D01*
X13669767Y1722487D01*
X13668435Y1724280D01*
X13667155Y1726360D01*
X13665872Y1728233D01*
X13665624Y1728063D01*
X13629590Y1776565D01*
X13629368Y1776833D01*
X13626781Y1779936D01*
X13532693Y1892067D01*
X13494829Y1932961D01*
X13495012Y1933143D01*
X13493405Y1934761D01*
X13491909Y1936114D01*
X13491568Y1936482D01*
X13491604Y1936518D01*
X13491598Y1936524D01*
X13491363Y1936703D01*
X13490382Y1937763D01*
X13488774Y1939338D01*
X13488572Y1939132D01*
X13442695Y1980620D01*
X13442430Y1980835D01*
X13439046Y1976663D01*
X13436811Y1978370D01*
X13440225Y1982616D01*
X13326156Y2074330D01*
X13281133Y2107040D01*
X13281282Y2107260D01*
X13279371Y2108549D01*
X13277582Y2109620D01*
X13275699Y2110988D01*
X13273836Y2112207D01*
X13273674Y2111959D01*
X13220270Y2143929D01*
X13219961Y2144092D01*
X13217872Y2145189D01*
X13088155Y2213004D01*
X13037452Y2236437D01*
X13037550Y2236670D01*
X13035443Y2237555D01*
X13033586Y2238224D01*
X13031664Y2239112D01*
X13029581Y2239954D01*
X13029479Y2239703D01*
X12973037Y2260028D01*
X12972703Y2260129D01*
X12968165Y2261483D01*
X12827746Y2302810D01*
X12773840Y2315846D01*
X12773895Y2316116D01*
X12771638Y2316580D01*
X12769452Y2316907D01*
X12767051Y2317488D01*
X12764863Y2317905D01*
X12764805Y2317603D01*
X12703386Y2326801D01*
X12703038Y2326834D01*
X12700635Y2327058D01*
X12554864Y2340325D01*
X12499508Y2342640D01*
X12499510Y2342918D01*
X12497206Y2342935D01*
X12494956Y2342830D01*
X12492448Y2342935D01*
X12490220Y2342919D01*
X12490222Y2342609D01*
X12428464Y2339731D01*
X12428117Y2339696D01*
X12425451Y2339421D01*
X12279879Y2324120D01*
X12224843Y2315603D01*
X12224794Y2315858D01*
X12222561Y2315432D01*
X12220563Y2314941D01*
X12218348Y2314598D01*
X12216135Y2314144D01*
X12216192Y2313866D01*
X12157443Y2299422D01*
X12157109Y2299321D01*
X12153117Y2298100D01*
X12013288Y2254816D01*
X11960918Y2235757D01*
X11960821Y2235997D01*
X11958720Y2235148D01*
X11956860Y2234280D01*
X11954739Y2233508D01*
X11952650Y2232630D01*
X11952761Y2232367D01*
X11897891Y2206759D01*
X11897583Y2206595D01*
X11893988Y2204666D01*
X11765231Y2135047D01*
X11717583Y2106202D01*
X11717444Y2106414D01*
X11715537Y2105166D01*
X11713941Y2103998D01*
X11712101Y2102884D01*
X11710233Y2101625D01*
X11710387Y2101397D01*
X11661684Y2065752D01*
X11661413Y2065531D01*
X11657947Y2062684D01*
X11545164Y1969382D01*
X11503976Y1931775D01*
X11503796Y1931959D01*
X11502188Y1930384D01*
X11500794Y1928869D01*
X11499165Y1927382D01*
X11497558Y1925764D01*
X11497755Y1925568D01*
X11457444Y1881771D01*
X11457221Y1881502D01*
X11453976Y1877555D01*
X11361464Y1764123D01*
X11328468Y1719373D01*
X11328251Y1719522D01*
X11326960Y1717637D01*
X11325863Y1715840D01*
X11324504Y1713997D01*
X11323260Y1712125D01*
X11323498Y1711967D01*
X11292126Y1660579D01*
X11291960Y1660272D01*
X11289851Y1656339D01*
X11221132Y1527098D01*
X11197370Y1476601D01*
X11197133Y1476703D01*
X11196236Y1474609D01*
X11195532Y1472695D01*
X11194593Y1470699D01*
X11193734Y1468615D01*
X11193993Y1468508D01*
X11173182Y1411910D01*
X11173079Y1411577D01*
X11171817Y1407449D01*
X11129511Y1267322D01*
X11116070Y1213407D01*
X11115808Y1213463D01*
X11115329Y1211211D01*
X11114996Y1209103D01*
X11114429Y1206827D01*
X11113996Y1204640D01*
X11114283Y1204583D01*
X11104773Y1144307D01*
X11104737Y1143960D01*
X11104376Y1140382D01*
X11090092Y994705D01*
X11087047Y932439D01*
X11087047Y932424D01*
X11086928Y930000D01*
X11086928Y180000D01*
X11089996Y117502D01*
X11090476Y112625D01*
X11114867Y-10000D01*
X11090476Y-132625D01*
X11089996Y-137502D01*
X11086928Y-200000D01*
X11086928Y-950000D01*
X11086929Y-950010D01*
X11086929Y-950175D01*
X11086945Y-954623D01*
X11087018Y-965094D01*
X11090483Y-1027208D01*
X11090596Y-1028281D01*
X11090717Y-1030565D01*
X11090754Y-1030912D01*
X11091133Y-1034383D01*
X11107449Y-1179845D01*
X11116360Y-1234882D01*
X11116107Y-1234932D01*
X11116549Y-1237163D01*
X11117049Y-1239138D01*
X11117398Y-1241296D01*
X11117867Y-1243504D01*
X11118139Y-1243446D01*
X11132878Y-1301708D01*
X11132981Y-1302041D01*
X11134355Y-1306427D01*
X11178614Y-1445949D01*
X11197984Y-1498027D01*
X11197735Y-1498129D01*
X11198598Y-1500224D01*
X11199535Y-1502198D01*
X11200366Y-1504432D01*
X11201259Y-1506515D01*
X11201529Y-1506399D01*
X11227299Y-1560684D01*
X11227465Y-1560991D01*
X11229594Y-1564895D01*
X11300111Y-1693164D01*
X11329209Y-1740452D01*
X11328982Y-1740603D01*
X11330233Y-1742487D01*
X11331565Y-1744280D01*
X11332845Y-1746360D01*
X11334128Y-1748233D01*
X11334376Y-1748063D01*
X11370410Y-1796565D01*
X11370632Y-1796833D01*
X11373219Y-1799936D01*
X11467307Y-1912067D01*
X11505171Y-1952961D01*
X11504988Y-1953143D01*
X11506595Y-1954761D01*
X11508091Y-1956114D01*
X11508432Y-1956482D01*
X11508396Y-1956518D01*
X11508402Y-1956524D01*
X11508637Y-1956703D01*
X11509618Y-1957763D01*
X11511226Y-1959338D01*
X11511428Y-1959132D01*
X11557305Y-2000620D01*
X11557570Y-2000835D01*
X11560954Y-1996663D01*
X11563189Y-1998370D01*
X11559775Y-2002616D01*
X11673844Y-2094330D01*
X11715000Y-2124231D01*
X11715001Y-10461429D01*
X11715000Y-10461439D01*
X11715000Y-10911928D01*
X10280000Y-10911928D01*
X10155518Y-10924188D01*
X10035820Y-10960498D01*
X9925506Y-11019463D01*
X9828815Y-11098815D01*
X9749463Y-11195506D01*
X9690498Y-11305820D01*
X9654188Y-11425518D01*
X9641928Y-11550000D01*
X5160157Y-11550000D01*
X9467810Y-7242347D01*
X9497764Y-7217764D01*
X9595862Y-7098233D01*
X9668754Y-6961860D01*
X9713642Y-6813887D01*
X9721020Y-6738974D01*
X9725000Y-6698561D01*
X9725000Y-6698556D01*
X9728797Y-6660000D01*
X9725000Y-6621444D01*
X9725000Y2405413D01*
X16044192Y2405413D01*
X17000000Y1449605D01*
X17955808Y2405413D01*
X17860044Y2669814D01*
X17570429Y2810704D01*
X17258892Y2892384D01*
X16937405Y2911718D01*
X16618325Y2867961D01*
X16313912Y2762795D01*
X16139956Y2669814D01*
X16044192Y2405413D01*
X9725000Y2405413D01*
X9725000Y3683000D01*
X20755000Y3683000D01*
X20755000Y3283000D01*
X20807350Y3005486D01*
X20912834Y2743517D01*
X21067399Y2507161D01*
X21265105Y2305500D01*
X21498354Y2146285D01*
X21758182Y2035633D01*
X21840961Y2018096D01*
X22063000Y2140085D01*
X22063000Y3683000D01*
X20755000Y3683000D01*
X9725000Y3683000D01*
X9725000Y4337000D01*
X20755000Y4337000D01*
X20755000Y3937000D01*
X22063000Y3937000D01*
X22063000Y5479915D01*
X21840961Y5601904D01*
X21758182Y5584367D01*
X21498354Y5473715D01*
X21265105Y5314500D01*
X21067399Y5112839D01*
X20912834Y4876483D01*
X20807350Y4614514D01*
X20755000Y4337000D01*
X9725000Y4337000D01*
X9725000Y7571289D01*
X9743937Y7590226D01*
X9857205Y7759744D01*
X9935226Y7948102D01*
X9975000Y8148061D01*
X9975000Y8351939D01*
X9935226Y8551898D01*
X9857205Y8740256D01*
X9743937Y8909774D01*
X9599774Y9053937D01*
X9430256Y9167205D01*
X9241898Y9245226D01*
X9041939Y9285000D01*
X8838061Y9285000D01*
X8638102Y9245226D01*
X8449744Y9167205D01*
X8280226Y9053937D01*
X8136063Y8909774D01*
X8022795Y8740256D01*
X7944774Y8551898D01*
X7905000Y8351939D01*
X7905000Y8148061D01*
X7944774Y7948102D01*
X8022795Y7759744D01*
X8136063Y7590226D01*
X8155000Y7571289D01*
X8155000Y7508522D01*
X8053937Y7659774D01*
X7909774Y7803937D01*
X7740256Y7917205D01*
X7551898Y7995226D01*
X7351939Y8035000D01*
X7325157Y8035000D01*
X7135000Y8225157D01*
X7135000Y10165958D01*
X18065000Y10165958D01*
X18065000Y9834042D01*
X18129754Y9508504D01*
X18256772Y9201853D01*
X18441175Y8925875D01*
X18675875Y8691175D01*
X18951853Y8506772D01*
X19258504Y8379754D01*
X19584042Y8315000D01*
X19915958Y8315000D01*
X20241496Y8379754D01*
X20548147Y8506772D01*
X20824125Y8691175D01*
X21058825Y8925875D01*
X21243228Y9201853D01*
X21370246Y9508504D01*
X21435000Y9834042D01*
X21435000Y10165958D01*
X21370246Y10491496D01*
X21243228Y10798147D01*
X21058825Y11074125D01*
X20824125Y11308825D01*
X20548147Y11493228D01*
X20241496Y11620246D01*
X19915958Y11685000D01*
X19584042Y11685000D01*
X19258504Y11620246D01*
X18951853Y11493228D01*
X18675875Y11308825D01*
X18441175Y11074125D01*
X18256772Y10798147D01*
X18129754Y10491496D01*
X18065000Y10165958D01*
X7135000Y10165958D01*
X7135000Y13450000D01*
X9641928Y13450000D01*
X9641928Y11550000D01*
X9654188Y11425518D01*
X9690498Y11305820D01*
X9749463Y11195506D01*
X9828815Y11098815D01*
X9925506Y11019463D01*
X10035820Y10960498D01*
X10155518Y10924188D01*
X10280000Y10911928D01*
X12180000Y10911928D01*
X12304482Y10924188D01*
X12424180Y10960498D01*
X12534494Y11019463D01*
X12631185Y11098815D01*
X12710537Y11195506D01*
X12769502Y11305820D01*
X12775630Y11326022D01*
X12849854Y11400246D01*
X12939579Y11140958D01*
X13220671Y11005065D01*
X13522873Y10926621D01*
X13834573Y10908641D01*
X14143791Y10951816D01*
X14438644Y11054487D01*
X14600421Y11140958D01*
X14690147Y11400248D01*
X13770000Y12320395D01*
X13755858Y12306253D01*
X13576253Y12485858D01*
X13590395Y12500000D01*
X13949605Y12500000D01*
X14869752Y11579853D01*
X15129042Y11669579D01*
X15264935Y11950671D01*
X15343379Y12252873D01*
X15361359Y12564573D01*
X15318184Y12873791D01*
X15215513Y13168644D01*
X15129042Y13330421D01*
X14869752Y13420147D01*
X13949605Y12500000D01*
X13590395Y12500000D01*
X13576253Y12514143D01*
X13755858Y12693748D01*
X13770000Y12679605D01*
X14690147Y13599752D01*
X14600421Y13859042D01*
X14319329Y13994935D01*
X14017127Y14073379D01*
X13705427Y14091359D01*
X13396209Y14048184D01*
X13101356Y13945513D01*
X12939579Y13859042D01*
X12849854Y13599754D01*
X12775630Y13673978D01*
X12769502Y13694180D01*
X12710537Y13804494D01*
X12631185Y13901185D01*
X12534494Y13980537D01*
X12424180Y14039502D01*
X12304482Y14075812D01*
X12180000Y14088072D01*
X10280000Y14088072D01*
X10155518Y14075812D01*
X10035820Y14039502D01*
X9925506Y13980537D01*
X9828815Y13901185D01*
X9749463Y13804494D01*
X9690498Y13694180D01*
X9654188Y13574482D01*
X9641928Y13450000D01*
X7135000Y13450000D01*
X7135000Y19093462D01*
X7151100Y19102068D01*
X7369607Y19281392D01*
X7548932Y19499899D01*
X7620000Y19632858D01*
X7691068Y19499900D01*
X7870392Y19281393D01*
X8088899Y19102068D01*
X8338192Y18968818D01*
X8608691Y18886764D01*
X8890000Y18859057D01*
X9171308Y18886764D01*
X9441807Y18968818D01*
X9691100Y19102068D01*
X9909607Y19281392D01*
X10088932Y19499899D01*
X10222182Y19749192D01*
X10272782Y19916000D01*
X13723843Y19916000D01*
X18135200Y15504643D01*
X18129754Y15491496D01*
X18065000Y15165958D01*
X18065000Y14834042D01*
X18129754Y14508504D01*
X18256772Y14201853D01*
X18441175Y13925875D01*
X18675875Y13691175D01*
X18951853Y13506772D01*
X19258504Y13379754D01*
X19584042Y13315000D01*
X19915958Y13315000D01*
X20241496Y13379754D01*
X20548147Y13506772D01*
X20824125Y13691175D01*
X21058825Y13925875D01*
X21243228Y14201853D01*
X21370246Y14508504D01*
X21435000Y14834042D01*
X21435000Y15165958D01*
X21370246Y15491496D01*
X21243228Y15798147D01*
X21058825Y16074125D01*
X20824125Y16308825D01*
X20548147Y16493228D01*
X20241496Y16620246D01*
X19915958Y16685000D01*
X19584042Y16685000D01*
X19258504Y16620246D01*
X19245357Y16614800D01*
X14631347Y21228810D01*
X14606764Y21258764D01*
X14487233Y21356862D01*
X14350860Y21429754D01*
X14202887Y21474641D01*
X14087561Y21486000D01*
X14087553Y21486000D01*
X14049000Y21489797D01*
X14010447Y21486000D01*
X10272782Y21486000D01*
X10222182Y21652808D01*
X10088932Y21902101D01*
X9909608Y22120608D01*
X9691101Y22299932D01*
X9441808Y22433182D01*
X9171309Y22515236D01*
X8890000Y22542943D01*
X8608692Y22515236D01*
X8338193Y22433182D01*
X8088900Y22299932D01*
X7870393Y22120608D01*
X7691068Y21902101D01*
X7620000Y21769142D01*
X7548932Y21902101D01*
X7369608Y22120608D01*
X7151101Y22299932D01*
X6901808Y22433182D01*
X6631309Y22515236D01*
X6350000Y22542943D01*
X6068692Y22515236D01*
X5798193Y22433182D01*
X5548900Y22299932D01*
X5330393Y22120608D01*
X5151068Y21902101D01*
X5080000Y21769142D01*
X5008932Y21902101D01*
X4829608Y22120608D01*
X4611101Y22299932D01*
X4361808Y22433182D01*
X4091309Y22515236D01*
X3810000Y22542943D01*
X3528692Y22515236D01*
X3258193Y22433182D01*
X3008900Y22299932D01*
X2790393Y22120608D01*
X2611068Y21902101D01*
X2540000Y21769142D01*
X2468932Y21902101D01*
X2289608Y22120608D01*
X2071101Y22299932D01*
X1821808Y22433182D01*
X1551309Y22515236D01*
X1436684Y22526526D01*
X1725158Y22815000D01*
X14774823Y22815000D01*
X28964990Y8624833D01*
X28964991Y5372897D01*
X28790392Y5229607D01*
X28611068Y5011100D01*
X28540000Y4878142D01*
X28468932Y5011101D01*
X28289607Y5229608D01*
X28071100Y5408932D01*
X27821807Y5542182D01*
X27551308Y5624236D01*
X27270000Y5651943D01*
X26988691Y5624236D01*
X26718192Y5542182D01*
X26468899Y5408932D01*
X26250392Y5229607D01*
X26071068Y5011100D01*
X26000000Y4878142D01*
X25928932Y5011101D01*
X25749607Y5229608D01*
X25531100Y5408932D01*
X25281807Y5542182D01*
X25011308Y5624236D01*
X24730000Y5651943D01*
X24448691Y5624236D01*
X24178192Y5542182D01*
X23928899Y5408932D01*
X23710392Y5229607D01*
X23531068Y5011100D01*
X23462735Y4883258D01*
X23312601Y5112839D01*
X23114895Y5314500D01*
X22881646Y5473715D01*
X22621818Y5584367D01*
X22539039Y5601904D01*
X22317000Y5479915D01*
X22317000Y3937000D01*
X22337000Y3937000D01*
X22337000Y3683000D01*
X22317000Y3683000D01*
X22317000Y2140085D01*
X22539039Y2018096D01*
X22621818Y2035633D01*
X22715000Y2075316D01*
X22715000Y-1971928D01*
X21390000Y-1971928D01*
X21265518Y-1984188D01*
X21145820Y-2020498D01*
X21035506Y-2079463D01*
X20938815Y-2158815D01*
X20859463Y-2255506D01*
X20800498Y-2365820D01*
X20764188Y-2485518D01*
X20751928Y-2610000D01*
X20751928Y-5010000D01*
X20764188Y-5134482D01*
X20800498Y-5254180D01*
X20859463Y-5364494D01*
X20938815Y-5461185D01*
X21035506Y-5540537D01*
X21145820Y-5599502D01*
X21265518Y-5635812D01*
X21390000Y-5648072D01*
X22715001Y-5648072D01*
X22715001Y-10924841D01*
X20254643Y-13385200D01*
X20241496Y-13379754D01*
X19915958Y-13315000D01*
X19584042Y-13315000D01*
X19258504Y-13379754D01*
X18951853Y-13506772D01*
X18675875Y-13691175D01*
X18441175Y-13925875D01*
X18256772Y-14201853D01*
X18129754Y-14508504D01*
X18065000Y-14834042D01*
X18065000Y-15165958D01*
X18129754Y-15491496D01*
X18256772Y-15798147D01*
X18441175Y-16074125D01*
X18675875Y-16308825D01*
X18951853Y-16493228D01*
X19258504Y-16620246D01*
X19584042Y-16685000D01*
X19915958Y-16685000D01*
X20241496Y-16620246D01*
X20548147Y-16493228D01*
X20824125Y-16308825D01*
X21058825Y-16074125D01*
X21243228Y-15798147D01*
X21370246Y-15491496D01*
X21435000Y-15165958D01*
X21435000Y-14834042D01*
X21370246Y-14508504D01*
X21364800Y-14495357D01*
X23922346Y-11937812D01*
X23922352Y-11937805D01*
X24027806Y-11832350D01*
X24057764Y-11807764D01*
X24155862Y-11688233D01*
X24228754Y-11551860D01*
X24247634Y-11489621D01*
X24273642Y-11403887D01*
X24283300Y-11305820D01*
X24285000Y-11288561D01*
X24285000Y-11288556D01*
X24288797Y-11250000D01*
X24285000Y-11211444D01*
X24285000Y-9834042D01*
X30565000Y-9834042D01*
X30565000Y-10165958D01*
X30629754Y-10491496D01*
X30756772Y-10798147D01*
X30941175Y-11074125D01*
X31175875Y-11308825D01*
X31451853Y-11493228D01*
X31758504Y-11620246D01*
X32084042Y-11685000D01*
X32415958Y-11685000D01*
X32741496Y-11620246D01*
X33048147Y-11493228D01*
X33324125Y-11308825D01*
X33558825Y-11074125D01*
X33743228Y-10798147D01*
X33870246Y-10491496D01*
X33935000Y-10165958D01*
X33935000Y-9834042D01*
X33870246Y-9508504D01*
X33743228Y-9201853D01*
X33558825Y-8925875D01*
X33324125Y-8691175D01*
X33048147Y-8506772D01*
X32741496Y-8379754D01*
X32415958Y-8315000D01*
X32084042Y-8315000D01*
X31758504Y-8379754D01*
X31451853Y-8506772D01*
X31175875Y-8691175D01*
X30941175Y-8925875D01*
X30756772Y-9201853D01*
X30629754Y-9508504D01*
X30565000Y-9834042D01*
X24285000Y-9834042D01*
X24285000Y-5574581D01*
X24448692Y-5624236D01*
X24730000Y-5651943D01*
X25011309Y-5624236D01*
X25281808Y-5542182D01*
X25531101Y-5408932D01*
X25749608Y-5229608D01*
X25928932Y-5011101D01*
X26000000Y-4878142D01*
X26071068Y-5011101D01*
X26250393Y-5229608D01*
X26468900Y-5408932D01*
X26718193Y-5542182D01*
X26988692Y-5624236D01*
X27270000Y-5651943D01*
X27551309Y-5624236D01*
X27821808Y-5542182D01*
X28071101Y-5408932D01*
X28289608Y-5229608D01*
X28468932Y-5011101D01*
X28540000Y-4878142D01*
X28611068Y-5011101D01*
X28790393Y-5229608D01*
X29008900Y-5408932D01*
X29258193Y-5542182D01*
X29528692Y-5624236D01*
X29810000Y-5651943D01*
X30091309Y-5624236D01*
X30361808Y-5542182D01*
X30611101Y-5408932D01*
X30829608Y-5229608D01*
X31008932Y-5011101D01*
X31142182Y-4761808D01*
X31224236Y-4491309D01*
X31245000Y-4280491D01*
X31245000Y-3339508D01*
X31224236Y-3128691D01*
X31142182Y-2858192D01*
X31008932Y-2608899D01*
X30829607Y-2390392D01*
X30611100Y-2211068D01*
X30361807Y-2077818D01*
X30091308Y-1995764D01*
X29930256Y-1979901D01*
X35777817Y3867659D01*
X35807764Y3892236D01*
X35844502Y3937000D01*
X35864566Y3961449D01*
X35905862Y4011767D01*
X35978754Y4148140D01*
X36018902Y4280491D01*
X36023641Y4296112D01*
X36030698Y4367764D01*
X36035000Y4411439D01*
X36035000Y4411446D01*
X36038797Y4449999D01*
X36035000Y4488552D01*
X36035000Y11961444D01*
X36038797Y12000000D01*
X36035000Y12038556D01*
X36035000Y12038561D01*
X36031020Y12078974D01*
X36023642Y12153887D01*
X35978754Y12301860D01*
X35968847Y12320395D01*
X35905862Y12438233D01*
X35807764Y12557764D01*
X35777810Y12582347D01*
X33864800Y14495357D01*
X33870246Y14508504D01*
X33935000Y14834042D01*
X33935000Y15165958D01*
X33870246Y15491496D01*
X33743228Y15798147D01*
X33558825Y16074125D01*
X33324125Y16308825D01*
X33048147Y16493228D01*
X32741496Y16620246D01*
X32415958Y16685000D01*
X32084042Y16685000D01*
X31758504Y16620246D01*
X31745357Y16614800D01*
X31035000Y17325157D01*
X31035000Y19308123D01*
X31292252Y19480013D01*
X31519987Y19707748D01*
X31698918Y19975537D01*
X31822168Y20273088D01*
X31885000Y20588967D01*
X31885000Y20911033D01*
X31822168Y21226912D01*
X31698918Y21524463D01*
X31519987Y21792252D01*
X31292252Y22019987D01*
X31024463Y22198918D01*
X30726912Y22322168D01*
X30411033Y22385000D01*
X30088967Y22385000D01*
X29773088Y22322168D01*
X29475537Y22198918D01*
X29207748Y22019987D01*
X28980013Y21792252D01*
X28801082Y21524463D01*
X28677832Y21226912D01*
X28615000Y20911033D01*
X28615000Y20588967D01*
X28677832Y20273088D01*
X28801082Y19975537D01*
X28980013Y19707748D01*
X29207748Y19480013D01*
X29465001Y19308122D01*
X29465000Y17038553D01*
X29461203Y17000000D01*
X29465000Y16961447D01*
X29465000Y16961440D01*
X29476359Y16846114D01*
X29521246Y16698141D01*
X29594138Y16561768D01*
X29692236Y16442236D01*
X29722190Y16417653D01*
X30635200Y15504643D01*
X30629754Y15491496D01*
X30565000Y15165958D01*
X30565000Y14834042D01*
X30629754Y14508504D01*
X30756772Y14201853D01*
X30941175Y13925875D01*
X31175875Y13691175D01*
X31451853Y13506772D01*
X31758504Y13379754D01*
X32084042Y13315000D01*
X32415958Y13315000D01*
X32741496Y13379754D01*
X32754643Y13385200D01*
X34465001Y11674842D01*
X34465000Y4775158D01*
X27660850Y-2028993D01*
X27551308Y-1995764D01*
X27270000Y-1968057D01*
X26988691Y-1995764D01*
X26718192Y-2077818D01*
X26468899Y-2211068D01*
X26250392Y-2390393D01*
X26071068Y-2608900D01*
X26000000Y-2741858D01*
X25928932Y-2608899D01*
X25749607Y-2390392D01*
X25531100Y-2211068D01*
X25281807Y-2077818D01*
X25011308Y-1995764D01*
X24730000Y-1968057D01*
X24448691Y-1995764D01*
X24285000Y-2045419D01*
X24285000Y1924843D01*
X24377513Y2017356D01*
X24448692Y1995764D01*
X24730000Y1968057D01*
X25011309Y1995764D01*
X25281808Y2077818D01*
X25531101Y2211068D01*
X25749608Y2390392D01*
X25928932Y2608899D01*
X26000000Y2741858D01*
X26071068Y2608899D01*
X26250393Y2390392D01*
X26468900Y2211068D01*
X26718193Y2077818D01*
X26775273Y2060503D01*
X26831768Y2014138D01*
X26968141Y1941246D01*
X27116114Y1896359D01*
X27270000Y1881202D01*
X27423887Y1896359D01*
X27571860Y1941246D01*
X27708233Y2014138D01*
X27764728Y2060503D01*
X27821808Y2077818D01*
X28071101Y2211068D01*
X28289608Y2390392D01*
X28468932Y2608899D01*
X28540000Y2741858D01*
X28611068Y2608899D01*
X28790393Y2390392D01*
X29008900Y2211068D01*
X29258193Y2077818D01*
X29528692Y1995764D01*
X29810000Y1968057D01*
X30091309Y1995764D01*
X30361808Y2077818D01*
X30611101Y2211068D01*
X30829608Y2390392D01*
X31008932Y2608899D01*
X31142182Y2858192D01*
X31224236Y3128691D01*
X31245000Y3339509D01*
X31245000Y4280492D01*
X31224236Y4491309D01*
X31142182Y4761808D01*
X31008932Y5011101D01*
X30829607Y5229608D01*
X30611100Y5408932D01*
X30534990Y5449614D01*
X30534990Y8911434D01*
X30538787Y8949990D01*
X30534990Y8988550D01*
X30534990Y8988551D01*
X30528550Y9053937D01*
X30523632Y9103877D01*
X30478744Y9251850D01*
X30461025Y9285000D01*
X30405852Y9388223D01*
X30307754Y9507754D01*
X30277801Y9532336D01*
X29644179Y10165958D01*
X30565000Y10165958D01*
X30565000Y9834042D01*
X30629754Y9508504D01*
X30756772Y9201853D01*
X30941175Y8925875D01*
X31175875Y8691175D01*
X31451853Y8506772D01*
X31758504Y8379754D01*
X32084042Y8315000D01*
X32415958Y8315000D01*
X32741496Y8379754D01*
X33048147Y8506772D01*
X33324125Y8691175D01*
X33558825Y8925875D01*
X33743228Y9201853D01*
X33870246Y9508504D01*
X33935000Y9834042D01*
X33935000Y10165958D01*
X33870246Y10491496D01*
X33743228Y10798147D01*
X33558825Y11074125D01*
X33324125Y11308825D01*
X33048147Y11493228D01*
X32741496Y11620246D01*
X32415958Y11685000D01*
X32084042Y11685000D01*
X31758504Y11620246D01*
X31451853Y11493228D01*
X31175875Y11308825D01*
X30941175Y11074125D01*
X30756772Y10798147D01*
X30629754Y10491496D01*
X30565000Y10165958D01*
X29644179Y10165958D01*
X18899104Y20911033D01*
X20115000Y20911033D01*
X20115000Y20588967D01*
X20177832Y20273088D01*
X20301082Y19975537D01*
X20480013Y19707748D01*
X20707748Y19480013D01*
X20975537Y19301082D01*
X21273088Y19177832D01*
X21588967Y19115000D01*
X21911033Y19115000D01*
X22226912Y19177832D01*
X22524463Y19301082D01*
X22792252Y19480013D01*
X23019987Y19707748D01*
X23198918Y19975537D01*
X23322168Y20273088D01*
X23385000Y20588967D01*
X23385000Y20911033D01*
X23322168Y21226912D01*
X23198918Y21524463D01*
X23019987Y21792252D01*
X22792252Y22019987D01*
X22524463Y22198918D01*
X22226912Y22322168D01*
X21911033Y22385000D01*
X21588967Y22385000D01*
X21273088Y22322168D01*
X20975537Y22198918D01*
X20707748Y22019987D01*
X20480013Y21792252D01*
X20301082Y21524463D01*
X20177832Y21226912D01*
X20115000Y20911033D01*
X18899104Y20911033D01*
X15682327Y24127810D01*
X15657744Y24157764D01*
X15538213Y24255862D01*
X15401840Y24328754D01*
X15253867Y24373641D01*
X15138541Y24385000D01*
X15138533Y24385000D01*
X15099980Y24388797D01*
X15061427Y24385000D01*
X1438552Y24385000D01*
X1399999Y24388797D01*
X1361446Y24385000D01*
X1361439Y24385000D01*
X1260490Y24375057D01*
X1246112Y24373641D01*
X1211672Y24363194D01*
X1098140Y24328754D01*
X961767Y24255862D01*
X908770Y24212368D01*
X872187Y24182345D01*
X872184Y24182342D01*
X842236Y24157764D01*
X817658Y24127816D01*
X-840020Y22470138D01*
X-988691Y22515236D01*
X-1270000Y22542943D01*
X-1551308Y22515236D01*
X-1821807Y22433182D01*
X-2071100Y22299932D01*
X-2289607Y22120608D01*
X-2468932Y21902101D01*
X-2537265Y21774259D01*
X-2687399Y22003839D01*
X-2885105Y22205500D01*
X-3118354Y22364715D01*
X-3378182Y22475367D01*
X-3460961Y22492904D01*
X-3683000Y22370915D01*
X-3683000Y20828000D01*
X-3663000Y20828000D01*
X-3663000Y20574000D01*
X-3683000Y20574000D01*
X-3683000Y19031085D01*
X-3460961Y18909096D01*
X-3378182Y18926633D01*
X-3118354Y19037285D01*
X-3034999Y19094183D01*
X-3035000Y4475158D01*
X-18220334Y-10710177D01*
X-18129754Y-10491496D01*
X-18065000Y-10165958D01*
X-18065000Y-9834042D01*
X-18129754Y-9508504D01*
X-18256772Y-9201853D01*
X-18441175Y-8925875D01*
X-18675875Y-8691175D01*
X-18951853Y-8506772D01*
X-19258504Y-8379754D01*
X-19584042Y-8315000D01*
X-19915958Y-8315000D01*
X-20241496Y-8379754D01*
X-20548147Y-8506772D01*
X-20824125Y-8691175D01*
X-21058825Y-8925875D01*
X-21243228Y-9201853D01*
X-21370246Y-9508504D01*
X-21435000Y-9834042D01*
X-30565000Y-9834042D01*
X-30629754Y-9508504D01*
X-30756772Y-9201853D01*
X-30941175Y-8925875D01*
X-31175875Y-8691175D01*
X-31451853Y-8506772D01*
X-31758504Y-8379754D01*
X-32084042Y-8315000D01*
X-32415958Y-8315000D01*
X-32741496Y-8379754D01*
X-33048147Y-8506772D01*
X-33324125Y-8691175D01*
X-33558825Y-8925875D01*
X-33743228Y-9201853D01*
X-33870246Y-9508504D01*
X-33935000Y-9834042D01*
X-42040000Y-9834042D01*
X-42040000Y-2088967D01*
X-21885000Y-2088967D01*
X-21885000Y-2411033D01*
X-21822168Y-2726912D01*
X-21698918Y-3024463D01*
X-21519987Y-3292252D01*
X-21292252Y-3519987D01*
X-21024463Y-3698918D01*
X-20726912Y-3822168D01*
X-20411033Y-3885000D01*
X-20088967Y-3885000D01*
X-19773088Y-3822168D01*
X-19475537Y-3698918D01*
X-19207748Y-3519987D01*
X-18980013Y-3292252D01*
X-18801082Y-3024463D01*
X-18677832Y-2726912D01*
X-18615000Y-2411033D01*
X-18615000Y-2088967D01*
X-15385000Y-2088967D01*
X-15385000Y-2411033D01*
X-15322168Y-2726912D01*
X-15198918Y-3024463D01*
X-15019987Y-3292252D01*
X-14792252Y-3519987D01*
X-14524463Y-3698918D01*
X-14226912Y-3822168D01*
X-13911033Y-3885000D01*
X-13588967Y-3885000D01*
X-13273088Y-3822168D01*
X-12975537Y-3698918D01*
X-12707748Y-3519987D01*
X-12480013Y-3292252D01*
X-12301082Y-3024463D01*
X-12177832Y-2726912D01*
X-12115000Y-2411033D01*
X-12115000Y-2088967D01*
X-12177832Y-1773088D01*
X-12301082Y-1475537D01*
X-12480013Y-1207748D01*
X-12707748Y-980013D01*
X-12975537Y-801082D01*
X-13273088Y-677832D01*
X-13588967Y-615000D01*
X-13911033Y-615000D01*
X-14226912Y-677832D01*
X-14524463Y-801082D01*
X-14792252Y-980013D01*
X-15019987Y-1207748D01*
X-15198918Y-1475537D01*
X-15322168Y-1773088D01*
X-15385000Y-2088967D01*
X-18615000Y-2088967D01*
X-18677832Y-1773088D01*
X-18801082Y-1475537D01*
X-18980013Y-1207748D01*
X-19207748Y-980013D01*
X-19475537Y-801082D01*
X-19773088Y-677832D01*
X-20088967Y-615000D01*
X-20411033Y-615000D01*
X-20726912Y-677832D01*
X-21024463Y-801082D01*
X-21292252Y-980013D01*
X-21519987Y-1207748D01*
X-21698918Y-1475537D01*
X-21822168Y-1773088D01*
X-21885000Y-2088967D01*
X-42040000Y-2088967D01*
X-42040000Y2411033D01*
X-21885000Y2411033D01*
X-21885000Y2088967D01*
X-21822168Y1773088D01*
X-21698918Y1475537D01*
X-21519987Y1207748D01*
X-21292252Y980013D01*
X-21024463Y801082D01*
X-20726912Y677832D01*
X-20411033Y615000D01*
X-20088967Y615000D01*
X-19773088Y677832D01*
X-19475537Y801082D01*
X-19207748Y980013D01*
X-18980013Y1207748D01*
X-18801082Y1475537D01*
X-18677832Y1773088D01*
X-18615000Y2088967D01*
X-18615000Y2411033D01*
X-15385000Y2411033D01*
X-15385000Y2088967D01*
X-15322168Y1773088D01*
X-15198918Y1475537D01*
X-15019987Y1207748D01*
X-14792252Y980013D01*
X-14524463Y801082D01*
X-14226912Y677832D01*
X-13911033Y615000D01*
X-13588967Y615000D01*
X-13273088Y677832D01*
X-12975537Y801082D01*
X-12707748Y980013D01*
X-12480013Y1207748D01*
X-12301082Y1475537D01*
X-12177832Y1773088D01*
X-12115000Y2088967D01*
X-12115000Y2411033D01*
X-12175360Y2714483D01*
X-8362184Y6527658D01*
X-8332236Y6552236D01*
X-8234138Y6671767D01*
X-8161246Y6808140D01*
X-8149727Y6846113D01*
X-8116358Y6956113D01*
X-8108980Y7031026D01*
X-8105000Y7071439D01*
X-8105000Y7071444D01*
X-8101203Y7110000D01*
X-8105000Y7148556D01*
X-8105000Y19093462D01*
X-8088900Y19102068D01*
X-7870393Y19281392D01*
X-7691068Y19499899D01*
X-7620000Y19632858D01*
X-7548932Y19499900D01*
X-7369608Y19281393D01*
X-7151101Y19102068D01*
X-6901808Y18968818D01*
X-6631309Y18886764D01*
X-6350000Y18859057D01*
X-6068692Y18886764D01*
X-5798193Y18968818D01*
X-5548900Y19102068D01*
X-5330393Y19281392D01*
X-5151068Y19499899D01*
X-5082735Y19627741D01*
X-4932601Y19398161D01*
X-4734895Y19196500D01*
X-4501646Y19037285D01*
X-4241818Y18926633D01*
X-4159039Y18909096D01*
X-3937000Y19031085D01*
X-3937000Y20574000D01*
X-3957000Y20574000D01*
X-3957000Y20828000D01*
X-3937000Y20828000D01*
X-3937000Y22370915D01*
X-4159039Y22492904D01*
X-4241818Y22475367D01*
X-4501646Y22364715D01*
X-4734895Y22205500D01*
X-4932601Y22003839D01*
X-5082735Y21774259D01*
X-5151068Y21902101D01*
X-5330392Y22120608D01*
X-5548899Y22299932D01*
X-5798192Y22433182D01*
X-6068691Y22515236D01*
X-6350000Y22542943D01*
X-6631308Y22515236D01*
X-6901807Y22433182D01*
X-7151100Y22299932D01*
X-7369607Y22120608D01*
X-7548932Y21902101D01*
X-7620000Y21769142D01*
X-7691068Y21902101D01*
X-7870392Y22120608D01*
X-8088899Y22299932D01*
X-8338192Y22433182D01*
X-8608691Y22515236D01*
X-8890000Y22542943D01*
X-9171308Y22515236D01*
X-9441807Y22433182D01*
X-9691100Y22299932D01*
X-9909607Y22120608D01*
X-10088932Y21902101D01*
X-10222182Y21652808D01*
X-10304236Y21382309D01*
X-10325000Y21171492D01*
X-10325000Y20230509D01*
X-10304236Y20019692D01*
X-10222182Y19749193D01*
X-10088932Y19499900D01*
X-9909608Y19281393D01*
X-9691101Y19102068D01*
X-9675000Y19093462D01*
X-9674999Y12824968D01*
X-9681816Y12873791D01*
X-9784487Y13168644D01*
X-9870958Y13330421D01*
X-10130248Y13420147D01*
X-11050395Y12500000D01*
X-10130248Y11579853D01*
X-9870958Y11669579D01*
X-9735065Y11950671D01*
X-9675000Y12182069D01*
X-9674999Y7435159D01*
X-13285517Y3824640D01*
X-13588967Y3885000D01*
X-13911033Y3885000D01*
X-14226912Y3822168D01*
X-14524463Y3698918D01*
X-14792252Y3519987D01*
X-15019987Y3292252D01*
X-15198918Y3024463D01*
X-15322168Y2726912D01*
X-15385000Y2411033D01*
X-18615000Y2411033D01*
X-18677832Y2726912D01*
X-18801082Y3024463D01*
X-18980013Y3292252D01*
X-19207748Y3519987D01*
X-19475537Y3698918D01*
X-19773088Y3822168D01*
X-20088967Y3885000D01*
X-20411033Y3885000D01*
X-20726912Y3822168D01*
X-21024463Y3698918D01*
X-21292252Y3519987D01*
X-21519987Y3292252D01*
X-21698918Y3024463D01*
X-21822168Y2726912D01*
X-21885000Y2411033D01*
X-42040000Y2411033D01*
X-42040000Y10165958D01*
X-33935000Y10165958D01*
X-33935000Y9834042D01*
X-33870246Y9508504D01*
X-33743228Y9201853D01*
X-33558825Y8925875D01*
X-33324125Y8691175D01*
X-33048147Y8506772D01*
X-32741496Y8379754D01*
X-32415958Y8315000D01*
X-32084042Y8315000D01*
X-31758504Y8379754D01*
X-31451853Y8506772D01*
X-31175875Y8691175D01*
X-30941175Y8925875D01*
X-30756772Y9201853D01*
X-30629754Y9508504D01*
X-30565000Y9834042D01*
X-30565000Y10165958D01*
X-21435000Y10165958D01*
X-21435000Y9834042D01*
X-21370246Y9508504D01*
X-21243228Y9201853D01*
X-21058825Y8925875D01*
X-20824125Y8691175D01*
X-20548147Y8506772D01*
X-20241496Y8379754D01*
X-19915958Y8315000D01*
X-19584042Y8315000D01*
X-19258504Y8379754D01*
X-18951853Y8506772D01*
X-18675875Y8691175D01*
X-18441175Y8925875D01*
X-18256772Y9201853D01*
X-18129754Y9508504D01*
X-18065000Y9834042D01*
X-18065000Y10165958D01*
X-18129754Y10491496D01*
X-18256772Y10798147D01*
X-18441175Y11074125D01*
X-18675875Y11308825D01*
X-18951853Y11493228D01*
X-19258504Y11620246D01*
X-19584042Y11685000D01*
X-19915958Y11685000D01*
X-20241496Y11620246D01*
X-20548147Y11493228D01*
X-20824125Y11308825D01*
X-21058825Y11074125D01*
X-21243228Y10798147D01*
X-21370246Y10491496D01*
X-21435000Y10165958D01*
X-30565000Y10165958D01*
X-30629754Y10491496D01*
X-30756772Y10798147D01*
X-30941175Y11074125D01*
X-31175875Y11308825D01*
X-31451853Y11493228D01*
X-31758504Y11620246D01*
X-32084042Y11685000D01*
X-32415958Y11685000D01*
X-32741496Y11620246D01*
X-33048147Y11493228D01*
X-33324125Y11308825D01*
X-33558825Y11074125D01*
X-33743228Y10798147D01*
X-33870246Y10491496D01*
X-33935000Y10165958D01*
X-42040000Y10165958D01*
X-42040000Y15165958D01*
X-33935000Y15165958D01*
X-33935000Y14834042D01*
X-33870246Y14508504D01*
X-33743228Y14201853D01*
X-33558825Y13925875D01*
X-33324125Y13691175D01*
X-33048147Y13506772D01*
X-32741496Y13379754D01*
X-32415958Y13315000D01*
X-32084042Y13315000D01*
X-31758504Y13379754D01*
X-31451853Y13506772D01*
X-31175875Y13691175D01*
X-30941175Y13925875D01*
X-30756772Y14201853D01*
X-30629754Y14508504D01*
X-30565000Y14834042D01*
X-30565000Y15165958D01*
X-21435000Y15165958D01*
X-21435000Y14834042D01*
X-21370246Y14508504D01*
X-21243228Y14201853D01*
X-21058825Y13925875D01*
X-20824125Y13691175D01*
X-20548147Y13506772D01*
X-20241496Y13379754D01*
X-19915958Y13315000D01*
X-19584042Y13315000D01*
X-19258504Y13379754D01*
X-18951853Y13506772D01*
X-18675875Y13691175D01*
X-18441175Y13925875D01*
X-18256772Y14201853D01*
X-18129754Y14508504D01*
X-18065000Y14834042D01*
X-18065000Y15165958D01*
X-18129754Y15491496D01*
X-18256772Y15798147D01*
X-18441175Y16074125D01*
X-18675875Y16308825D01*
X-18951853Y16493228D01*
X-19258504Y16620246D01*
X-19584042Y16685000D01*
X-19915958Y16685000D01*
X-20241496Y16620246D01*
X-20548147Y16493228D01*
X-20824125Y16308825D01*
X-21058825Y16074125D01*
X-21243228Y15798147D01*
X-21370246Y15491496D01*
X-21435000Y15165958D01*
X-30565000Y15165958D01*
X-30629754Y15491496D01*
X-30635200Y15504643D01*
X-29722184Y16417658D01*
X-29692236Y16442236D01*
X-29667654Y16472188D01*
X-29643550Y16501559D01*
X-29594138Y16561767D01*
X-29521246Y16698140D01*
X-29476359Y16846113D01*
X-29465000Y16961439D01*
X-29465000Y16961446D01*
X-29461203Y16999999D01*
X-29465000Y17038552D01*
X-29465000Y19308123D01*
X-29207748Y19480013D01*
X-28980013Y19707748D01*
X-28801082Y19975537D01*
X-28677832Y20273088D01*
X-28615000Y20588967D01*
X-28615000Y20911033D01*
X-23385000Y20911033D01*
X-23385000Y20588967D01*
X-23322168Y20273088D01*
X-23198918Y19975537D01*
X-23019987Y19707748D01*
X-22792252Y19480013D01*
X-22524463Y19301082D01*
X-22226912Y19177832D01*
X-21911033Y19115000D01*
X-21588967Y19115000D01*
X-21273088Y19177832D01*
X-20975537Y19301082D01*
X-20707748Y19480013D01*
X-20480013Y19707748D01*
X-20301082Y19975537D01*
X-20284736Y20015000D01*
X-19325157Y20015000D01*
X-14554999Y15244841D01*
X-14554999Y14088072D01*
X-14720000Y14088072D01*
X-14844482Y14075812D01*
X-14964180Y14039502D01*
X-15074494Y13980537D01*
X-15171185Y13901185D01*
X-15250537Y13804494D01*
X-15309502Y13694180D01*
X-15345812Y13574482D01*
X-15358072Y13450000D01*
X-15358072Y11550000D01*
X-15345812Y11425518D01*
X-15309502Y11305820D01*
X-15250537Y11195506D01*
X-15171185Y11098815D01*
X-15074494Y11019463D01*
X-14964180Y10960498D01*
X-14844482Y10924188D01*
X-14720000Y10911928D01*
X-12820000Y10911928D01*
X-12695518Y10924188D01*
X-12575820Y10960498D01*
X-12465506Y11019463D01*
X-12368815Y11098815D01*
X-12289463Y11195506D01*
X-12230498Y11305820D01*
X-12224370Y11326022D01*
X-12150146Y11400246D01*
X-12060421Y11140958D01*
X-11779329Y11005065D01*
X-11477127Y10926621D01*
X-11165427Y10908641D01*
X-10856209Y10951816D01*
X-10561356Y11054487D01*
X-10399579Y11140958D01*
X-10309853Y11400248D01*
X-11230000Y12320395D01*
X-11244143Y12306253D01*
X-11423748Y12485858D01*
X-11409605Y12500000D01*
X-11423748Y12514143D01*
X-11244143Y12693748D01*
X-11230000Y12679605D01*
X-10309853Y13599752D01*
X-10399579Y13859042D01*
X-10680671Y13994935D01*
X-10982873Y14073379D01*
X-11294573Y14091359D01*
X-11603791Y14048184D01*
X-11898644Y13945513D01*
X-12060421Y13859042D01*
X-12150146Y13599754D01*
X-12224370Y13673978D01*
X-12230498Y13694180D01*
X-12289463Y13804494D01*
X-12368815Y13901185D01*
X-12465506Y13980537D01*
X-12575820Y14039502D01*
X-12695518Y14075812D01*
X-12820000Y14088072D01*
X-12985000Y14088072D01*
X-12985000Y15531445D01*
X-12981203Y15570000D01*
X-12985000Y15608556D01*
X-12985000Y15608561D01*
X-12989659Y15655861D01*
X-12996358Y15723887D01*
X-13041246Y15871860D01*
X-13114138Y16008233D01*
X-13212236Y16127764D01*
X-13242184Y16152342D01*
X-18417653Y21327810D01*
X-18442236Y21357764D01*
X-18561767Y21455862D01*
X-18698140Y21528754D01*
X-18846113Y21573641D01*
X-18961439Y21585000D01*
X-18961447Y21585000D01*
X-19000000Y21588797D01*
X-19038553Y21585000D01*
X-20341532Y21585000D01*
X-20480013Y21792252D01*
X-20707748Y22019987D01*
X-20975537Y22198918D01*
X-21273088Y22322168D01*
X-21588967Y22385000D01*
X-21911033Y22385000D01*
X-22226912Y22322168D01*
X-22524463Y22198918D01*
X-22792252Y22019987D01*
X-23019987Y21792252D01*
X-23198918Y21524463D01*
X-23322168Y21226912D01*
X-23385000Y20911033D01*
X-28615000Y20911033D01*
X-28677832Y21226912D01*
X-28801082Y21524463D01*
X-28980013Y21792252D01*
X-29207748Y22019987D01*
X-29475537Y22198918D01*
X-29773088Y22322168D01*
X-30088967Y22385000D01*
X-30411033Y22385000D01*
X-30726912Y22322168D01*
X-31024463Y22198918D01*
X-31292252Y22019987D01*
X-31519987Y21792252D01*
X-31698918Y21524463D01*
X-31822168Y21226912D01*
X-31885000Y20911033D01*
X-31885000Y20588967D01*
X-31822168Y20273088D01*
X-31698918Y19975537D01*
X-31519987Y19707748D01*
X-31292252Y19480013D01*
X-31035000Y19308122D01*
X-31034999Y17325159D01*
X-31745357Y16614800D01*
X-31758504Y16620246D01*
X-32084042Y16685000D01*
X-32415958Y16685000D01*
X-32741496Y16620246D01*
X-33048147Y16493228D01*
X-33324125Y16308825D01*
X-33558825Y16074125D01*
X-33743228Y15798147D01*
X-33870246Y15491496D01*
X-33935000Y15165958D01*
X-42040000Y15165958D01*
X-42040000Y22965267D01*
X-41974001Y23638370D01*
X-41788609Y24252421D01*
X-41487475Y24818771D01*
X-41082072Y25315846D01*
X-40587843Y25724708D01*
X-40023606Y26029790D01*
X-39410865Y26219466D01*
X-38739796Y26289999D01*
X38715290Y26289999D01*
X39388370Y26224002D01*
M02*
