G04 #@! TF.GenerationSoftware,KiCad,Pcbnew,(5.1.6)-1*
G04 #@! TF.CreationDate,2021-06-05T18:08:31+10:00*
G04 #@! TF.ProjectId,Simon,53696d6f-6e2e-46b6-9963-61645f706362,rev?*
G04 #@! TF.SameCoordinates,Original*
G04 #@! TF.FileFunction,Soldermask,Top*
G04 #@! TF.FilePolarity,Negative*
%FSLAX46Y46*%
G04 Gerber Fmt 4.6, Leading zero omitted, Abs format (unit mm)*
G04 Created by KiCad (PCBNEW (5.1.6)-1) date 2021-06-05 18:08:31*
%MOMM*%
%LPD*%
G01*
G04 APERTURE LIST*
%ADD10C,0.100000*%
G04 APERTURE END LIST*
D10*
G36*
X11551000Y-22301000D02*
G01*
X9449000Y-22301000D01*
X9449000Y-20199000D01*
X11551000Y-20199000D01*
X11551000Y-22301000D01*
G37*
G36*
X8306564Y-20239389D02*
G01*
X8497833Y-20318615D01*
X8497835Y-20318616D01*
X8669973Y-20433635D01*
X8816365Y-20580027D01*
X8860772Y-20646486D01*
X8931385Y-20752167D01*
X9010611Y-20943436D01*
X9051000Y-21146484D01*
X9051000Y-21353516D01*
X9010611Y-21556564D01*
X8931385Y-21747833D01*
X8931384Y-21747835D01*
X8816365Y-21919973D01*
X8669973Y-22066365D01*
X8497835Y-22181384D01*
X8497834Y-22181385D01*
X8497833Y-22181385D01*
X8306564Y-22260611D01*
X8103516Y-22301000D01*
X7896484Y-22301000D01*
X7693436Y-22260611D01*
X7502167Y-22181385D01*
X7502166Y-22181385D01*
X7502165Y-22181384D01*
X7330027Y-22066365D01*
X7183635Y-21919973D01*
X7068616Y-21747835D01*
X7068615Y-21747833D01*
X6989389Y-21556564D01*
X6949000Y-21353516D01*
X6949000Y-21146484D01*
X6989389Y-20943436D01*
X7068615Y-20752167D01*
X7139229Y-20646486D01*
X7183635Y-20580027D01*
X7330027Y-20433635D01*
X7502165Y-20318616D01*
X7502167Y-20318615D01*
X7693436Y-20239389D01*
X7896484Y-20199000D01*
X8103516Y-20199000D01*
X8306564Y-20239389D01*
G37*
G36*
X30556564Y-19739389D02*
G01*
X30747833Y-19818615D01*
X30747835Y-19818616D01*
X30919973Y-19933635D01*
X31066365Y-20080027D01*
X31181385Y-20252167D01*
X31260611Y-20443436D01*
X31301000Y-20646484D01*
X31301000Y-20853516D01*
X31260611Y-21056564D01*
X31223365Y-21146484D01*
X31181384Y-21247835D01*
X31066365Y-21419973D01*
X30919973Y-21566365D01*
X30747835Y-21681384D01*
X30747834Y-21681385D01*
X30747833Y-21681385D01*
X30556564Y-21760611D01*
X30353516Y-21801000D01*
X30146484Y-21801000D01*
X29943436Y-21760611D01*
X29752167Y-21681385D01*
X29752166Y-21681385D01*
X29752165Y-21681384D01*
X29580027Y-21566365D01*
X29433635Y-21419973D01*
X29318616Y-21247835D01*
X29276635Y-21146484D01*
X29239389Y-21056564D01*
X29199000Y-20853516D01*
X29199000Y-20646484D01*
X29239389Y-20443436D01*
X29318615Y-20252167D01*
X29433635Y-20080027D01*
X29580027Y-19933635D01*
X29752165Y-19818616D01*
X29752167Y-19818615D01*
X29943436Y-19739389D01*
X30146484Y-19699000D01*
X30353516Y-19699000D01*
X30556564Y-19739389D01*
G37*
G36*
X-21443436Y-19739389D02*
G01*
X-21252167Y-19818615D01*
X-21252165Y-19818616D01*
X-21080027Y-19933635D01*
X-20933635Y-20080027D01*
X-20818615Y-20252167D01*
X-20739389Y-20443436D01*
X-20699000Y-20646484D01*
X-20699000Y-20853516D01*
X-20739389Y-21056564D01*
X-20776635Y-21146484D01*
X-20818616Y-21247835D01*
X-20933635Y-21419973D01*
X-21080027Y-21566365D01*
X-21252165Y-21681384D01*
X-21252166Y-21681385D01*
X-21252167Y-21681385D01*
X-21443436Y-21760611D01*
X-21646484Y-21801000D01*
X-21853516Y-21801000D01*
X-22056564Y-21760611D01*
X-22247833Y-21681385D01*
X-22247834Y-21681385D01*
X-22247835Y-21681384D01*
X-22419973Y-21566365D01*
X-22566365Y-21419973D01*
X-22681384Y-21247835D01*
X-22723365Y-21146484D01*
X-22760611Y-21056564D01*
X-22801000Y-20853516D01*
X-22801000Y-20646484D01*
X-22760611Y-20443436D01*
X-22681385Y-20252167D01*
X-22566365Y-20080027D01*
X-22419973Y-19933635D01*
X-22247835Y-19818616D01*
X-22247833Y-19818615D01*
X-22056564Y-19739389D01*
X-21853516Y-19699000D01*
X-21646484Y-19699000D01*
X-21443436Y-19739389D01*
G37*
G36*
X-29943436Y-19739389D02*
G01*
X-29752167Y-19818615D01*
X-29752165Y-19818616D01*
X-29580027Y-19933635D01*
X-29433635Y-20080027D01*
X-29318615Y-20252167D01*
X-29239389Y-20443436D01*
X-29199000Y-20646484D01*
X-29199000Y-20853516D01*
X-29239389Y-21056564D01*
X-29276635Y-21146484D01*
X-29318616Y-21247835D01*
X-29433635Y-21419973D01*
X-29580027Y-21566365D01*
X-29752165Y-21681384D01*
X-29752166Y-21681385D01*
X-29752167Y-21681385D01*
X-29943436Y-21760611D01*
X-30146484Y-21801000D01*
X-30353516Y-21801000D01*
X-30556564Y-21760611D01*
X-30747833Y-21681385D01*
X-30747834Y-21681385D01*
X-30747835Y-21681384D01*
X-30919973Y-21566365D01*
X-31066365Y-21419973D01*
X-31181384Y-21247835D01*
X-31223365Y-21146484D01*
X-31260611Y-21056564D01*
X-31301000Y-20853516D01*
X-31301000Y-20646484D01*
X-31260611Y-20443436D01*
X-31181385Y-20252167D01*
X-31066365Y-20080027D01*
X-30919973Y-19933635D01*
X-30747835Y-19818616D01*
X-30747833Y-19818615D01*
X-30556564Y-19739389D01*
X-30353516Y-19699000D01*
X-30146484Y-19699000D01*
X-29943436Y-19739389D01*
G37*
G36*
X22056564Y-19739389D02*
G01*
X22247833Y-19818615D01*
X22247835Y-19818616D01*
X22419973Y-19933635D01*
X22566365Y-20080027D01*
X22681385Y-20252167D01*
X22760611Y-20443436D01*
X22801000Y-20646484D01*
X22801000Y-20853516D01*
X22760611Y-21056564D01*
X22723365Y-21146484D01*
X22681384Y-21247835D01*
X22566365Y-21419973D01*
X22419973Y-21566365D01*
X22247835Y-21681384D01*
X22247834Y-21681385D01*
X22247833Y-21681385D01*
X22056564Y-21760611D01*
X21853516Y-21801000D01*
X21646484Y-21801000D01*
X21443436Y-21760611D01*
X21252167Y-21681385D01*
X21252166Y-21681385D01*
X21252165Y-21681384D01*
X21080027Y-21566365D01*
X20933635Y-21419973D01*
X20818616Y-21247835D01*
X20776635Y-21146484D01*
X20739389Y-21056564D01*
X20699000Y-20853516D01*
X20699000Y-20646484D01*
X20739389Y-20443436D01*
X20818615Y-20252167D01*
X20933635Y-20080027D01*
X21080027Y-19933635D01*
X21252165Y-19818616D01*
X21252167Y-19818615D01*
X21443436Y-19739389D01*
X21646484Y-19699000D01*
X21853516Y-19699000D01*
X22056564Y-19739389D01*
G37*
G36*
X3556564Y-16989389D02*
G01*
X3747833Y-17068615D01*
X3747835Y-17068616D01*
X3919973Y-17183635D01*
X4066365Y-17330027D01*
X4181385Y-17502167D01*
X4260611Y-17693436D01*
X4301000Y-17896484D01*
X4301000Y-18103516D01*
X4260611Y-18306564D01*
X4181385Y-18497833D01*
X4181384Y-18497835D01*
X4066365Y-18669973D01*
X3919973Y-18816365D01*
X3747835Y-18931384D01*
X3747834Y-18931385D01*
X3747833Y-18931385D01*
X3556564Y-19010611D01*
X3353516Y-19051000D01*
X3146484Y-19051000D01*
X2943436Y-19010611D01*
X2752167Y-18931385D01*
X2752166Y-18931385D01*
X2752165Y-18931384D01*
X2580027Y-18816365D01*
X2433635Y-18669973D01*
X2318616Y-18497835D01*
X2318615Y-18497833D01*
X2239389Y-18306564D01*
X2199000Y-18103516D01*
X2199000Y-17896484D01*
X2239389Y-17693436D01*
X2318615Y-17502167D01*
X2433635Y-17330027D01*
X2580027Y-17183635D01*
X2752165Y-17068616D01*
X2752167Y-17068615D01*
X2943436Y-16989389D01*
X3146484Y-16949000D01*
X3353516Y-16949000D01*
X3556564Y-16989389D01*
G37*
G36*
X-2199000Y-19051000D02*
G01*
X-4301000Y-19051000D01*
X-4301000Y-16949000D01*
X-2199000Y-16949000D01*
X-2199000Y-19051000D01*
G37*
G36*
X32464794Y-13920155D02*
G01*
X32571150Y-13941311D01*
X32671334Y-13982809D01*
X32771520Y-14024307D01*
X32951844Y-14144795D01*
X33105205Y-14298156D01*
X33225693Y-14478480D01*
X33308689Y-14678851D01*
X33351000Y-14891560D01*
X33351000Y-15108440D01*
X33308689Y-15321149D01*
X33225693Y-15521520D01*
X33105205Y-15701844D01*
X32951844Y-15855205D01*
X32771520Y-15975693D01*
X32671334Y-16017191D01*
X32571150Y-16058689D01*
X32464794Y-16079845D01*
X32358440Y-16101000D01*
X32141560Y-16101000D01*
X32035206Y-16079845D01*
X31928850Y-16058689D01*
X31728480Y-15975693D01*
X31548156Y-15855205D01*
X31394795Y-15701844D01*
X31274307Y-15521520D01*
X31191311Y-15321149D01*
X31149000Y-15108440D01*
X31149000Y-14891560D01*
X31191311Y-14678851D01*
X31274307Y-14478480D01*
X31394795Y-14298156D01*
X31548156Y-14144795D01*
X31728480Y-14024307D01*
X31828666Y-13982809D01*
X31928850Y-13941311D01*
X32035206Y-13920155D01*
X32141560Y-13899000D01*
X32358440Y-13899000D01*
X32464794Y-13920155D01*
G37*
G36*
X-32035206Y-13920155D02*
G01*
X-31928850Y-13941311D01*
X-31828666Y-13982809D01*
X-31728480Y-14024307D01*
X-31548156Y-14144795D01*
X-31394795Y-14298156D01*
X-31274307Y-14478480D01*
X-31191311Y-14678851D01*
X-31149000Y-14891560D01*
X-31149000Y-15108440D01*
X-31191311Y-15321149D01*
X-31274307Y-15521520D01*
X-31394795Y-15701844D01*
X-31548156Y-15855205D01*
X-31728480Y-15975693D01*
X-31928850Y-16058689D01*
X-32035206Y-16079845D01*
X-32141560Y-16101000D01*
X-32358440Y-16101000D01*
X-32464794Y-16079845D01*
X-32571150Y-16058689D01*
X-32671334Y-16017191D01*
X-32771520Y-15975693D01*
X-32951844Y-15855205D01*
X-33105205Y-15701844D01*
X-33225693Y-15521520D01*
X-33308689Y-15321149D01*
X-33351000Y-15108440D01*
X-33351000Y-14891560D01*
X-33308689Y-14678851D01*
X-33225693Y-14478480D01*
X-33105205Y-14298156D01*
X-32951844Y-14144795D01*
X-32771520Y-14024307D01*
X-32671334Y-13982809D01*
X-32571150Y-13941311D01*
X-32464794Y-13920155D01*
X-32358440Y-13899000D01*
X-32141560Y-13899000D01*
X-32035206Y-13920155D01*
G37*
G36*
X-19535206Y-13920155D02*
G01*
X-19428850Y-13941311D01*
X-19328666Y-13982809D01*
X-19228480Y-14024307D01*
X-19048156Y-14144795D01*
X-18894795Y-14298156D01*
X-18774307Y-14478480D01*
X-18691311Y-14678851D01*
X-18649000Y-14891560D01*
X-18649000Y-15108440D01*
X-18691311Y-15321149D01*
X-18774307Y-15521520D01*
X-18894795Y-15701844D01*
X-19048156Y-15855205D01*
X-19228480Y-15975693D01*
X-19428850Y-16058689D01*
X-19535206Y-16079845D01*
X-19641560Y-16101000D01*
X-19858440Y-16101000D01*
X-19964794Y-16079845D01*
X-20071150Y-16058689D01*
X-20271520Y-15975693D01*
X-20451844Y-15855205D01*
X-20605205Y-15701844D01*
X-20725693Y-15521520D01*
X-20808689Y-15321149D01*
X-20851000Y-15108440D01*
X-20851000Y-14891560D01*
X-20808689Y-14678851D01*
X-20725693Y-14478480D01*
X-20605205Y-14298156D01*
X-20451844Y-14144795D01*
X-20271520Y-14024307D01*
X-20171334Y-13982809D01*
X-20071150Y-13941311D01*
X-19964794Y-13920155D01*
X-19858440Y-13899000D01*
X-19641560Y-13899000D01*
X-19535206Y-13920155D01*
G37*
G36*
X19964794Y-13920155D02*
G01*
X20071150Y-13941311D01*
X20171334Y-13982809D01*
X20271520Y-14024307D01*
X20451844Y-14144795D01*
X20605205Y-14298156D01*
X20725693Y-14478480D01*
X20808689Y-14678851D01*
X20851000Y-14891560D01*
X20851000Y-15108440D01*
X20808689Y-15321149D01*
X20725693Y-15521520D01*
X20605205Y-15701844D01*
X20451844Y-15855205D01*
X20271520Y-15975693D01*
X20071150Y-16058689D01*
X19964794Y-16079845D01*
X19858440Y-16101000D01*
X19641560Y-16101000D01*
X19535206Y-16079845D01*
X19428850Y-16058689D01*
X19228480Y-15975693D01*
X19048156Y-15855205D01*
X18894795Y-15701844D01*
X18774307Y-15521520D01*
X18691311Y-15321149D01*
X18649000Y-15108440D01*
X18649000Y-14891560D01*
X18691311Y-14678851D01*
X18774307Y-14478480D01*
X18894795Y-14298156D01*
X19048156Y-14144795D01*
X19228480Y-14024307D01*
X19328666Y-13982809D01*
X19428850Y-13941311D01*
X19535206Y-13920155D01*
X19641560Y-13899000D01*
X19858440Y-13899000D01*
X19964794Y-13920155D01*
G37*
G36*
X-10938019Y-11537468D02*
G01*
X-10755849Y-11612926D01*
X-10591900Y-11722473D01*
X-10452473Y-11861900D01*
X-10342926Y-12025849D01*
X-10267468Y-12208019D01*
X-10229000Y-12401410D01*
X-10229000Y-12598590D01*
X-10267468Y-12791981D01*
X-10342926Y-12974151D01*
X-10452473Y-13138100D01*
X-10591900Y-13277527D01*
X-10755849Y-13387074D01*
X-10938019Y-13462532D01*
X-11034715Y-13481766D01*
X-11131409Y-13501000D01*
X-11328591Y-13501000D01*
X-11425285Y-13481766D01*
X-11521981Y-13462532D01*
X-11704151Y-13387074D01*
X-11868100Y-13277527D01*
X-12007527Y-13138100D01*
X-12117074Y-12974151D01*
X-12192532Y-12791981D01*
X-12231000Y-12598590D01*
X-12231000Y-12401410D01*
X-12192532Y-12208019D01*
X-12117074Y-12025849D01*
X-12007527Y-11861900D01*
X-11868100Y-11722473D01*
X-11704151Y-11612926D01*
X-11521981Y-11537468D01*
X-11425285Y-11518234D01*
X-11328591Y-11499000D01*
X-11131409Y-11499000D01*
X-10938019Y-11537468D01*
G37*
G36*
X13965285Y-11518234D02*
G01*
X14061981Y-11537468D01*
X14244151Y-11612926D01*
X14408100Y-11722473D01*
X14547527Y-11861900D01*
X14657074Y-12025849D01*
X14732532Y-12208019D01*
X14771000Y-12401410D01*
X14771000Y-12598590D01*
X14732532Y-12791981D01*
X14657074Y-12974151D01*
X14547527Y-13138100D01*
X14408100Y-13277527D01*
X14244151Y-13387074D01*
X14061981Y-13462532D01*
X13965285Y-13481766D01*
X13868591Y-13501000D01*
X13671409Y-13501000D01*
X13574715Y-13481766D01*
X13478019Y-13462532D01*
X13295849Y-13387074D01*
X13131900Y-13277527D01*
X12992473Y-13138100D01*
X12882926Y-12974151D01*
X12807468Y-12791981D01*
X12769000Y-12598590D01*
X12769000Y-12401410D01*
X12807468Y-12208019D01*
X12882926Y-12025849D01*
X12992473Y-11861900D01*
X13131900Y-11722473D01*
X13295849Y-11612926D01*
X13478019Y-11537468D01*
X13671409Y-11499000D01*
X13868591Y-11499000D01*
X13965285Y-11518234D01*
G37*
G36*
X12231000Y-13501000D02*
G01*
X10229000Y-13501000D01*
X10229000Y-11499000D01*
X12231000Y-11499000D01*
X12231000Y-13501000D01*
G37*
G36*
X-12769000Y-13501000D02*
G01*
X-14771000Y-13501000D01*
X-14771000Y-11499000D01*
X-12769000Y-11499000D01*
X-12769000Y-13501000D01*
G37*
G36*
X-32035205Y-8920156D02*
G01*
X-31928850Y-8941311D01*
X-31828666Y-8982809D01*
X-31728480Y-9024307D01*
X-31548156Y-9144795D01*
X-31394795Y-9298156D01*
X-31274307Y-9478480D01*
X-31191311Y-9678851D01*
X-31149000Y-9891560D01*
X-31149000Y-10108440D01*
X-31191311Y-10321149D01*
X-31274307Y-10521520D01*
X-31394795Y-10701844D01*
X-31548156Y-10855205D01*
X-31728480Y-10975693D01*
X-31928850Y-11058689D01*
X-32035205Y-11079844D01*
X-32141560Y-11101000D01*
X-32358440Y-11101000D01*
X-32464795Y-11079844D01*
X-32571150Y-11058689D01*
X-32671334Y-11017191D01*
X-32771520Y-10975693D01*
X-32951844Y-10855205D01*
X-33105205Y-10701844D01*
X-33225693Y-10521520D01*
X-33308689Y-10321149D01*
X-33351000Y-10108440D01*
X-33351000Y-9891560D01*
X-33308689Y-9678851D01*
X-33225693Y-9478480D01*
X-33105205Y-9298156D01*
X-32951844Y-9144795D01*
X-32771520Y-9024307D01*
X-32671334Y-8982809D01*
X-32571150Y-8941311D01*
X-32464795Y-8920156D01*
X-32358440Y-8899000D01*
X-32141560Y-8899000D01*
X-32035205Y-8920156D01*
G37*
G36*
X-19535205Y-8920156D02*
G01*
X-19428850Y-8941311D01*
X-19328666Y-8982809D01*
X-19228480Y-9024307D01*
X-19048156Y-9144795D01*
X-18894795Y-9298156D01*
X-18774307Y-9478480D01*
X-18691311Y-9678851D01*
X-18649000Y-9891560D01*
X-18649000Y-10108440D01*
X-18691311Y-10321149D01*
X-18774307Y-10521520D01*
X-18894795Y-10701844D01*
X-19048156Y-10855205D01*
X-19228480Y-10975693D01*
X-19428850Y-11058689D01*
X-19535205Y-11079844D01*
X-19641560Y-11101000D01*
X-19858440Y-11101000D01*
X-19964795Y-11079844D01*
X-20071150Y-11058689D01*
X-20171334Y-11017191D01*
X-20271520Y-10975693D01*
X-20451844Y-10855205D01*
X-20605205Y-10701844D01*
X-20725693Y-10521520D01*
X-20808689Y-10321149D01*
X-20851000Y-10108440D01*
X-20851000Y-9891560D01*
X-20808689Y-9678851D01*
X-20725693Y-9478480D01*
X-20605205Y-9298156D01*
X-20451844Y-9144795D01*
X-20271520Y-9024307D01*
X-20171334Y-8982809D01*
X-20071150Y-8941311D01*
X-19964795Y-8920156D01*
X-19858440Y-8899000D01*
X-19641560Y-8899000D01*
X-19535205Y-8920156D01*
G37*
G36*
X32464795Y-8920156D02*
G01*
X32571150Y-8941311D01*
X32671334Y-8982809D01*
X32771520Y-9024307D01*
X32951844Y-9144795D01*
X33105205Y-9298156D01*
X33225693Y-9478480D01*
X33308689Y-9678851D01*
X33351000Y-9891560D01*
X33351000Y-10108440D01*
X33308689Y-10321149D01*
X33225693Y-10521520D01*
X33105205Y-10701844D01*
X32951844Y-10855205D01*
X32771520Y-10975693D01*
X32671334Y-11017191D01*
X32571150Y-11058689D01*
X32464795Y-11079844D01*
X32358440Y-11101000D01*
X32141560Y-11101000D01*
X32035205Y-11079844D01*
X31928850Y-11058689D01*
X31728480Y-10975693D01*
X31548156Y-10855205D01*
X31394795Y-10701844D01*
X31274307Y-10521520D01*
X31191311Y-10321149D01*
X31149000Y-10108440D01*
X31149000Y-9891560D01*
X31191311Y-9678851D01*
X31274307Y-9478480D01*
X31394795Y-9298156D01*
X31548156Y-9144795D01*
X31728480Y-9024307D01*
X31828666Y-8982809D01*
X31928850Y-8941311D01*
X32035205Y-8920156D01*
X32141560Y-8899000D01*
X32358440Y-8899000D01*
X32464795Y-8920156D01*
G37*
G36*
X19964795Y-8920156D02*
G01*
X20071150Y-8941311D01*
X20171334Y-8982809D01*
X20271520Y-9024307D01*
X20451844Y-9144795D01*
X20605205Y-9298156D01*
X20725693Y-9478480D01*
X20808689Y-9678851D01*
X20851000Y-9891560D01*
X20851000Y-10108440D01*
X20808689Y-10321149D01*
X20725693Y-10521520D01*
X20605205Y-10701844D01*
X20451844Y-10855205D01*
X20271520Y-10975693D01*
X20171334Y-11017191D01*
X20071150Y-11058689D01*
X19964795Y-11079844D01*
X19858440Y-11101000D01*
X19641560Y-11101000D01*
X19535205Y-11079844D01*
X19428850Y-11058689D01*
X19228480Y-10975693D01*
X19048156Y-10855205D01*
X18894795Y-10701844D01*
X18774307Y-10521520D01*
X18691311Y-10321149D01*
X18649000Y-10108440D01*
X18649000Y-9891560D01*
X18691311Y-9678851D01*
X18774307Y-9478480D01*
X18894795Y-9298156D01*
X19048156Y-9144795D01*
X19228480Y-9024307D01*
X19328666Y-8982809D01*
X19428850Y-8941311D01*
X19535205Y-8920156D01*
X19641560Y-8899000D01*
X19858440Y-8899000D01*
X19964795Y-8920156D01*
G37*
G36*
X379487Y-7003996D02*
G01*
X616253Y-7102068D01*
X616255Y-7102069D01*
X829339Y-7244447D01*
X1010553Y-7425661D01*
X1152932Y-7638747D01*
X1251004Y-7875513D01*
X1301000Y-8126861D01*
X1301000Y-8383139D01*
X1251004Y-8634487D01*
X1152932Y-8871253D01*
X1152931Y-8871255D01*
X1010553Y-9084339D01*
X829339Y-9265553D01*
X616255Y-9407931D01*
X616254Y-9407932D01*
X616253Y-9407932D01*
X379487Y-9506004D01*
X128139Y-9556000D01*
X-128139Y-9556000D01*
X-379487Y-9506004D01*
X-616253Y-9407932D01*
X-616254Y-9407932D01*
X-616255Y-9407931D01*
X-829339Y-9265553D01*
X-1010553Y-9084339D01*
X-1152931Y-8871255D01*
X-1152932Y-8871253D01*
X-1251004Y-8634487D01*
X-1301000Y-8383139D01*
X-1301000Y-8126861D01*
X-1251004Y-7875513D01*
X-1152932Y-7638747D01*
X-1010553Y-7425661D01*
X-829339Y-7244447D01*
X-616255Y-7102069D01*
X-616253Y-7102068D01*
X-379487Y-7003996D01*
X-128139Y-6954000D01*
X128139Y-6954000D01*
X379487Y-7003996D01*
G37*
G36*
X24896822Y-2571313D02*
G01*
X25057241Y-2619976D01*
X25205077Y-2698995D01*
X25264588Y-2747835D01*
X25334659Y-2805341D01*
X25441004Y-2934922D01*
X25441005Y-2934924D01*
X25520024Y-3082758D01*
X25568687Y-3243177D01*
X25581000Y-3368196D01*
X25581000Y-4251803D01*
X25568687Y-4376822D01*
X25520024Y-4537242D01*
X25449114Y-4669906D01*
X25441004Y-4685078D01*
X25334659Y-4814659D01*
X25205078Y-4921004D01*
X25205076Y-4921005D01*
X25057242Y-5000024D01*
X24896823Y-5048687D01*
X24730000Y-5065117D01*
X24563178Y-5048687D01*
X24402759Y-5000024D01*
X24254925Y-4921005D01*
X24254923Y-4921004D01*
X24125342Y-4814659D01*
X24018997Y-4685078D01*
X24010887Y-4669906D01*
X23939977Y-4537242D01*
X23891314Y-4376823D01*
X23879000Y-4251803D01*
X23879000Y-3368197D01*
X23891313Y-3243178D01*
X23939976Y-3082759D01*
X24018995Y-2934923D01*
X24125341Y-2805341D01*
X24195412Y-2747835D01*
X24254922Y-2698996D01*
X24270094Y-2690886D01*
X24402758Y-2619976D01*
X24563177Y-2571313D01*
X24730000Y-2554883D01*
X24896822Y-2571313D01*
G37*
G36*
X27436822Y-2571313D02*
G01*
X27597241Y-2619976D01*
X27745077Y-2698995D01*
X27804588Y-2747835D01*
X27874659Y-2805341D01*
X27981004Y-2934922D01*
X27981005Y-2934924D01*
X28060024Y-3082758D01*
X28108687Y-3243177D01*
X28121000Y-3368196D01*
X28121000Y-4251803D01*
X28108687Y-4376822D01*
X28060024Y-4537242D01*
X27989114Y-4669906D01*
X27981004Y-4685078D01*
X27874659Y-4814659D01*
X27745078Y-4921004D01*
X27745076Y-4921005D01*
X27597242Y-5000024D01*
X27436823Y-5048687D01*
X27270000Y-5065117D01*
X27103178Y-5048687D01*
X26942759Y-5000024D01*
X26794925Y-4921005D01*
X26794923Y-4921004D01*
X26665342Y-4814659D01*
X26558997Y-4685078D01*
X26550887Y-4669906D01*
X26479977Y-4537242D01*
X26431314Y-4376823D01*
X26419000Y-4251803D01*
X26419000Y-3368197D01*
X26431313Y-3243178D01*
X26479976Y-3082759D01*
X26558995Y-2934923D01*
X26665341Y-2805341D01*
X26735412Y-2747835D01*
X26794922Y-2698996D01*
X26810094Y-2690886D01*
X26942758Y-2619976D01*
X27103177Y-2571313D01*
X27270000Y-2554883D01*
X27436822Y-2571313D01*
G37*
G36*
X29976822Y-2571313D02*
G01*
X30137241Y-2619976D01*
X30285077Y-2698995D01*
X30344588Y-2747835D01*
X30414659Y-2805341D01*
X30521004Y-2934922D01*
X30521005Y-2934924D01*
X30600024Y-3082758D01*
X30648687Y-3243177D01*
X30661000Y-3368196D01*
X30661000Y-4251803D01*
X30648687Y-4376822D01*
X30600024Y-4537242D01*
X30529114Y-4669906D01*
X30521004Y-4685078D01*
X30414659Y-4814659D01*
X30285078Y-4921004D01*
X30285076Y-4921005D01*
X30137242Y-5000024D01*
X29976823Y-5048687D01*
X29810000Y-5065117D01*
X29643178Y-5048687D01*
X29482759Y-5000024D01*
X29334925Y-4921005D01*
X29334923Y-4921004D01*
X29205342Y-4814659D01*
X29098997Y-4685078D01*
X29090887Y-4669906D01*
X29019977Y-4537242D01*
X28971314Y-4376823D01*
X28959000Y-4251803D01*
X28959000Y-3368197D01*
X28971313Y-3243178D01*
X29019976Y-3082759D01*
X29098995Y-2934923D01*
X29205341Y-2805341D01*
X29275412Y-2747835D01*
X29334922Y-2698996D01*
X29350094Y-2690886D01*
X29482758Y-2619976D01*
X29643177Y-2571313D01*
X29810000Y-2554883D01*
X29976822Y-2571313D01*
G37*
G36*
X23041000Y-5061000D02*
G01*
X21339000Y-5061000D01*
X21339000Y-2559000D01*
X23041000Y-2559000D01*
X23041000Y-5061000D01*
G37*
G36*
X-19943436Y-1239389D02*
G01*
X-19752167Y-1318615D01*
X-19752165Y-1318616D01*
X-19580027Y-1433635D01*
X-19433635Y-1580027D01*
X-19318615Y-1752167D01*
X-19239389Y-1943436D01*
X-19199000Y-2146484D01*
X-19199000Y-2353516D01*
X-19239389Y-2556564D01*
X-19245499Y-2571314D01*
X-19318616Y-2747835D01*
X-19433635Y-2919973D01*
X-19580027Y-3066365D01*
X-19752165Y-3181384D01*
X-19752166Y-3181385D01*
X-19752167Y-3181385D01*
X-19943436Y-3260611D01*
X-20146484Y-3301000D01*
X-20353516Y-3301000D01*
X-20556564Y-3260611D01*
X-20747833Y-3181385D01*
X-20747834Y-3181385D01*
X-20747835Y-3181384D01*
X-20919973Y-3066365D01*
X-21066365Y-2919973D01*
X-21181384Y-2747835D01*
X-21254501Y-2571314D01*
X-21260611Y-2556564D01*
X-21301000Y-2353516D01*
X-21301000Y-2146484D01*
X-21260611Y-1943436D01*
X-21181385Y-1752167D01*
X-21066365Y-1580027D01*
X-20919973Y-1433635D01*
X-20747835Y-1318616D01*
X-20747833Y-1318615D01*
X-20556564Y-1239389D01*
X-20353516Y-1199000D01*
X-20146484Y-1199000D01*
X-19943436Y-1239389D01*
G37*
G36*
X-13443436Y-1239389D02*
G01*
X-13252167Y-1318615D01*
X-13252165Y-1318616D01*
X-13080027Y-1433635D01*
X-12933635Y-1580027D01*
X-12818615Y-1752167D01*
X-12739389Y-1943436D01*
X-12699000Y-2146484D01*
X-12699000Y-2353516D01*
X-12739389Y-2556564D01*
X-12745499Y-2571314D01*
X-12818616Y-2747835D01*
X-12933635Y-2919973D01*
X-13080027Y-3066365D01*
X-13252165Y-3181384D01*
X-13252166Y-3181385D01*
X-13252167Y-3181385D01*
X-13443436Y-3260611D01*
X-13646484Y-3301000D01*
X-13853516Y-3301000D01*
X-14056564Y-3260611D01*
X-14247833Y-3181385D01*
X-14247834Y-3181385D01*
X-14247835Y-3181384D01*
X-14419973Y-3066365D01*
X-14566365Y-2919973D01*
X-14681384Y-2747835D01*
X-14754501Y-2571314D01*
X-14760611Y-2556564D01*
X-14801000Y-2353516D01*
X-14801000Y-2146484D01*
X-14760611Y-1943436D01*
X-14681385Y-1752167D01*
X-14566365Y-1580027D01*
X-14419973Y-1433635D01*
X-14247835Y-1318616D01*
X-14247833Y-1318615D01*
X-14056564Y-1239389D01*
X-13853516Y-1199000D01*
X-13646484Y-1199000D01*
X-13443436Y-1239389D01*
G37*
G36*
X17306564Y-259389D02*
G01*
X17497833Y-338615D01*
X17497835Y-338616D01*
X17669973Y-453635D01*
X17816365Y-600027D01*
X17931385Y-772167D01*
X18010611Y-963436D01*
X18051000Y-1166484D01*
X18051000Y-1373516D01*
X18010611Y-1576564D01*
X17937875Y-1752165D01*
X17931384Y-1767835D01*
X17816365Y-1939973D01*
X17669973Y-2086365D01*
X17497835Y-2201384D01*
X17497834Y-2201385D01*
X17497833Y-2201385D01*
X17306564Y-2280611D01*
X17103516Y-2321000D01*
X16896484Y-2321000D01*
X16693436Y-2280611D01*
X16502167Y-2201385D01*
X16502166Y-2201385D01*
X16502165Y-2201384D01*
X16330027Y-2086365D01*
X16183635Y-1939973D01*
X16068616Y-1767835D01*
X16062125Y-1752165D01*
X15989389Y-1576564D01*
X15949000Y-1373516D01*
X15949000Y-1166484D01*
X15989389Y-963436D01*
X16068615Y-772167D01*
X16183635Y-600027D01*
X16330027Y-453635D01*
X16502165Y-338616D01*
X16502167Y-338615D01*
X16693436Y-259389D01*
X16896484Y-219000D01*
X17103516Y-219000D01*
X17306564Y-259389D01*
G37*
G36*
X17306564Y2280611D02*
G01*
X17497833Y2201385D01*
X17497835Y2201384D01*
X17669973Y2086365D01*
X17816365Y1939973D01*
X17931385Y1767833D01*
X18010611Y1576564D01*
X18051000Y1373516D01*
X18051000Y1166484D01*
X18010611Y963436D01*
X17931385Y772167D01*
X17931384Y772165D01*
X17816365Y600027D01*
X17669973Y453635D01*
X17497835Y338616D01*
X17497834Y338615D01*
X17497833Y338615D01*
X17306564Y259389D01*
X17103516Y219000D01*
X16896484Y219000D01*
X16693436Y259389D01*
X16502167Y338615D01*
X16502166Y338615D01*
X16502165Y338616D01*
X16330027Y453635D01*
X16183635Y600027D01*
X16068616Y772165D01*
X16068615Y772167D01*
X15989389Y963436D01*
X15949000Y1166484D01*
X15949000Y1373516D01*
X15989389Y1576564D01*
X16068615Y1767833D01*
X16183635Y1939973D01*
X16330027Y2086365D01*
X16502165Y2201384D01*
X16502167Y2201385D01*
X16693436Y2280611D01*
X16896484Y2321000D01*
X17103516Y2321000D01*
X17306564Y2280611D01*
G37*
G36*
X-19943436Y3260611D02*
G01*
X-19752167Y3181385D01*
X-19752165Y3181384D01*
X-19580027Y3066365D01*
X-19433635Y2919973D01*
X-19357040Y2805341D01*
X-19318615Y2747833D01*
X-19239389Y2556564D01*
X-19199000Y2353516D01*
X-19199000Y2146484D01*
X-19239389Y1943436D01*
X-19312125Y1767835D01*
X-19318616Y1752165D01*
X-19433635Y1580027D01*
X-19580027Y1433635D01*
X-19752165Y1318616D01*
X-19752166Y1318615D01*
X-19752167Y1318615D01*
X-19943436Y1239389D01*
X-20146484Y1199000D01*
X-20353516Y1199000D01*
X-20556564Y1239389D01*
X-20747833Y1318615D01*
X-20747834Y1318615D01*
X-20747835Y1318616D01*
X-20919973Y1433635D01*
X-21066365Y1580027D01*
X-21181384Y1752165D01*
X-21187875Y1767835D01*
X-21260611Y1943436D01*
X-21301000Y2146484D01*
X-21301000Y2353516D01*
X-21260611Y2556564D01*
X-21181385Y2747833D01*
X-21142959Y2805341D01*
X-21066365Y2919973D01*
X-20919973Y3066365D01*
X-20747835Y3181384D01*
X-20747833Y3181385D01*
X-20556564Y3260611D01*
X-20353516Y3301000D01*
X-20146484Y3301000D01*
X-19943436Y3260611D01*
G37*
G36*
X-13443436Y3260611D02*
G01*
X-13252167Y3181385D01*
X-13252165Y3181384D01*
X-13080027Y3066365D01*
X-12933635Y2919973D01*
X-12857040Y2805341D01*
X-12818615Y2747833D01*
X-12739389Y2556564D01*
X-12699000Y2353516D01*
X-12699000Y2146484D01*
X-12739389Y1943436D01*
X-12812125Y1767835D01*
X-12818616Y1752165D01*
X-12933635Y1580027D01*
X-13080027Y1433635D01*
X-13252165Y1318616D01*
X-13252166Y1318615D01*
X-13252167Y1318615D01*
X-13443436Y1239389D01*
X-13646484Y1199000D01*
X-13853516Y1199000D01*
X-14056564Y1239389D01*
X-14247833Y1318615D01*
X-14247834Y1318615D01*
X-14247835Y1318616D01*
X-14419973Y1433635D01*
X-14566365Y1580027D01*
X-14681384Y1752165D01*
X-14687875Y1767835D01*
X-14760611Y1943436D01*
X-14801000Y2146484D01*
X-14801000Y2353516D01*
X-14760611Y2556564D01*
X-14681385Y2747833D01*
X-14642959Y2805341D01*
X-14566365Y2919973D01*
X-14419973Y3066365D01*
X-14247835Y3181384D01*
X-14247833Y3181385D01*
X-14056564Y3260611D01*
X-13853516Y3301000D01*
X-13646484Y3301000D01*
X-13443436Y3260611D01*
G37*
G36*
X22356822Y5048687D02*
G01*
X22517241Y5000024D01*
X22665077Y4921005D01*
X22794659Y4814659D01*
X22901004Y4685078D01*
X22901005Y4685076D01*
X22980024Y4537242D01*
X23028687Y4376823D01*
X23041000Y4251804D01*
X23041000Y3368197D01*
X23028687Y3243178D01*
X22980024Y3082758D01*
X22909114Y2950094D01*
X22901004Y2934922D01*
X22794659Y2805341D01*
X22665078Y2698996D01*
X22665076Y2698995D01*
X22517242Y2619976D01*
X22356823Y2571313D01*
X22190000Y2554883D01*
X22023178Y2571313D01*
X21862759Y2619976D01*
X21714925Y2698995D01*
X21714923Y2698996D01*
X21585342Y2805341D01*
X21478997Y2934922D01*
X21470887Y2950094D01*
X21399977Y3082758D01*
X21351314Y3243177D01*
X21339000Y3368197D01*
X21339000Y4251803D01*
X21351313Y4376822D01*
X21399976Y4537241D01*
X21478995Y4685077D01*
X21585341Y4814659D01*
X21714922Y4921004D01*
X21730094Y4929114D01*
X21862758Y5000024D01*
X22023177Y5048687D01*
X22190000Y5065117D01*
X22356822Y5048687D01*
G37*
G36*
X24896822Y5048687D02*
G01*
X25057241Y5000024D01*
X25205077Y4921005D01*
X25334659Y4814659D01*
X25441004Y4685078D01*
X25441005Y4685076D01*
X25520024Y4537242D01*
X25568687Y4376823D01*
X25581000Y4251804D01*
X25581000Y3368197D01*
X25568687Y3243178D01*
X25520024Y3082758D01*
X25449114Y2950094D01*
X25441004Y2934922D01*
X25334659Y2805341D01*
X25205078Y2698996D01*
X25205076Y2698995D01*
X25057242Y2619976D01*
X24896823Y2571313D01*
X24730000Y2554883D01*
X24563178Y2571313D01*
X24402759Y2619976D01*
X24254925Y2698995D01*
X24254923Y2698996D01*
X24125342Y2805341D01*
X24018997Y2934922D01*
X24010887Y2950094D01*
X23939977Y3082758D01*
X23891314Y3243177D01*
X23879000Y3368197D01*
X23879000Y4251803D01*
X23891313Y4376822D01*
X23939976Y4537241D01*
X24018995Y4685077D01*
X24125341Y4814659D01*
X24254922Y4921004D01*
X24270094Y4929114D01*
X24402758Y5000024D01*
X24563177Y5048687D01*
X24730000Y5065117D01*
X24896822Y5048687D01*
G37*
G36*
X27436822Y5048687D02*
G01*
X27597241Y5000024D01*
X27745077Y4921005D01*
X27874659Y4814659D01*
X27981004Y4685078D01*
X27981005Y4685076D01*
X28060024Y4537242D01*
X28108687Y4376823D01*
X28121000Y4251804D01*
X28121000Y3368197D01*
X28108687Y3243178D01*
X28060024Y3082758D01*
X27989114Y2950094D01*
X27981004Y2934922D01*
X27874659Y2805341D01*
X27745078Y2698996D01*
X27745076Y2698995D01*
X27597242Y2619976D01*
X27436823Y2571313D01*
X27270000Y2554883D01*
X27103178Y2571313D01*
X26942759Y2619976D01*
X26794925Y2698995D01*
X26794923Y2698996D01*
X26665342Y2805341D01*
X26558997Y2934922D01*
X26550887Y2950094D01*
X26479977Y3082758D01*
X26431314Y3243177D01*
X26419000Y3368197D01*
X26419000Y4251803D01*
X26431313Y4376822D01*
X26479976Y4537241D01*
X26558995Y4685077D01*
X26665341Y4814659D01*
X26794922Y4921004D01*
X26810094Y4929114D01*
X26942758Y5000024D01*
X27103177Y5048687D01*
X27270000Y5065117D01*
X27436822Y5048687D01*
G37*
G36*
X29976822Y5048687D02*
G01*
X30137241Y5000024D01*
X30285077Y4921005D01*
X30414659Y4814659D01*
X30521004Y4685078D01*
X30521005Y4685076D01*
X30600024Y4537242D01*
X30648687Y4376823D01*
X30661000Y4251804D01*
X30661000Y3368197D01*
X30648687Y3243178D01*
X30600024Y3082758D01*
X30529114Y2950094D01*
X30521004Y2934922D01*
X30414659Y2805341D01*
X30285078Y2698996D01*
X30285076Y2698995D01*
X30137242Y2619976D01*
X29976823Y2571313D01*
X29810000Y2554883D01*
X29643178Y2571313D01*
X29482759Y2619976D01*
X29334925Y2698995D01*
X29334923Y2698996D01*
X29205342Y2805341D01*
X29098997Y2934922D01*
X29090887Y2950094D01*
X29019977Y3082758D01*
X28971314Y3243177D01*
X28959000Y3368197D01*
X28959000Y4251803D01*
X28971313Y4376822D01*
X29019976Y4537241D01*
X29098995Y4685077D01*
X29205341Y4814659D01*
X29334922Y4921004D01*
X29350094Y4929114D01*
X29482758Y5000024D01*
X29643177Y5048687D01*
X29810000Y5065117D01*
X29976822Y5048687D01*
G37*
G36*
X32464795Y11079844D02*
G01*
X32571150Y11058689D01*
X32671334Y11017191D01*
X32771520Y10975693D01*
X32951844Y10855205D01*
X33105205Y10701844D01*
X33225693Y10521520D01*
X33308689Y10321149D01*
X33351000Y10108440D01*
X33351000Y9891560D01*
X33308689Y9678851D01*
X33225693Y9478480D01*
X33105205Y9298156D01*
X32951844Y9144795D01*
X32771520Y9024307D01*
X32671334Y8982809D01*
X32571150Y8941311D01*
X32464795Y8920156D01*
X32358440Y8899000D01*
X32141560Y8899000D01*
X32035205Y8920156D01*
X31928850Y8941311D01*
X31828666Y8982809D01*
X31728480Y9024307D01*
X31548156Y9144795D01*
X31394795Y9298156D01*
X31274307Y9478480D01*
X31191311Y9678851D01*
X31149000Y9891560D01*
X31149000Y10108440D01*
X31191311Y10321149D01*
X31274307Y10521520D01*
X31394795Y10701844D01*
X31548156Y10855205D01*
X31728480Y10975693D01*
X31928850Y11058689D01*
X32035205Y11079844D01*
X32141560Y11101000D01*
X32358440Y11101000D01*
X32464795Y11079844D01*
G37*
G36*
X-32035205Y11079844D02*
G01*
X-31928850Y11058689D01*
X-31728480Y10975693D01*
X-31548156Y10855205D01*
X-31394795Y10701844D01*
X-31274307Y10521520D01*
X-31191311Y10321149D01*
X-31149000Y10108440D01*
X-31149000Y9891560D01*
X-31191311Y9678851D01*
X-31274307Y9478480D01*
X-31394795Y9298156D01*
X-31548156Y9144795D01*
X-31728480Y9024307D01*
X-31828666Y8982809D01*
X-31928850Y8941311D01*
X-32035205Y8920156D01*
X-32141560Y8899000D01*
X-32358440Y8899000D01*
X-32464795Y8920156D01*
X-32571150Y8941311D01*
X-32671334Y8982809D01*
X-32771520Y9024307D01*
X-32951844Y9144795D01*
X-33105205Y9298156D01*
X-33225693Y9478480D01*
X-33308689Y9678851D01*
X-33351000Y9891560D01*
X-33351000Y10108440D01*
X-33308689Y10321149D01*
X-33225693Y10521520D01*
X-33105205Y10701844D01*
X-32951844Y10855205D01*
X-32771520Y10975693D01*
X-32671334Y11017191D01*
X-32571150Y11058689D01*
X-32464795Y11079844D01*
X-32358440Y11101000D01*
X-32141560Y11101000D01*
X-32035205Y11079844D01*
G37*
G36*
X19964795Y11079844D02*
G01*
X20071150Y11058689D01*
X20171334Y11017191D01*
X20271520Y10975693D01*
X20451844Y10855205D01*
X20605205Y10701844D01*
X20725693Y10521520D01*
X20808689Y10321149D01*
X20851000Y10108440D01*
X20851000Y9891560D01*
X20808689Y9678851D01*
X20725693Y9478480D01*
X20605205Y9298156D01*
X20451844Y9144795D01*
X20271520Y9024307D01*
X20171334Y8982809D01*
X20071150Y8941311D01*
X19964795Y8920156D01*
X19858440Y8899000D01*
X19641560Y8899000D01*
X19535205Y8920156D01*
X19428850Y8941311D01*
X19328666Y8982809D01*
X19228480Y9024307D01*
X19048156Y9144795D01*
X18894795Y9298156D01*
X18774307Y9478480D01*
X18691311Y9678851D01*
X18649000Y9891560D01*
X18649000Y10108440D01*
X18691311Y10321149D01*
X18774307Y10521520D01*
X18894795Y10701844D01*
X19048156Y10855205D01*
X19228480Y10975693D01*
X19428850Y11058689D01*
X19535205Y11079844D01*
X19641560Y11101000D01*
X19858440Y11101000D01*
X19964795Y11079844D01*
G37*
G36*
X-19535205Y11079844D02*
G01*
X-19428850Y11058689D01*
X-19228480Y10975693D01*
X-19048156Y10855205D01*
X-18894795Y10701844D01*
X-18774307Y10521520D01*
X-18691311Y10321149D01*
X-18649000Y10108440D01*
X-18649000Y9891560D01*
X-18691311Y9678851D01*
X-18774307Y9478480D01*
X-18894795Y9298156D01*
X-19048156Y9144795D01*
X-19228480Y9024307D01*
X-19328666Y8982809D01*
X-19428850Y8941311D01*
X-19535205Y8920156D01*
X-19641560Y8899000D01*
X-19858440Y8899000D01*
X-19964795Y8920156D01*
X-20071150Y8941311D01*
X-20171334Y8982809D01*
X-20271520Y9024307D01*
X-20451844Y9144795D01*
X-20605205Y9298156D01*
X-20725693Y9478480D01*
X-20808689Y9678851D01*
X-20851000Y9891560D01*
X-20851000Y10108440D01*
X-20808689Y10321149D01*
X-20725693Y10521520D01*
X-20605205Y10701844D01*
X-20451844Y10855205D01*
X-20271520Y10975693D01*
X-20171334Y11017191D01*
X-20071150Y11058689D01*
X-19964795Y11079844D01*
X-19858440Y11101000D01*
X-19641560Y11101000D01*
X-19535205Y11079844D01*
G37*
G36*
X1301000Y10764000D02*
G01*
X-1301000Y10764000D01*
X-1301000Y13366000D01*
X1301000Y13366000D01*
X1301000Y10764000D01*
G37*
G36*
X13965285Y13481766D02*
G01*
X14061981Y13462532D01*
X14244151Y13387074D01*
X14408100Y13277527D01*
X14547527Y13138100D01*
X14657074Y12974151D01*
X14732532Y12791981D01*
X14771000Y12598590D01*
X14771000Y12401410D01*
X14732532Y12208019D01*
X14657074Y12025849D01*
X14547527Y11861900D01*
X14408100Y11722473D01*
X14244151Y11612926D01*
X14061981Y11537468D01*
X13965285Y11518234D01*
X13868591Y11499000D01*
X13671409Y11499000D01*
X13478019Y11537468D01*
X13295849Y11612926D01*
X13131900Y11722473D01*
X12992473Y11861900D01*
X12882926Y12025849D01*
X12807468Y12208019D01*
X12769000Y12401410D01*
X12769000Y12598590D01*
X12807468Y12791981D01*
X12882926Y12974151D01*
X12992473Y13138100D01*
X13131900Y13277527D01*
X13295849Y13387074D01*
X13478019Y13462532D01*
X13574715Y13481766D01*
X13671409Y13501000D01*
X13868591Y13501000D01*
X13965285Y13481766D01*
G37*
G36*
X-11034715Y13481766D02*
G01*
X-10938019Y13462532D01*
X-10755849Y13387074D01*
X-10591900Y13277527D01*
X-10452473Y13138100D01*
X-10342926Y12974151D01*
X-10267468Y12791981D01*
X-10229000Y12598590D01*
X-10229000Y12401410D01*
X-10267468Y12208019D01*
X-10342926Y12025849D01*
X-10452473Y11861900D01*
X-10591900Y11722473D01*
X-10755849Y11612926D01*
X-10938019Y11537468D01*
X-11131409Y11499000D01*
X-11328591Y11499000D01*
X-11425285Y11518234D01*
X-11521981Y11537468D01*
X-11704151Y11612926D01*
X-11868100Y11722473D01*
X-12007527Y11861900D01*
X-12117074Y12025849D01*
X-12192532Y12208019D01*
X-12231000Y12401410D01*
X-12231000Y12598590D01*
X-12192532Y12791981D01*
X-12117074Y12974151D01*
X-12007527Y13138100D01*
X-11868100Y13277527D01*
X-11704151Y13387074D01*
X-11521981Y13462532D01*
X-11425285Y13481766D01*
X-11328591Y13501000D01*
X-11131409Y13501000D01*
X-11034715Y13481766D01*
G37*
G36*
X12231000Y11499000D02*
G01*
X10229000Y11499000D01*
X10229000Y13501000D01*
X12231000Y13501000D01*
X12231000Y11499000D01*
G37*
G36*
X-12769000Y11499000D02*
G01*
X-14771000Y11499000D01*
X-14771000Y13501000D01*
X-12769000Y13501000D01*
X-12769000Y11499000D01*
G37*
G36*
X-19535206Y16079845D02*
G01*
X-19428850Y16058689D01*
X-19228480Y15975693D01*
X-19048156Y15855205D01*
X-18894795Y15701844D01*
X-18774307Y15521520D01*
X-18691311Y15321149D01*
X-18649000Y15108440D01*
X-18649000Y14891560D01*
X-18691311Y14678851D01*
X-18774307Y14478480D01*
X-18894795Y14298156D01*
X-19048156Y14144795D01*
X-19228480Y14024307D01*
X-19328666Y13982809D01*
X-19428850Y13941311D01*
X-19535206Y13920155D01*
X-19641560Y13899000D01*
X-19858440Y13899000D01*
X-19964794Y13920155D01*
X-20071150Y13941311D01*
X-20171334Y13982809D01*
X-20271520Y14024307D01*
X-20451844Y14144795D01*
X-20605205Y14298156D01*
X-20725693Y14478480D01*
X-20808689Y14678851D01*
X-20851000Y14891560D01*
X-20851000Y15108440D01*
X-20808689Y15321149D01*
X-20725693Y15521520D01*
X-20605205Y15701844D01*
X-20451844Y15855205D01*
X-20271520Y15975693D01*
X-20071150Y16058689D01*
X-19964794Y16079845D01*
X-19858440Y16101000D01*
X-19641560Y16101000D01*
X-19535206Y16079845D01*
G37*
G36*
X32464794Y16079845D02*
G01*
X32571150Y16058689D01*
X32671334Y16017191D01*
X32771520Y15975693D01*
X32951844Y15855205D01*
X33105205Y15701844D01*
X33225693Y15521520D01*
X33308689Y15321149D01*
X33351000Y15108440D01*
X33351000Y14891560D01*
X33308689Y14678851D01*
X33225693Y14478480D01*
X33105205Y14298156D01*
X32951844Y14144795D01*
X32771520Y14024307D01*
X32671334Y13982809D01*
X32571150Y13941311D01*
X32464794Y13920155D01*
X32358440Y13899000D01*
X32141560Y13899000D01*
X32035206Y13920155D01*
X31928850Y13941311D01*
X31828666Y13982809D01*
X31728480Y14024307D01*
X31548156Y14144795D01*
X31394795Y14298156D01*
X31274307Y14478480D01*
X31191311Y14678851D01*
X31149000Y14891560D01*
X31149000Y15108440D01*
X31191311Y15321149D01*
X31274307Y15521520D01*
X31394795Y15701844D01*
X31548156Y15855205D01*
X31728480Y15975693D01*
X31928850Y16058689D01*
X32035206Y16079845D01*
X32141560Y16101000D01*
X32358440Y16101000D01*
X32464794Y16079845D01*
G37*
G36*
X19964794Y16079845D02*
G01*
X20071150Y16058689D01*
X20271520Y15975693D01*
X20451844Y15855205D01*
X20605205Y15701844D01*
X20725693Y15521520D01*
X20808689Y15321149D01*
X20851000Y15108440D01*
X20851000Y14891560D01*
X20808689Y14678851D01*
X20725693Y14478480D01*
X20605205Y14298156D01*
X20451844Y14144795D01*
X20271520Y14024307D01*
X20171334Y13982809D01*
X20071150Y13941311D01*
X19964794Y13920155D01*
X19858440Y13899000D01*
X19641560Y13899000D01*
X19535206Y13920155D01*
X19428850Y13941311D01*
X19328666Y13982809D01*
X19228480Y14024307D01*
X19048156Y14144795D01*
X18894795Y14298156D01*
X18774307Y14478480D01*
X18691311Y14678851D01*
X18649000Y14891560D01*
X18649000Y15108440D01*
X18691311Y15321149D01*
X18774307Y15521520D01*
X18894795Y15701844D01*
X19048156Y15855205D01*
X19228480Y15975693D01*
X19428850Y16058689D01*
X19535206Y16079845D01*
X19641560Y16101000D01*
X19858440Y16101000D01*
X19964794Y16079845D01*
G37*
G36*
X-32035206Y16079845D02*
G01*
X-31928850Y16058689D01*
X-31728480Y15975693D01*
X-31548156Y15855205D01*
X-31394795Y15701844D01*
X-31274307Y15521520D01*
X-31191311Y15321149D01*
X-31149000Y15108440D01*
X-31149000Y14891560D01*
X-31191311Y14678851D01*
X-31274307Y14478480D01*
X-31394795Y14298156D01*
X-31548156Y14144795D01*
X-31728480Y14024307D01*
X-31828666Y13982809D01*
X-31928850Y13941311D01*
X-32035206Y13920155D01*
X-32141560Y13899000D01*
X-32358440Y13899000D01*
X-32464794Y13920155D01*
X-32571150Y13941311D01*
X-32671334Y13982809D01*
X-32771520Y14024307D01*
X-32951844Y14144795D01*
X-33105205Y14298156D01*
X-33225693Y14478480D01*
X-33308689Y14678851D01*
X-33351000Y14891560D01*
X-33351000Y15108440D01*
X-33308689Y15321149D01*
X-33225693Y15521520D01*
X-33105205Y15701844D01*
X-32951844Y15855205D01*
X-32771520Y15975693D01*
X-32671334Y16017191D01*
X-32571150Y16058689D01*
X-32464794Y16079845D01*
X-32358440Y16101000D01*
X-32141560Y16101000D01*
X-32035206Y16079845D01*
G37*
G36*
X3976823Y21939687D02*
G01*
X4137242Y21891024D01*
X4269906Y21820114D01*
X4285078Y21812004D01*
X4414659Y21705659D01*
X4521004Y21576078D01*
X4521005Y21576076D01*
X4600024Y21428242D01*
X4648687Y21267822D01*
X4661000Y21142803D01*
X4661000Y20259196D01*
X4648687Y20134177D01*
X4600024Y19973758D01*
X4529114Y19841094D01*
X4521004Y19825922D01*
X4449988Y19739389D01*
X4414659Y19696341D01*
X4285077Y19589995D01*
X4137241Y19510976D01*
X3976822Y19462313D01*
X3810000Y19445883D01*
X3643177Y19462313D01*
X3482758Y19510976D01*
X3334924Y19589995D01*
X3334922Y19589996D01*
X3205341Y19696341D01*
X3170012Y19739389D01*
X3098995Y19825923D01*
X3019976Y19973759D01*
X2971313Y20134178D01*
X2959000Y20259197D01*
X2959000Y21142803D01*
X2971314Y21267823D01*
X3019977Y21428242D01*
X3098996Y21576076D01*
X3098997Y21576078D01*
X3205342Y21705659D01*
X3334923Y21812004D01*
X3350095Y21820114D01*
X3482759Y21891024D01*
X3643178Y21939687D01*
X3810000Y21956117D01*
X3976823Y21939687D01*
G37*
G36*
X6516823Y21939687D02*
G01*
X6677242Y21891024D01*
X6809906Y21820114D01*
X6825078Y21812004D01*
X6954659Y21705659D01*
X7061004Y21576078D01*
X7061005Y21576076D01*
X7140024Y21428242D01*
X7188687Y21267822D01*
X7201000Y21142803D01*
X7201000Y20259196D01*
X7188687Y20134177D01*
X7140024Y19973758D01*
X7069114Y19841094D01*
X7061004Y19825922D01*
X6989988Y19739389D01*
X6954659Y19696341D01*
X6825077Y19589995D01*
X6677241Y19510976D01*
X6516822Y19462313D01*
X6350000Y19445883D01*
X6183177Y19462313D01*
X6022758Y19510976D01*
X5874924Y19589995D01*
X5874922Y19589996D01*
X5745341Y19696341D01*
X5710012Y19739389D01*
X5638995Y19825923D01*
X5559976Y19973759D01*
X5511313Y20134178D01*
X5499000Y20259197D01*
X5499000Y21142803D01*
X5511314Y21267823D01*
X5559977Y21428242D01*
X5638996Y21576076D01*
X5638997Y21576078D01*
X5745342Y21705659D01*
X5874923Y21812004D01*
X5890095Y21820114D01*
X6022759Y21891024D01*
X6183178Y21939687D01*
X6350000Y21956117D01*
X6516823Y21939687D01*
G37*
G36*
X9056823Y21939687D02*
G01*
X9217242Y21891024D01*
X9349906Y21820114D01*
X9365078Y21812004D01*
X9494659Y21705659D01*
X9601004Y21576078D01*
X9601005Y21576076D01*
X9680024Y21428242D01*
X9728687Y21267822D01*
X9741000Y21142803D01*
X9741000Y20259196D01*
X9728687Y20134177D01*
X9680024Y19973758D01*
X9609114Y19841094D01*
X9601004Y19825922D01*
X9529988Y19739389D01*
X9494659Y19696341D01*
X9365077Y19589995D01*
X9217241Y19510976D01*
X9056822Y19462313D01*
X8890000Y19445883D01*
X8723177Y19462313D01*
X8562758Y19510976D01*
X8414924Y19589995D01*
X8414922Y19589996D01*
X8285341Y19696341D01*
X8250012Y19739389D01*
X8178995Y19825923D01*
X8099976Y19973759D01*
X8051313Y20134178D01*
X8039000Y20259197D01*
X8039000Y21142803D01*
X8051314Y21267823D01*
X8099977Y21428242D01*
X8178996Y21576076D01*
X8178997Y21576078D01*
X8285342Y21705659D01*
X8414923Y21812004D01*
X8430095Y21820114D01*
X8562759Y21891024D01*
X8723178Y21939687D01*
X8890000Y21956117D01*
X9056823Y21939687D01*
G37*
G36*
X1436823Y21939687D02*
G01*
X1597242Y21891024D01*
X1729906Y21820114D01*
X1745078Y21812004D01*
X1874659Y21705659D01*
X1981004Y21576078D01*
X1981005Y21576076D01*
X2060024Y21428242D01*
X2108687Y21267822D01*
X2121000Y21142803D01*
X2121000Y20259196D01*
X2108687Y20134177D01*
X2060024Y19973758D01*
X1989114Y19841094D01*
X1981004Y19825922D01*
X1909988Y19739389D01*
X1874659Y19696341D01*
X1745077Y19589995D01*
X1597241Y19510976D01*
X1436822Y19462313D01*
X1270000Y19445883D01*
X1103177Y19462313D01*
X942758Y19510976D01*
X794924Y19589995D01*
X794922Y19589996D01*
X665341Y19696341D01*
X630012Y19739389D01*
X558995Y19825923D01*
X479976Y19973759D01*
X431313Y20134178D01*
X419000Y20259197D01*
X419000Y21142803D01*
X431314Y21267823D01*
X479977Y21428242D01*
X558996Y21576076D01*
X558997Y21576078D01*
X665342Y21705659D01*
X794923Y21812004D01*
X810095Y21820114D01*
X942759Y21891024D01*
X1103178Y21939687D01*
X1270000Y21956117D01*
X1436823Y21939687D01*
G37*
G36*
X-1103177Y21939687D02*
G01*
X-942758Y21891024D01*
X-810094Y21820114D01*
X-794922Y21812004D01*
X-665341Y21705659D01*
X-558996Y21576078D01*
X-558995Y21576076D01*
X-479976Y21428242D01*
X-431313Y21267822D01*
X-419000Y21142803D01*
X-419000Y20259196D01*
X-431313Y20134177D01*
X-479976Y19973758D01*
X-550886Y19841094D01*
X-558996Y19825922D01*
X-630012Y19739389D01*
X-665341Y19696341D01*
X-794923Y19589995D01*
X-942759Y19510976D01*
X-1103178Y19462313D01*
X-1270000Y19445883D01*
X-1436823Y19462313D01*
X-1597242Y19510976D01*
X-1745076Y19589995D01*
X-1745078Y19589996D01*
X-1874659Y19696341D01*
X-1909988Y19739389D01*
X-1981005Y19825923D01*
X-2060024Y19973759D01*
X-2108687Y20134178D01*
X-2121000Y20259197D01*
X-2121000Y21142803D01*
X-2108686Y21267823D01*
X-2060023Y21428242D01*
X-1981004Y21576076D01*
X-1981003Y21576078D01*
X-1874658Y21705659D01*
X-1745077Y21812004D01*
X-1729905Y21820114D01*
X-1597241Y21891024D01*
X-1436822Y21939687D01*
X-1270000Y21956117D01*
X-1103177Y21939687D01*
G37*
G36*
X-3643177Y21939687D02*
G01*
X-3482758Y21891024D01*
X-3350094Y21820114D01*
X-3334922Y21812004D01*
X-3205341Y21705659D01*
X-3098996Y21576078D01*
X-3098995Y21576076D01*
X-3019976Y21428242D01*
X-2971313Y21267822D01*
X-2959000Y21142803D01*
X-2959000Y20259196D01*
X-2971313Y20134177D01*
X-3019976Y19973758D01*
X-3090886Y19841094D01*
X-3098996Y19825922D01*
X-3170012Y19739389D01*
X-3205341Y19696341D01*
X-3334923Y19589995D01*
X-3482759Y19510976D01*
X-3643178Y19462313D01*
X-3810000Y19445883D01*
X-3976823Y19462313D01*
X-4137242Y19510976D01*
X-4285076Y19589995D01*
X-4285078Y19589996D01*
X-4414659Y19696341D01*
X-4449988Y19739389D01*
X-4521005Y19825923D01*
X-4600024Y19973759D01*
X-4648687Y20134178D01*
X-4661000Y20259197D01*
X-4661000Y21142803D01*
X-4648686Y21267823D01*
X-4600023Y21428242D01*
X-4521004Y21576076D01*
X-4521003Y21576078D01*
X-4414658Y21705659D01*
X-4285077Y21812004D01*
X-4269905Y21820114D01*
X-4137241Y21891024D01*
X-3976822Y21939687D01*
X-3810000Y21956117D01*
X-3643177Y21939687D01*
G37*
G36*
X-6183177Y21939687D02*
G01*
X-6022758Y21891024D01*
X-5890094Y21820114D01*
X-5874922Y21812004D01*
X-5745341Y21705659D01*
X-5638996Y21576078D01*
X-5638995Y21576076D01*
X-5559976Y21428242D01*
X-5511313Y21267822D01*
X-5499000Y21142803D01*
X-5499000Y20259196D01*
X-5511313Y20134177D01*
X-5559976Y19973758D01*
X-5630886Y19841094D01*
X-5638996Y19825922D01*
X-5710012Y19739389D01*
X-5745341Y19696341D01*
X-5874923Y19589995D01*
X-6022759Y19510976D01*
X-6183178Y19462313D01*
X-6350000Y19445883D01*
X-6516823Y19462313D01*
X-6677242Y19510976D01*
X-6825076Y19589995D01*
X-6825078Y19589996D01*
X-6954659Y19696341D01*
X-6989988Y19739389D01*
X-7061005Y19825923D01*
X-7140024Y19973759D01*
X-7188687Y20134178D01*
X-7201000Y20259197D01*
X-7201000Y21142803D01*
X-7188686Y21267823D01*
X-7140023Y21428242D01*
X-7061004Y21576076D01*
X-7061003Y21576078D01*
X-6954658Y21705659D01*
X-6825077Y21812004D01*
X-6809905Y21820114D01*
X-6677241Y21891024D01*
X-6516822Y21939687D01*
X-6350000Y21956117D01*
X-6183177Y21939687D01*
G37*
G36*
X-8723177Y21939687D02*
G01*
X-8562758Y21891024D01*
X-8430094Y21820114D01*
X-8414922Y21812004D01*
X-8285341Y21705659D01*
X-8178996Y21576078D01*
X-8178995Y21576076D01*
X-8099976Y21428242D01*
X-8051313Y21267822D01*
X-8039000Y21142803D01*
X-8039000Y20259196D01*
X-8051313Y20134177D01*
X-8099976Y19973758D01*
X-8170886Y19841094D01*
X-8178996Y19825922D01*
X-8250012Y19739389D01*
X-8285341Y19696341D01*
X-8414923Y19589995D01*
X-8562759Y19510976D01*
X-8723178Y19462313D01*
X-8890000Y19445883D01*
X-9056823Y19462313D01*
X-9217242Y19510976D01*
X-9365076Y19589995D01*
X-9365078Y19589996D01*
X-9494659Y19696341D01*
X-9529988Y19739389D01*
X-9601005Y19825923D01*
X-9680024Y19973759D01*
X-9728687Y20134178D01*
X-9741000Y20259197D01*
X-9741000Y21142803D01*
X-9728686Y21267823D01*
X-9680023Y21428242D01*
X-9601004Y21576076D01*
X-9601003Y21576078D01*
X-9494658Y21705659D01*
X-9365077Y21812004D01*
X-9349905Y21820114D01*
X-9217241Y21891024D01*
X-9056822Y21939687D01*
X-8890000Y21956117D01*
X-8723177Y21939687D01*
G37*
G36*
X22056564Y21760611D02*
G01*
X22189230Y21705659D01*
X22247835Y21681384D01*
X22405436Y21576078D01*
X22419973Y21566365D01*
X22566365Y21419973D01*
X22681385Y21247833D01*
X22760611Y21056564D01*
X22801000Y20853516D01*
X22801000Y20646484D01*
X22760611Y20443436D01*
X22684298Y20259200D01*
X22681384Y20252165D01*
X22566365Y20080027D01*
X22419973Y19933635D01*
X22247835Y19818616D01*
X22247834Y19818615D01*
X22247833Y19818615D01*
X22056564Y19739389D01*
X21853516Y19699000D01*
X21646484Y19699000D01*
X21443436Y19739389D01*
X21252167Y19818615D01*
X21252166Y19818615D01*
X21252165Y19818616D01*
X21080027Y19933635D01*
X20933635Y20080027D01*
X20818616Y20252165D01*
X20815702Y20259200D01*
X20739389Y20443436D01*
X20699000Y20646484D01*
X20699000Y20853516D01*
X20739389Y21056564D01*
X20818615Y21247833D01*
X20933635Y21419973D01*
X21080027Y21566365D01*
X21094564Y21576078D01*
X21252165Y21681384D01*
X21310770Y21705659D01*
X21443436Y21760611D01*
X21646484Y21801000D01*
X21853516Y21801000D01*
X22056564Y21760611D01*
G37*
G36*
X30556564Y21760611D02*
G01*
X30689230Y21705659D01*
X30747835Y21681384D01*
X30905436Y21576078D01*
X30919973Y21566365D01*
X31066365Y21419973D01*
X31181385Y21247833D01*
X31260611Y21056564D01*
X31301000Y20853516D01*
X31301000Y20646484D01*
X31260611Y20443436D01*
X31184298Y20259200D01*
X31181384Y20252165D01*
X31066365Y20080027D01*
X30919973Y19933635D01*
X30747835Y19818616D01*
X30747834Y19818615D01*
X30747833Y19818615D01*
X30556564Y19739389D01*
X30353516Y19699000D01*
X30146484Y19699000D01*
X29943436Y19739389D01*
X29752167Y19818615D01*
X29752166Y19818615D01*
X29752165Y19818616D01*
X29580027Y19933635D01*
X29433635Y20080027D01*
X29318616Y20252165D01*
X29315702Y20259200D01*
X29239389Y20443436D01*
X29199000Y20646484D01*
X29199000Y20853516D01*
X29239389Y21056564D01*
X29318615Y21247833D01*
X29433635Y21419973D01*
X29580027Y21566365D01*
X29594564Y21576078D01*
X29752165Y21681384D01*
X29810770Y21705659D01*
X29943436Y21760611D01*
X30146484Y21801000D01*
X30353516Y21801000D01*
X30556564Y21760611D01*
G37*
G36*
X-21443436Y21760611D02*
G01*
X-21310770Y21705659D01*
X-21252165Y21681384D01*
X-21094564Y21576078D01*
X-21080027Y21566365D01*
X-20933635Y21419973D01*
X-20818615Y21247833D01*
X-20739389Y21056564D01*
X-20699000Y20853516D01*
X-20699000Y20646484D01*
X-20739389Y20443436D01*
X-20815702Y20259200D01*
X-20818616Y20252165D01*
X-20933635Y20080027D01*
X-21080027Y19933635D01*
X-21252165Y19818616D01*
X-21252166Y19818615D01*
X-21252167Y19818615D01*
X-21443436Y19739389D01*
X-21646484Y19699000D01*
X-21853516Y19699000D01*
X-22056564Y19739389D01*
X-22247833Y19818615D01*
X-22247834Y19818615D01*
X-22247835Y19818616D01*
X-22419973Y19933635D01*
X-22566365Y20080027D01*
X-22681384Y20252165D01*
X-22684298Y20259200D01*
X-22760611Y20443436D01*
X-22801000Y20646484D01*
X-22801000Y20853516D01*
X-22760611Y21056564D01*
X-22681385Y21247833D01*
X-22566365Y21419973D01*
X-22419973Y21566365D01*
X-22405436Y21576078D01*
X-22247835Y21681384D01*
X-22189230Y21705659D01*
X-22056564Y21760611D01*
X-21853516Y21801000D01*
X-21646484Y21801000D01*
X-21443436Y21760611D01*
G37*
G36*
X-29943436Y21760611D02*
G01*
X-29810770Y21705659D01*
X-29752165Y21681384D01*
X-29594564Y21576078D01*
X-29580027Y21566365D01*
X-29433635Y21419973D01*
X-29318615Y21247833D01*
X-29239389Y21056564D01*
X-29199000Y20853516D01*
X-29199000Y20646484D01*
X-29239389Y20443436D01*
X-29315702Y20259200D01*
X-29318616Y20252165D01*
X-29433635Y20080027D01*
X-29580027Y19933635D01*
X-29752165Y19818616D01*
X-29752166Y19818615D01*
X-29752167Y19818615D01*
X-29943436Y19739389D01*
X-30146484Y19699000D01*
X-30353516Y19699000D01*
X-30556564Y19739389D01*
X-30747833Y19818615D01*
X-30747834Y19818615D01*
X-30747835Y19818616D01*
X-30919973Y19933635D01*
X-31066365Y20080027D01*
X-31181384Y20252165D01*
X-31184298Y20259200D01*
X-31260611Y20443436D01*
X-31301000Y20646484D01*
X-31301000Y20853516D01*
X-31260611Y21056564D01*
X-31181385Y21247833D01*
X-31066365Y21419973D01*
X-30919973Y21566365D01*
X-30905436Y21576078D01*
X-30747835Y21681384D01*
X-30689230Y21705659D01*
X-30556564Y21760611D01*
X-30353516Y21801000D01*
X-30146484Y21801000D01*
X-29943436Y21760611D01*
G37*
M02*
